<svg xmlns="http://www.w3.org/2000/svg" width="920" height="520" viewBox="0 0 920 520">
<rect width="100%" height="100%" fill="#fffdf8"/>
<text x="460.0" y="30" text-anchor="middle" font-size="22" font-family="Helvetica, Arial, sans-serif">Runtime comparison: baseline vs auto vs intrinsics</text>
<line x1="90" y1="440.00" x2="890" y2="440.00" stroke="#d9d9d9" stroke-dasharray="4 4"/>
<text x="80" y="445.00" text-anchor="end" font-size="12" font-family="Helvetica, Arial, sans-serif">0.000</text>
<line x1="90" y1="364.00" x2="890" y2="364.00" stroke="#d9d9d9" stroke-dasharray="4 4"/>
<text x="80" y="369.00" text-anchor="end" font-size="12" font-family="Helvetica, Arial, sans-serif">0.591</text>
<line x1="90" y1="288.00" x2="890" y2="288.00" stroke="#d9d9d9" stroke-dasharray="4 4"/>
<text x="80" y="293.00" text-anchor="end" font-size="12" font-family="Helvetica, Arial, sans-serif">1.182</text>
<line x1="90" y1="212.00" x2="890" y2="212.00" stroke="#d9d9d9" stroke-dasharray="4 4"/>
<text x="80" y="217.00" text-anchor="end" font-size="12" font-family="Helvetica, Arial, sans-serif">1.773</text>
<line x1="90" y1="136.00" x2="890" y2="136.00" stroke="#d9d9d9" stroke-dasharray="4 4"/>
<text x="80" y="141.00" text-anchor="end" font-size="12" font-family="Helvetica, Arial, sans-serif">2.363</text>
<line x1="90" y1="60.00" x2="890" y2="60.00" stroke="#d9d9d9" stroke-dasharray="4 4"/>
<text x="80" y="65.00" text-anchor="end" font-size="12" font-family="Helvetica, Arial, sans-serif">2.954</text>
<line x1="90.00" y1="60" x2="90.00" y2="440" stroke="#eeeeee"/>
<text x="90.00" y="480" text-anchor="middle" font-size="12" font-family="Helvetica, Arial, sans-serif">256</text>
<line x1="890.00" y1="60" x2="890.00" y2="440" stroke="#eeeeee"/>
<text x="890.00" y="480" text-anchor="middle" font-size="12" font-family="Helvetica, Arial, sans-serif">2048</text>
<line x1="90" y1="60" x2="90" y2="440" stroke="#333333" stroke-width="2"/>
<line x1="90" y1="440" x2="890" y2="440" stroke="#333333" stroke-width="2"/>
<polyline fill="none" stroke="#9b2226" stroke-width="3" points="90.00,396.41 890.00,94.55"/>
<circle cx="90.00" cy="396.41" r="4.5" fill="#9b2226" stroke="white" stroke-width="1.5"/>
<circle cx="890.00" cy="94.55" r="4.5" fill="#9b2226" stroke="white" stroke-width="1.5"/>
<polyline fill="none" stroke="#0a9396" stroke-width="3" points="90.00,431.83 890.00,374.34"/>
<circle cx="90.00" cy="431.83" r="4.5" fill="#0a9396" stroke="white" stroke-width="1.5"/>
<circle cx="890.00" cy="374.34" r="4.5" fill="#0a9396" stroke="white" stroke-width="1.5"/>
<polyline fill="none" stroke="#005f73" stroke-width="3" points="90.00,440.00 890.00,440.00"/>
<circle cx="90.00" cy="440.00" r="4.5" fill="#005f73" stroke="white" stroke-width="1.5"/>
<circle cx="890.00" cy="440.00" r="4.5" fill="#005f73" stroke="white" stroke-width="1.5"/>
<rect x="600" y="70" width="270" height="98" fill="#ffffff" stroke="#cccccc"/>
<line x1="612" y1="94" x2="642" y2="94" stroke="#9b2226" stroke-width="3"/>
<text x="652" y="99" font-size="13" font-family="Helvetica, Arial, sans-serif">baseline (-O1, no vectorization)</text>
<line x1="612" y1="122" x2="642" y2="122" stroke="#0a9396" stroke-width="3"/>
<text x="652" y="127" font-size="13" font-family="Helvetica, Arial, sans-serif">auto-vectorized</text>
<line x1="612" y1="150" x2="642" y2="150" stroke="#005f73" stroke-width="3"/>
<text x="652" y="155" font-size="13" font-family="Helvetica, Arial, sans-serif">intrinsics</text>
<text x="22" y="260.0" text-anchor="middle" font-size="14" font-family="Helvetica, Arial, sans-serif" transform="rotate(-90 22 260.0)">Mean runtime [s]</text>
</svg>
