<svg xmlns="http://www.w3.org/2000/svg" width="920" height="520" viewBox="0 0 920 520">
<rect width="100%" height="100%" fill="#fffdf8"/>
<text x="460.0" y="30" text-anchor="middle" font-size="22" font-family="Helvetica, Arial, sans-serif">Intrinsics speedup relative to previous variants</text>
<line x1="90" y1="440.00" x2="890" y2="440.00" stroke="#d9d9d9" stroke-dasharray="4 4"/>
<text x="80" y="445.00" text-anchor="end" font-size="12" font-family="Helvetica, Arial, sans-serif">0.000</text>
<line x1="90" y1="364.00" x2="890" y2="364.00" stroke="#d9d9d9" stroke-dasharray="4 4"/>
<text x="80" y="369.00" text-anchor="end" font-size="12" font-family="Helvetica, Arial, sans-serif">29542.144</text>
<line x1="90" y1="288.00" x2="890" y2="288.00" stroke="#d9d9d9" stroke-dasharray="4 4"/>
<text x="80" y="293.00" text-anchor="end" font-size="12" font-family="Helvetica, Arial, sans-serif">59084.287</text>
<line x1="90" y1="212.00" x2="890" y2="212.00" stroke="#d9d9d9" stroke-dasharray="4 4"/>
<text x="80" y="217.00" text-anchor="end" font-size="12" font-family="Helvetica, Arial, sans-serif">88626.431</text>
<line x1="90" y1="136.00" x2="890" y2="136.00" stroke="#d9d9d9" stroke-dasharray="4 4"/>
<text x="80" y="141.00" text-anchor="end" font-size="12" font-family="Helvetica, Arial, sans-serif">118168.574</text>
<line x1="90" y1="60.00" x2="890" y2="60.00" stroke="#d9d9d9" stroke-dasharray="4 4"/>
<text x="80" y="65.00" text-anchor="end" font-size="12" font-family="Helvetica, Arial, sans-serif">147710.718</text>
<line x1="90.00" y1="60" x2="90.00" y2="440" stroke="#eeeeee"/>
<text x="90.00" y="480" text-anchor="middle" font-size="12" font-family="Helvetica, Arial, sans-serif">256</text>
<line x1="890.00" y1="60" x2="890.00" y2="440" stroke="#eeeeee"/>
<text x="890.00" y="480" text-anchor="middle" font-size="12" font-family="Helvetica, Arial, sans-serif">2048</text>
<line x1="90" y1="60" x2="90" y2="440" stroke="#333333" stroke-width="2"/>
<line x1="90" y1="440" x2="890" y2="440" stroke="#333333" stroke-width="2"/>
<line x1="90" y1="440.00" x2="890" y2="440.00" stroke="#9b2226" stroke-width="2" stroke-dasharray="8 5"/>
<polyline fill="none" stroke="#9b2226" stroke-width="3" points="90.00,149.42 890.00,94.55"/>
<circle cx="90.00" cy="149.42" r="4.5" fill="#9b2226" stroke="white" stroke-width="1.5"/>
<circle cx="890.00" cy="94.55" r="4.5" fill="#9b2226" stroke="white" stroke-width="1.5"/>
<polyline fill="none" stroke="#005f73" stroke-width="3" points="90.00,385.55 890.00,374.34"/>
<circle cx="90.00" cy="385.55" r="4.5" fill="#005f73" stroke="white" stroke-width="1.5"/>
<circle cx="890.00" cy="374.34" r="4.5" fill="#005f73" stroke="white" stroke-width="1.5"/>
<rect x="600" y="70" width="270" height="70" fill="#ffffff" stroke="#cccccc"/>
<line x1="612" y1="94" x2="642" y2="94" stroke="#9b2226" stroke-width="3"/>
<text x="652" y="99" font-size="13" font-family="Helvetica, Arial, sans-serif">baseline / intrinsics</text>
<line x1="612" y1="122" x2="642" y2="122" stroke="#005f73" stroke-width="3"/>
<text x="652" y="127" font-size="13" font-family="Helvetica, Arial, sans-serif">auto / intrinsics</text>
<text x="22" y="260.0" text-anchor="middle" font-size="14" font-family="Helvetica, Arial, sans-serif" transform="rotate(-90 22 260.0)">Speedup</text>
</svg>
