<svg xmlns="http://www.w3.org/2000/svg" width="980" height="620" viewBox="0 0 980 620" role="img">
<rect width="100%" height="100%" fill="#f6f3ee"/>
<style>
text { font-family: "Helvetica", "Arial", sans-serif; fill: #1f2937; }
.title { font-size: 22px; font-weight: 700; }
.subtitle { font-size: 12px; fill: #4b5563; }
.axis { stroke: #374151; stroke-width: 1.2; }
.grid { stroke: #d1d5db; stroke-width: 1; stroke-dasharray: 4 4; }
.tick { font-size: 11px; fill: #4b5563; }
.label { font-size: 12px; }
.legend { font-size: 12px; }
</style>
<text class="title" x="80" y="48">Runtime by Thread Count</text>
<text class="subtitle" x="80" y="68">Case b</text>
<line class="grid" x1="80.0" y1="510.0" x2="840.0" y2="510.0"/>
<text class="tick" x="72.0" y="514.0" text-anchor="end">0.00</text>
<line class="grid" x1="80.0" y1="426.0" x2="840.0" y2="426.0"/>
<text class="tick" x="72.0" y="430.0" text-anchor="end">0.14</text>
<line class="grid" x1="80.0" y1="342.0" x2="840.0" y2="342.0"/>
<text class="tick" x="72.0" y="346.0" text-anchor="end">0.27</text>
<line class="grid" x1="80.0" y1="258.0" x2="840.0" y2="258.0"/>
<text class="tick" x="72.0" y="262.0" text-anchor="end">0.41</text>
<line class="grid" x1="80.0" y1="174.0" x2="840.0" y2="174.0"/>
<text class="tick" x="72.0" y="178.0" text-anchor="end">0.55</text>
<line class="grid" x1="80.0" y1="90.0" x2="840.0" y2="90.0"/>
<text class="tick" x="72.0" y="94.0" text-anchor="end">0.69</text>
<line class="axis" x1="80.0" y1="510.0" x2="840.0" y2="510.0"/>
<line class="axis" x1="80.0" y1="90.0" x2="80.0" y2="510.0"/>
<text class="tick" x="80.0" y="534.0" text-anchor="middle">1</text>
<text class="tick" x="333.3" y="534.0" text-anchor="middle">4</text>
<text class="tick" x="586.7" y="534.0" text-anchor="middle">8</text>
<text class="tick" x="840.0" y="534.0" text-anchor="middle">12</text>
<circle cx="80.0" cy="134.9" r="4.5" fill="#b45309"/>
<circle cx="333.3" cy="145.7" r="4.5" fill="#b45309"/>
<circle cx="586.7" cy="144.7" r="4.5" fill="#b45309"/>
<circle cx="840.0" cy="145.4" r="4.5" fill="#b45309"/>
<polyline fill="none" stroke="#b45309" stroke-width="3" points="80.0,134.9 333.3,145.7 586.7,144.7 840.0,145.4"/>
<circle cx="80.0" cy="128.2" r="4.5" fill="#2563eb"/>
<circle cx="333.3" cy="213.6" r="4.5" fill="#2563eb"/>
<circle cx="586.7" cy="211.6" r="4.5" fill="#2563eb"/>
<circle cx="840.0" cy="220.2" r="4.5" fill="#2563eb"/>
<polyline fill="none" stroke="#2563eb" stroke-width="3" points="80.0,128.2 333.3,213.6 586.7,211.6 840.0,220.2"/>
<text class="label" x="460.0" y="580.0" text-anchor="middle">Threads</text>
<text class="label" x="26" y="300.0" transform="rotate(-90 26 300.0)" text-anchor="middle">Runtime [s]</text>
<line x1="700" y1="48" x2="728" y2="48" stroke="#b45309" stroke-width="3"/>
<circle cx="714" cy="48" r="4.5" fill="#b45309"/>
<text class="legend" x="738" y="52">original</text>
<line x1="700" y1="70" x2="728" y2="70" stroke="#2563eb" stroke-width="3"/>
<circle cx="714" cy="70" r="4.5" fill="#2563eb"/>
<text class="legend" x="738" y="74">parallel</text>
</svg>