<svg xmlns="http://www.w3.org/2000/svg" width="1180" height="760" viewBox="0 0 1180 760" role="img">
<rect width="100%" height="100%" fill="#faf8f3"/>
<style>
text { font-family: "Helvetica", "Arial", sans-serif; fill: #1f2937; }
.title { font-size: 22px; font-weight: 700; }
.subtitle { font-size: 12px; fill: #4b5563; }
.axis { stroke: #374151; stroke-width: 1.2; }
.grid { stroke: #d1d5db; stroke-width: 1; stroke-dasharray: 4 4; }
.label { font-size: 12px; }
.tick { font-size: 11px; fill: #4b5563; }
.legend { font-size: 12px; }
</style>
<text class="title" x="90" y="50">Monte Carlo Pi Runtime by OpenMP Construct</text>
<text class="subtitle" x="90" y="72">Points show individual runs, colored lines show mean runtime, bars show ±1 standard deviation.</text>
<line class="grid" x1="90.0" y1="600.0" x2="1070.0" y2="600.0"/>
<text class="tick" x="82.0" y="604.0" text-anchor="end">0.00</text>
<line class="grid" x1="90.0" y1="500.0" x2="1070.0" y2="500.0"/>
<text class="tick" x="82.0" y="504.0" text-anchor="end">28.80</text>
<line class="grid" x1="90.0" y1="400.0" x2="1070.0" y2="400.0"/>
<text class="tick" x="82.0" y="404.0" text-anchor="end">57.60</text>
<line class="grid" x1="90.0" y1="300.0" x2="1070.0" y2="300.0"/>
<text class="tick" x="82.0" y="304.0" text-anchor="end">86.40</text>
<line class="grid" x1="90.0" y1="200.0" x2="1070.0" y2="200.0"/>
<text class="tick" x="82.0" y="204.0" text-anchor="end">115.19</text>
<line class="grid" x1="90.0" y1="100.0" x2="1070.0" y2="100.0"/>
<text class="tick" x="82.0" y="104.0" text-anchor="end">143.99</text>
<line class="axis" x1="90.0" y1="600.0" x2="1070.0" y2="600.0"/>
<line class="axis" x1="90.0" y1="100.0" x2="90.0" y2="600.0"/>
<text class="tick" x="90.0" y="624.0" text-anchor="middle">1</text>
<text class="tick" x="416.7" y="624.0" text-anchor="middle">4</text>
<text class="tick" x="743.3" y="624.0" text-anchor="middle">8</text>
<text class="tick" x="1070.0" y="624.0" text-anchor="middle">12</text>
<circle cx="80.0" cy="554.6" r="4.0" fill="#b45309" fill-opacity="0.30"/>
<circle cx="85.0" cy="554.8" r="4.0" fill="#b45309" fill-opacity="0.30"/>
<circle cx="90.0" cy="554.6" r="4.0" fill="#b45309" fill-opacity="0.30"/>
<circle cx="95.0" cy="554.7" r="4.0" fill="#b45309" fill-opacity="0.30"/>
<circle cx="100.0" cy="554.6" r="4.0" fill="#b45309" fill-opacity="0.30"/>
<line x1="90.0" y1="554.6" x2="90.0" y2="554.8" stroke="#b45309" stroke-width="2.0"/>
<line x1="83.0" y1="554.6" x2="97.0" y2="554.6" stroke="#b45309" stroke-width="2.0"/>
<line x1="83.0" y1="554.8" x2="97.0" y2="554.8" stroke="#b45309" stroke-width="2.0"/>
<circle cx="90.0" cy="554.7" r="5.0" fill="#b45309"/>
<circle cx="406.7" cy="294.9" r="4.0" fill="#b45309" fill-opacity="0.30"/>
<circle cx="411.7" cy="321.6" r="4.0" fill="#b45309" fill-opacity="0.30"/>
<circle cx="416.7" cy="321.9" r="4.0" fill="#b45309" fill-opacity="0.30"/>
<circle cx="421.7" cy="324.1" r="4.0" fill="#b45309" fill-opacity="0.30"/>
<circle cx="426.7" cy="320.3" r="4.0" fill="#b45309" fill-opacity="0.30"/>
<line x1="416.7" y1="304.4" x2="416.7" y2="328.7" stroke="#b45309" stroke-width="2.0"/>
<line x1="409.7" y1="304.4" x2="423.7" y2="304.4" stroke="#b45309" stroke-width="2.0"/>
<line x1="409.7" y1="328.7" x2="423.7" y2="328.7" stroke="#b45309" stroke-width="2.0"/>
<circle cx="416.7" cy="316.6" r="5.0" fill="#b45309"/>
<circle cx="733.3" cy="195.0" r="4.0" fill="#b45309" fill-opacity="0.30"/>
<circle cx="738.3" cy="191.0" r="4.0" fill="#b45309" fill-opacity="0.30"/>
<circle cx="743.3" cy="194.5" r="4.0" fill="#b45309" fill-opacity="0.30"/>
<circle cx="748.3" cy="192.2" r="4.0" fill="#b45309" fill-opacity="0.30"/>
<circle cx="753.3" cy="196.3" r="4.0" fill="#b45309" fill-opacity="0.30"/>
<line x1="743.3" y1="191.6" x2="743.3" y2="195.9" stroke="#b45309" stroke-width="2.0"/>
<line x1="736.3" y1="191.6" x2="750.3" y2="191.6" stroke="#b45309" stroke-width="2.0"/>
<line x1="736.3" y1="195.9" x2="750.3" y2="195.9" stroke="#b45309" stroke-width="2.0"/>
<circle cx="743.3" cy="193.8" r="5.0" fill="#b45309"/>
<circle cx="1060.0" cy="147.2" r="4.0" fill="#b45309" fill-opacity="0.30"/>
<circle cx="1065.0" cy="147.6" r="4.0" fill="#b45309" fill-opacity="0.30"/>
<circle cx="1070.0" cy="144.6" r="4.0" fill="#b45309" fill-opacity="0.30"/>
<circle cx="1075.0" cy="146.7" r="4.0" fill="#b45309" fill-opacity="0.30"/>
<circle cx="1080.0" cy="146.8" r="4.0" fill="#b45309" fill-opacity="0.30"/>
<line x1="1070.0" y1="145.5" x2="1070.0" y2="147.8" stroke="#b45309" stroke-width="2.0"/>
<line x1="1063.0" y1="145.5" x2="1077.0" y2="145.5" stroke="#b45309" stroke-width="2.0"/>
<line x1="1063.0" y1="147.8" x2="1077.0" y2="147.8" stroke="#b45309" stroke-width="2.0"/>
<circle cx="1070.0" cy="146.6" r="5.0" fill="#b45309"/>
<polyline fill="none" stroke="#b45309" stroke-width="3" points="90.0,554.7 416.7,316.6 743.3,193.8 1070.0,146.6"/>
<circle cx="80.0" cy="554.4" r="4.0" fill="#2563eb" fill-opacity="0.30"/>
<circle cx="85.0" cy="554.3" r="4.0" fill="#2563eb" fill-opacity="0.30"/>
<circle cx="90.0" cy="554.4" r="4.0" fill="#2563eb" fill-opacity="0.30"/>
<circle cx="95.0" cy="554.4" r="4.0" fill="#2563eb" fill-opacity="0.30"/>
<circle cx="100.0" cy="554.4" r="4.0" fill="#2563eb" fill-opacity="0.30"/>
<line x1="90.0" y1="554.3" x2="90.0" y2="554.5" stroke="#2563eb" stroke-width="2.0"/>
<line x1="83.0" y1="554.3" x2="97.0" y2="554.3" stroke="#2563eb" stroke-width="2.0"/>
<line x1="83.0" y1="554.5" x2="97.0" y2="554.5" stroke="#2563eb" stroke-width="2.0"/>
<circle cx="90.0" cy="554.4" r="5.0" fill="#2563eb"/>
<circle cx="406.7" cy="537.5" r="4.0" fill="#2563eb" fill-opacity="0.30"/>
<circle cx="411.7" cy="531.8" r="4.0" fill="#2563eb" fill-opacity="0.30"/>
<circle cx="416.7" cy="532.9" r="4.0" fill="#2563eb" fill-opacity="0.30"/>
<circle cx="421.7" cy="532.8" r="4.0" fill="#2563eb" fill-opacity="0.30"/>
<circle cx="426.7" cy="562.7" r="4.0" fill="#2563eb" fill-opacity="0.30"/>
<line x1="416.7" y1="526.4" x2="416.7" y2="552.7" stroke="#2563eb" stroke-width="2.0"/>
<line x1="409.7" y1="526.4" x2="423.7" y2="526.4" stroke="#2563eb" stroke-width="2.0"/>
<line x1="409.7" y1="552.7" x2="423.7" y2="552.7" stroke="#2563eb" stroke-width="2.0"/>
<circle cx="416.7" cy="539.5" r="5.0" fill="#2563eb"/>
<circle cx="733.3" cy="533.7" r="4.0" fill="#2563eb" fill-opacity="0.30"/>
<circle cx="738.3" cy="534.7" r="4.0" fill="#2563eb" fill-opacity="0.30"/>
<circle cx="743.3" cy="532.7" r="4.0" fill="#2563eb" fill-opacity="0.30"/>
<circle cx="748.3" cy="532.8" r="4.0" fill="#2563eb" fill-opacity="0.30"/>
<circle cx="753.3" cy="536.9" r="4.0" fill="#2563eb" fill-opacity="0.30"/>
<line x1="743.3" y1="532.5" x2="743.3" y2="535.9" stroke="#2563eb" stroke-width="2.0"/>
<line x1="736.3" y1="532.5" x2="750.3" y2="532.5" stroke="#2563eb" stroke-width="2.0"/>
<line x1="736.3" y1="535.9" x2="750.3" y2="535.9" stroke="#2563eb" stroke-width="2.0"/>
<circle cx="743.3" cy="534.2" r="5.0" fill="#2563eb"/>
<circle cx="1060.0" cy="537.7" r="4.0" fill="#2563eb" fill-opacity="0.30"/>
<circle cx="1065.0" cy="448.2" r="4.0" fill="#2563eb" fill-opacity="0.30"/>
<circle cx="1070.0" cy="537.7" r="4.0" fill="#2563eb" fill-opacity="0.30"/>
<circle cx="1075.0" cy="537.4" r="4.0" fill="#2563eb" fill-opacity="0.30"/>
<circle cx="1080.0" cy="534.0" r="4.0" fill="#2563eb" fill-opacity="0.30"/>
<line x1="1070.0" y1="479.4" x2="1070.0" y2="558.6" stroke="#2563eb" stroke-width="2.0"/>
<line x1="1063.0" y1="479.4" x2="1077.0" y2="479.4" stroke="#2563eb" stroke-width="2.0"/>
<line x1="1063.0" y1="558.6" x2="1077.0" y2="558.6" stroke="#2563eb" stroke-width="2.0"/>
<circle cx="1070.0" cy="519.0" r="5.0" fill="#2563eb"/>
<polyline fill="none" stroke="#2563eb" stroke-width="3" points="90.0,554.4 416.7,539.5 743.3,534.2 1070.0,519.0"/>
<circle cx="80.0" cy="564.0" r="4.0" fill="#059669" fill-opacity="0.30"/>
<circle cx="85.0" cy="564.1" r="4.0" fill="#059669" fill-opacity="0.30"/>
<circle cx="90.0" cy="564.1" r="4.0" fill="#059669" fill-opacity="0.30"/>
<circle cx="95.0" cy="564.2" r="4.0" fill="#059669" fill-opacity="0.30"/>
<circle cx="100.0" cy="564.2" r="4.0" fill="#059669" fill-opacity="0.30"/>
<line x1="90.0" y1="564.1" x2="90.0" y2="564.2" stroke="#059669" stroke-width="2.0"/>
<line x1="83.0" y1="564.1" x2="97.0" y2="564.1" stroke="#059669" stroke-width="2.0"/>
<line x1="83.0" y1="564.2" x2="97.0" y2="564.2" stroke="#059669" stroke-width="2.0"/>
<circle cx="90.0" cy="564.1" r="5.0" fill="#059669"/>
<circle cx="406.7" cy="590.9" r="4.0" fill="#059669" fill-opacity="0.30"/>
<circle cx="411.7" cy="590.8" r="4.0" fill="#059669" fill-opacity="0.30"/>
<circle cx="416.7" cy="590.8" r="4.0" fill="#059669" fill-opacity="0.30"/>
<circle cx="421.7" cy="590.7" r="4.0" fill="#059669" fill-opacity="0.30"/>
<circle cx="426.7" cy="590.7" r="4.0" fill="#059669" fill-opacity="0.30"/>
<line x1="416.7" y1="590.7" x2="416.7" y2="590.9" stroke="#059669" stroke-width="2.0"/>
<line x1="409.7" y1="590.7" x2="423.7" y2="590.7" stroke="#059669" stroke-width="2.0"/>
<line x1="409.7" y1="590.9" x2="423.7" y2="590.9" stroke="#059669" stroke-width="2.0"/>
<circle cx="416.7" cy="590.8" r="5.0" fill="#059669"/>
<circle cx="733.3" cy="595.3" r="4.0" fill="#059669" fill-opacity="0.30"/>
<circle cx="738.3" cy="595.3" r="4.0" fill="#059669" fill-opacity="0.30"/>
<circle cx="743.3" cy="595.3" r="4.0" fill="#059669" fill-opacity="0.30"/>
<circle cx="748.3" cy="595.3" r="4.0" fill="#059669" fill-opacity="0.30"/>
<circle cx="753.3" cy="595.3" r="4.0" fill="#059669" fill-opacity="0.30"/>
<line x1="743.3" y1="595.3" x2="743.3" y2="595.3" stroke="#059669" stroke-width="2.0"/>
<line x1="736.3" y1="595.3" x2="750.3" y2="595.3" stroke="#059669" stroke-width="2.0"/>
<line x1="736.3" y1="595.3" x2="750.3" y2="595.3" stroke="#059669" stroke-width="2.0"/>
<circle cx="743.3" cy="595.3" r="5.0" fill="#059669"/>
<circle cx="1060.0" cy="596.9" r="4.0" fill="#059669" fill-opacity="0.30"/>
<circle cx="1065.0" cy="596.9" r="4.0" fill="#059669" fill-opacity="0.30"/>
<circle cx="1070.0" cy="596.8" r="4.0" fill="#059669" fill-opacity="0.30"/>
<circle cx="1075.0" cy="595.3" r="4.0" fill="#059669" fill-opacity="0.30"/>
<circle cx="1080.0" cy="596.5" r="4.0" fill="#059669" fill-opacity="0.30"/>
<line x1="1070.0" y1="595.8" x2="1070.0" y2="597.2" stroke="#059669" stroke-width="2.0"/>
<line x1="1063.0" y1="595.8" x2="1077.0" y2="595.8" stroke="#059669" stroke-width="2.0"/>
<line x1="1063.0" y1="597.2" x2="1077.0" y2="597.2" stroke="#059669" stroke-width="2.0"/>
<circle cx="1070.0" cy="596.5" r="5.0" fill="#059669"/>
<polyline fill="none" stroke="#059669" stroke-width="3" points="90.0,564.1 416.7,590.8 743.3,595.3 1070.0,596.5"/>
<text class="label" x="580.0" y="714.0" text-anchor="middle">Threads</text>
<text class="label" x="28" y="350.0" transform="rotate(-90 28 350.0)" text-anchor="middle">Runtime [s]</text>
<line x1="770" y1="54" x2="798" y2="54" stroke="#b45309" stroke-width="3"/>
<circle cx="784" cy="54" r="5" fill="#b45309"/>
<text class="legend" x="808" y="58">critical</text>
<line x1="770" y1="78" x2="798" y2="78" stroke="#2563eb" stroke-width="3"/>
<circle cx="784" cy="78" r="5" fill="#2563eb"/>
<text class="legend" x="808" y="82">atomic</text>
<line x1="770" y1="102" x2="798" y2="102" stroke="#059669" stroke-width="3"/>
<circle cx="784" cy="102" r="5" fill="#059669"/>
<text class="legend" x="808" y="106">reduction</text>
</svg>