<svg xmlns="http://www.w3.org/2000/svg" width="1100" height="880" viewBox="0 0 1100 880">
<rect width="100%" height="100%" fill="white"/>
<text x="550.00" y="30.00" font-size="22" text-anchor="middle" font-family="Helvetica, Arial, sans-serif" font-weight="bold">Vergleich der Compiler-Flags</text>
<text x="550.00" y="52.00" font-size="13" text-anchor="middle" font-family="Helvetica, Arial, sans-serif" font-weight="normal">Mittelwerte ueber alle Runs, eine Linie pro Thread-Zahl</text>
<text x="550.00" y="68.00" font-size="17" text-anchor="middle" font-family="Helvetica, Arial, sans-serif" font-weight="bold">slow</text>
<line x1="100.00" y1="80.00" x2="100.00" y2="245.00" stroke="#333" stroke-width="1.5"/>
<line x1="100.00" y1="245.00" x2="1060.00" y2="245.00" stroke="#333" stroke-width="1.5"/>
<line x1="100.00" y1="245.00" x2="1060.00" y2="245.00" stroke="#d9d9d9" stroke-width="1" stroke-dasharray="4 4"/>
<text x="90.00" y="249.00" font-size="11" text-anchor="end" font-family="Helvetica, Arial, sans-serif" font-weight="normal">0.000</text>
<line x1="100.00" y1="212.00" x2="1060.00" y2="212.00" stroke="#d9d9d9" stroke-width="1" stroke-dasharray="4 4"/>
<text x="90.00" y="216.00" font-size="11" text-anchor="end" font-family="Helvetica, Arial, sans-serif" font-weight="normal">0.881</text>
<line x1="100.00" y1="179.00" x2="1060.00" y2="179.00" stroke="#d9d9d9" stroke-width="1" stroke-dasharray="4 4"/>
<text x="90.00" y="183.00" font-size="11" text-anchor="end" font-family="Helvetica, Arial, sans-serif" font-weight="normal">1.763</text>
<line x1="100.00" y1="146.00" x2="1060.00" y2="146.00" stroke="#d9d9d9" stroke-width="1" stroke-dasharray="4 4"/>
<text x="90.00" y="150.00" font-size="11" text-anchor="end" font-family="Helvetica, Arial, sans-serif" font-weight="normal">2.644</text>
<line x1="100.00" y1="113.00" x2="1060.00" y2="113.00" stroke="#d9d9d9" stroke-width="1" stroke-dasharray="4 4"/>
<text x="90.00" y="117.00" font-size="11" text-anchor="end" font-family="Helvetica, Arial, sans-serif" font-weight="normal">3.525</text>
<line x1="100.00" y1="80.00" x2="1060.00" y2="80.00" stroke="#d9d9d9" stroke-width="1" stroke-dasharray="4 4"/>
<text x="90.00" y="84.00" font-size="11" text-anchor="end" font-family="Helvetica, Arial, sans-serif" font-weight="normal">4.407</text>
<line x1="100.00" y1="245.00" x2="100.00" y2="251.00" stroke="#333" stroke-width="1.5"/>
<text x="100.00" y="267.00" font-size="11" text-anchor="middle" font-family="Helvetica, Arial, sans-serif" font-weight="normal">fopenmp</text>
<line x1="237.14" y1="245.00" x2="237.14" y2="251.00" stroke="#333" stroke-width="1.5"/>
<text x="237.14" y="267.00" font-size="11" text-anchor="middle" font-family="Helvetica, Arial, sans-serif" font-weight="normal">fopenmp</text>
<text x="237.14" y="280.00" font-size="11" text-anchor="middle" font-family="Helvetica, Arial, sans-serif" font-weight="normal">O1</text>
<line x1="374.29" y1="245.00" x2="374.29" y2="251.00" stroke="#333" stroke-width="1.5"/>
<text x="374.29" y="267.00" font-size="11" text-anchor="middle" font-family="Helvetica, Arial, sans-serif" font-weight="normal">fopenmp</text>
<text x="374.29" y="280.00" font-size="11" text-anchor="middle" font-family="Helvetica, Arial, sans-serif" font-weight="normal">O2</text>
<line x1="511.43" y1="245.00" x2="511.43" y2="251.00" stroke="#333" stroke-width="1.5"/>
<text x="511.43" y="267.00" font-size="11" text-anchor="middle" font-family="Helvetica, Arial, sans-serif" font-weight="normal">fopenmp</text>
<text x="511.43" y="280.00" font-size="11" text-anchor="middle" font-family="Helvetica, Arial, sans-serif" font-weight="normal">O3</text>
<line x1="648.57" y1="245.00" x2="648.57" y2="251.00" stroke="#333" stroke-width="1.5"/>
<text x="648.57" y="267.00" font-size="11" text-anchor="middle" font-family="Helvetica, Arial, sans-serif" font-weight="normal">fopenmp</text>
<text x="648.57" y="280.00" font-size="11" text-anchor="middle" font-family="Helvetica, Arial, sans-serif" font-weight="normal">Ofast</text>
<line x1="785.71" y1="245.00" x2="785.71" y2="251.00" stroke="#333" stroke-width="1.5"/>
<text x="785.71" y="267.00" font-size="11" text-anchor="middle" font-family="Helvetica, Arial, sans-serif" font-weight="normal">fopenmp</text>
<text x="785.71" y="280.00" font-size="11" text-anchor="middle" font-family="Helvetica, Arial, sans-serif" font-weight="normal">O2</text>
<text x="785.71" y="293.00" font-size="11" text-anchor="middle" font-family="Helvetica, Arial, sans-serif" font-weight="normal">march</text>
<text x="785.71" y="306.00" font-size="11" text-anchor="middle" font-family="Helvetica, Arial, sans-serif" font-weight="normal">native</text>
<line x1="922.86" y1="245.00" x2="922.86" y2="251.00" stroke="#333" stroke-width="1.5"/>
<text x="922.86" y="267.00" font-size="11" text-anchor="middle" font-family="Helvetica, Arial, sans-serif" font-weight="normal">fopenmp</text>
<text x="922.86" y="280.00" font-size="11" text-anchor="middle" font-family="Helvetica, Arial, sans-serif" font-weight="normal">O3</text>
<text x="922.86" y="293.00" font-size="11" text-anchor="middle" font-family="Helvetica, Arial, sans-serif" font-weight="normal">march</text>
<text x="922.86" y="306.00" font-size="11" text-anchor="middle" font-family="Helvetica, Arial, sans-serif" font-weight="normal">native</text>
<line x1="1060.00" y1="245.00" x2="1060.00" y2="251.00" stroke="#333" stroke-width="1.5"/>
<text x="1060.00" y="267.00" font-size="11" text-anchor="middle" font-family="Helvetica, Arial, sans-serif" font-weight="normal">fopenmp</text>
<text x="1060.00" y="280.00" font-size="11" text-anchor="middle" font-family="Helvetica, Arial, sans-serif" font-weight="normal">Ofast</text>
<text x="1060.00" y="293.00" font-size="11" text-anchor="middle" font-family="Helvetica, Arial, sans-serif" font-weight="normal">march</text>
<text x="1060.00" y="306.00" font-size="11" text-anchor="middle" font-family="Helvetica, Arial, sans-serif" font-weight="normal">native</text>
<polyline fill="none" stroke="#1f77b4" stroke-width="2.5" points="100.00,190.56 237.14,191.09 374.29,190.28 511.43,192.66 648.57,192.71 785.71,192.73 922.86,193.35 1060.00,193.51"/>
<circle cx="100.00" cy="190.56" r="4" fill="#1f77b4"/>
<circle cx="237.14" cy="191.09" r="4" fill="#1f77b4"/>
<circle cx="374.29" cy="190.28" r="4" fill="#1f77b4"/>
<circle cx="511.43" cy="192.66" r="4" fill="#1f77b4"/>
<circle cx="648.57" cy="192.71" r="4" fill="#1f77b4"/>
<circle cx="785.71" cy="192.73" r="4" fill="#1f77b4"/>
<circle cx="922.86" cy="193.35" r="4" fill="#1f77b4"/>
<circle cx="1060.00" cy="193.51" r="4" fill="#1f77b4"/>
<polyline fill="none" stroke="#d62728" stroke-width="2.5" points="100.00,130.23 237.14,126.22 374.29,127.87 511.43,125.55 648.57,125.04 785.71,124.22 922.86,122.60 1060.00,122.71"/>
<circle cx="100.00" cy="130.23" r="4" fill="#d62728"/>
<circle cx="237.14" cy="126.22" r="4" fill="#d62728"/>
<circle cx="374.29" cy="127.87" r="4" fill="#d62728"/>
<circle cx="511.43" cy="125.55" r="4" fill="#d62728"/>
<circle cx="648.57" cy="125.04" r="4" fill="#d62728"/>
<circle cx="785.71" cy="124.22" r="4" fill="#d62728"/>
<circle cx="922.86" cy="122.60" r="4" fill="#d62728"/>
<circle cx="1060.00" cy="122.71" r="4" fill="#d62728"/>
<polyline fill="none" stroke="#2ca02c" stroke-width="2.5" points="100.00,116.20 237.14,117.28 374.29,118.01 511.43,117.69 648.57,120.39 785.71,122.35 922.86,121.95 1060.00,121.97"/>
<circle cx="100.00" cy="116.20" r="4" fill="#2ca02c"/>
<circle cx="237.14" cy="117.28" r="4" fill="#2ca02c"/>
<circle cx="374.29" cy="118.01" r="4" fill="#2ca02c"/>
<circle cx="511.43" cy="117.69" r="4" fill="#2ca02c"/>
<circle cx="648.57" cy="120.39" r="4" fill="#2ca02c"/>
<circle cx="785.71" cy="122.35" r="4" fill="#2ca02c"/>
<circle cx="922.86" cy="121.95" r="4" fill="#2ca02c"/>
<circle cx="1060.00" cy="121.97" r="4" fill="#2ca02c"/>
<polyline fill="none" stroke="#ff7f0e" stroke-width="2.5" points="100.00,95.00 237.14,95.62 374.29,95.62 511.43,96.27 648.57,96.82 785.71,97.63 922.86,97.49 1060.00,97.31"/>
<circle cx="100.00" cy="95.00" r="4" fill="#ff7f0e"/>
<circle cx="237.14" cy="95.62" r="4" fill="#ff7f0e"/>
<circle cx="374.29" cy="95.62" r="4" fill="#ff7f0e"/>
<circle cx="511.43" cy="96.27" r="4" fill="#ff7f0e"/>
<circle cx="648.57" cy="96.82" r="4" fill="#ff7f0e"/>
<circle cx="785.71" cy="97.63" r="4" fill="#ff7f0e"/>
<circle cx="922.86" cy="97.49" r="4" fill="#ff7f0e"/>
<circle cx="1060.00" cy="97.31" r="4" fill="#ff7f0e"/>
<line x1="940.00" y1="92.00" x2="958.00" y2="92.00" stroke="#1f77b4" stroke-width="2.5"/>
<circle cx="949.00" cy="92.00" r="3.5" fill="#1f77b4"/>
<text x="968.00" y="96.00" font-size="12" text-anchor="start" font-family="Helvetica, Arial, sans-serif" font-weight="normal">1 Threads</text>
<line x1="940.00" y1="110.00" x2="958.00" y2="110.00" stroke="#d62728" stroke-width="2.5"/>
<circle cx="949.00" cy="110.00" r="3.5" fill="#d62728"/>
<text x="968.00" y="114.00" font-size="12" text-anchor="start" font-family="Helvetica, Arial, sans-serif" font-weight="normal">2 Threads</text>
<line x1="940.00" y1="128.00" x2="958.00" y2="128.00" stroke="#2ca02c" stroke-width="2.5"/>
<circle cx="949.00" cy="128.00" r="3.5" fill="#2ca02c"/>
<text x="968.00" y="132.00" font-size="12" text-anchor="start" font-family="Helvetica, Arial, sans-serif" font-weight="normal">4 Threads</text>
<line x1="940.00" y1="146.00" x2="958.00" y2="146.00" stroke="#ff7f0e" stroke-width="2.5"/>
<circle cx="949.00" cy="146.00" r="3.5" fill="#ff7f0e"/>
<text x="968.00" y="150.00" font-size="12" text-anchor="start" font-family="Helvetica, Arial, sans-serif" font-weight="normal">8 Threads</text>
<text x="30.00" y="162.50" font-size="14" text-anchor="middle" font-family="Helvetica, Arial, sans-serif" font-weight="normal">Zeit [s]</text>
<text x="550.00" y="338.00" font-size="17" text-anchor="middle" font-family="Helvetica, Arial, sans-serif" font-weight="bold">medium</text>
<line x1="100.00" y1="350.00" x2="100.00" y2="515.00" stroke="#333" stroke-width="1.5"/>
<line x1="100.00" y1="515.00" x2="1060.00" y2="515.00" stroke="#333" stroke-width="1.5"/>
<line x1="100.00" y1="515.00" x2="1060.00" y2="515.00" stroke="#d9d9d9" stroke-width="1" stroke-dasharray="4 4"/>
<text x="90.00" y="519.00" font-size="11" text-anchor="end" font-family="Helvetica, Arial, sans-serif" font-weight="normal">0.000</text>
<line x1="100.00" y1="482.00" x2="1060.00" y2="482.00" stroke="#d9d9d9" stroke-width="1" stroke-dasharray="4 4"/>
<text x="90.00" y="486.00" font-size="11" text-anchor="end" font-family="Helvetica, Arial, sans-serif" font-weight="normal">0.456</text>
<line x1="100.00" y1="449.00" x2="1060.00" y2="449.00" stroke="#d9d9d9" stroke-width="1" stroke-dasharray="4 4"/>
<text x="90.00" y="453.00" font-size="11" text-anchor="end" font-family="Helvetica, Arial, sans-serif" font-weight="normal">0.913</text>
<line x1="100.00" y1="416.00" x2="1060.00" y2="416.00" stroke="#d9d9d9" stroke-width="1" stroke-dasharray="4 4"/>
<text x="90.00" y="420.00" font-size="11" text-anchor="end" font-family="Helvetica, Arial, sans-serif" font-weight="normal">1.369</text>
<line x1="100.00" y1="383.00" x2="1060.00" y2="383.00" stroke="#d9d9d9" stroke-width="1" stroke-dasharray="4 4"/>
<text x="90.00" y="387.00" font-size="11" text-anchor="end" font-family="Helvetica, Arial, sans-serif" font-weight="normal">1.825</text>
<line x1="100.00" y1="350.00" x2="1060.00" y2="350.00" stroke="#d9d9d9" stroke-width="1" stroke-dasharray="4 4"/>
<text x="90.00" y="354.00" font-size="11" text-anchor="end" font-family="Helvetica, Arial, sans-serif" font-weight="normal">2.282</text>
<line x1="100.00" y1="515.00" x2="100.00" y2="521.00" stroke="#333" stroke-width="1.5"/>
<text x="100.00" y="537.00" font-size="11" text-anchor="middle" font-family="Helvetica, Arial, sans-serif" font-weight="normal">fopenmp</text>
<line x1="237.14" y1="515.00" x2="237.14" y2="521.00" stroke="#333" stroke-width="1.5"/>
<text x="237.14" y="537.00" font-size="11" text-anchor="middle" font-family="Helvetica, Arial, sans-serif" font-weight="normal">fopenmp</text>
<text x="237.14" y="550.00" font-size="11" text-anchor="middle" font-family="Helvetica, Arial, sans-serif" font-weight="normal">O1</text>
<line x1="374.29" y1="515.00" x2="374.29" y2="521.00" stroke="#333" stroke-width="1.5"/>
<text x="374.29" y="537.00" font-size="11" text-anchor="middle" font-family="Helvetica, Arial, sans-serif" font-weight="normal">fopenmp</text>
<text x="374.29" y="550.00" font-size="11" text-anchor="middle" font-family="Helvetica, Arial, sans-serif" font-weight="normal">O2</text>
<line x1="511.43" y1="515.00" x2="511.43" y2="521.00" stroke="#333" stroke-width="1.5"/>
<text x="511.43" y="537.00" font-size="11" text-anchor="middle" font-family="Helvetica, Arial, sans-serif" font-weight="normal">fopenmp</text>
<text x="511.43" y="550.00" font-size="11" text-anchor="middle" font-family="Helvetica, Arial, sans-serif" font-weight="normal">O3</text>
<line x1="648.57" y1="515.00" x2="648.57" y2="521.00" stroke="#333" stroke-width="1.5"/>
<text x="648.57" y="537.00" font-size="11" text-anchor="middle" font-family="Helvetica, Arial, sans-serif" font-weight="normal">fopenmp</text>
<text x="648.57" y="550.00" font-size="11" text-anchor="middle" font-family="Helvetica, Arial, sans-serif" font-weight="normal">Ofast</text>
<line x1="785.71" y1="515.00" x2="785.71" y2="521.00" stroke="#333" stroke-width="1.5"/>
<text x="785.71" y="537.00" font-size="11" text-anchor="middle" font-family="Helvetica, Arial, sans-serif" font-weight="normal">fopenmp</text>
<text x="785.71" y="550.00" font-size="11" text-anchor="middle" font-family="Helvetica, Arial, sans-serif" font-weight="normal">O2</text>
<text x="785.71" y="563.00" font-size="11" text-anchor="middle" font-family="Helvetica, Arial, sans-serif" font-weight="normal">march</text>
<text x="785.71" y="576.00" font-size="11" text-anchor="middle" font-family="Helvetica, Arial, sans-serif" font-weight="normal">native</text>
<line x1="922.86" y1="515.00" x2="922.86" y2="521.00" stroke="#333" stroke-width="1.5"/>
<text x="922.86" y="537.00" font-size="11" text-anchor="middle" font-family="Helvetica, Arial, sans-serif" font-weight="normal">fopenmp</text>
<text x="922.86" y="550.00" font-size="11" text-anchor="middle" font-family="Helvetica, Arial, sans-serif" font-weight="normal">O3</text>
<text x="922.86" y="563.00" font-size="11" text-anchor="middle" font-family="Helvetica, Arial, sans-serif" font-weight="normal">march</text>
<text x="922.86" y="576.00" font-size="11" text-anchor="middle" font-family="Helvetica, Arial, sans-serif" font-weight="normal">native</text>
<line x1="1060.00" y1="515.00" x2="1060.00" y2="521.00" stroke="#333" stroke-width="1.5"/>
<text x="1060.00" y="537.00" font-size="11" text-anchor="middle" font-family="Helvetica, Arial, sans-serif" font-weight="normal">fopenmp</text>
<text x="1060.00" y="550.00" font-size="11" text-anchor="middle" font-family="Helvetica, Arial, sans-serif" font-weight="normal">Ofast</text>
<text x="1060.00" y="563.00" font-size="11" text-anchor="middle" font-family="Helvetica, Arial, sans-serif" font-weight="normal">march</text>
<text x="1060.00" y="576.00" font-size="11" text-anchor="middle" font-family="Helvetica, Arial, sans-serif" font-weight="normal">native</text>
<polyline fill="none" stroke="#1f77b4" stroke-width="2.5" points="100.00,488.59 237.14,488.47 374.29,488.01 511.43,488.90 648.57,488.64 785.71,489.42 922.86,488.64 1060.00,489.52"/>
<circle cx="100.00" cy="488.59" r="4" fill="#1f77b4"/>
<circle cx="237.14" cy="488.47" r="4" fill="#1f77b4"/>
<circle cx="374.29" cy="488.01" r="4" fill="#1f77b4"/>
<circle cx="511.43" cy="488.90" r="4" fill="#1f77b4"/>
<circle cx="648.57" cy="488.64" r="4" fill="#1f77b4"/>
<circle cx="785.71" cy="489.42" r="4" fill="#1f77b4"/>
<circle cx="922.86" cy="488.64" r="4" fill="#1f77b4"/>
<circle cx="1060.00" cy="489.52" r="4" fill="#1f77b4"/>
<polyline fill="none" stroke="#d62728" stroke-width="2.5" points="100.00,405.20 237.14,405.71 374.29,403.46 511.43,391.38 648.57,388.26 785.71,387.42 922.86,391.80 1060.00,387.94"/>
<circle cx="100.00" cy="405.20" r="4" fill="#d62728"/>
<circle cx="237.14" cy="405.71" r="4" fill="#d62728"/>
<circle cx="374.29" cy="403.46" r="4" fill="#d62728"/>
<circle cx="511.43" cy="391.38" r="4" fill="#d62728"/>
<circle cx="648.57" cy="388.26" r="4" fill="#d62728"/>
<circle cx="785.71" cy="387.42" r="4" fill="#d62728"/>
<circle cx="922.86" cy="391.80" r="4" fill="#d62728"/>
<circle cx="1060.00" cy="387.94" r="4" fill="#d62728"/>
<polyline fill="none" stroke="#2ca02c" stroke-width="2.5" points="100.00,374.86 237.14,376.58 374.29,372.76 511.43,367.18 648.57,367.69 785.71,365.38 922.86,365.82 1060.00,365.00"/>
<circle cx="100.00" cy="374.86" r="4" fill="#2ca02c"/>
<circle cx="237.14" cy="376.58" r="4" fill="#2ca02c"/>
<circle cx="374.29" cy="372.76" r="4" fill="#2ca02c"/>
<circle cx="511.43" cy="367.18" r="4" fill="#2ca02c"/>
<circle cx="648.57" cy="367.69" r="4" fill="#2ca02c"/>
<circle cx="785.71" cy="365.38" r="4" fill="#2ca02c"/>
<circle cx="922.86" cy="365.82" r="4" fill="#2ca02c"/>
<circle cx="1060.00" cy="365.00" r="4" fill="#2ca02c"/>
<polyline fill="none" stroke="#ff7f0e" stroke-width="2.5" points="100.00,383.26 237.14,376.98 374.29,378.71 511.43,372.26 648.57,370.76 785.71,373.11 922.86,368.23 1060.00,375.09"/>
<circle cx="100.00" cy="383.26" r="4" fill="#ff7f0e"/>
<circle cx="237.14" cy="376.98" r="4" fill="#ff7f0e"/>
<circle cx="374.29" cy="378.71" r="4" fill="#ff7f0e"/>
<circle cx="511.43" cy="372.26" r="4" fill="#ff7f0e"/>
<circle cx="648.57" cy="370.76" r="4" fill="#ff7f0e"/>
<circle cx="785.71" cy="373.11" r="4" fill="#ff7f0e"/>
<circle cx="922.86" cy="368.23" r="4" fill="#ff7f0e"/>
<circle cx="1060.00" cy="375.09" r="4" fill="#ff7f0e"/>
<line x1="940.00" y1="362.00" x2="958.00" y2="362.00" stroke="#1f77b4" stroke-width="2.5"/>
<circle cx="949.00" cy="362.00" r="3.5" fill="#1f77b4"/>
<text x="968.00" y="366.00" font-size="12" text-anchor="start" font-family="Helvetica, Arial, sans-serif" font-weight="normal">1 Threads</text>
<line x1="940.00" y1="380.00" x2="958.00" y2="380.00" stroke="#d62728" stroke-width="2.5"/>
<circle cx="949.00" cy="380.00" r="3.5" fill="#d62728"/>
<text x="968.00" y="384.00" font-size="12" text-anchor="start" font-family="Helvetica, Arial, sans-serif" font-weight="normal">2 Threads</text>
<line x1="940.00" y1="398.00" x2="958.00" y2="398.00" stroke="#2ca02c" stroke-width="2.5"/>
<circle cx="949.00" cy="398.00" r="3.5" fill="#2ca02c"/>
<text x="968.00" y="402.00" font-size="12" text-anchor="start" font-family="Helvetica, Arial, sans-serif" font-weight="normal">4 Threads</text>
<line x1="940.00" y1="416.00" x2="958.00" y2="416.00" stroke="#ff7f0e" stroke-width="2.5"/>
<circle cx="949.00" cy="416.00" r="3.5" fill="#ff7f0e"/>
<text x="968.00" y="420.00" font-size="12" text-anchor="start" font-family="Helvetica, Arial, sans-serif" font-weight="normal">8 Threads</text>
<text x="30.00" y="432.50" font-size="14" text-anchor="middle" font-family="Helvetica, Arial, sans-serif" font-weight="normal">Zeit [s]</text>
<text x="550.00" y="608.00" font-size="17" text-anchor="middle" font-family="Helvetica, Arial, sans-serif" font-weight="bold">fast</text>
<line x1="100.00" y1="620.00" x2="100.00" y2="785.00" stroke="#333" stroke-width="1.5"/>
<line x1="100.00" y1="785.00" x2="1060.00" y2="785.00" stroke="#333" stroke-width="1.5"/>
<line x1="100.00" y1="785.00" x2="1060.00" y2="785.00" stroke="#d9d9d9" stroke-width="1" stroke-dasharray="4 4"/>
<text x="90.00" y="789.00" font-size="11" text-anchor="end" font-family="Helvetica, Arial, sans-serif" font-weight="normal">0.000</text>
<line x1="100.00" y1="752.00" x2="1060.00" y2="752.00" stroke="#d9d9d9" stroke-width="1" stroke-dasharray="4 4"/>
<text x="90.00" y="756.00" font-size="11" text-anchor="end" font-family="Helvetica, Arial, sans-serif" font-weight="normal">0.034</text>
<line x1="100.00" y1="719.00" x2="1060.00" y2="719.00" stroke="#d9d9d9" stroke-width="1" stroke-dasharray="4 4"/>
<text x="90.00" y="723.00" font-size="11" text-anchor="end" font-family="Helvetica, Arial, sans-serif" font-weight="normal">0.068</text>
<line x1="100.00" y1="686.00" x2="1060.00" y2="686.00" stroke="#d9d9d9" stroke-width="1" stroke-dasharray="4 4"/>
<text x="90.00" y="690.00" font-size="11" text-anchor="end" font-family="Helvetica, Arial, sans-serif" font-weight="normal">0.101</text>
<line x1="100.00" y1="653.00" x2="1060.00" y2="653.00" stroke="#d9d9d9" stroke-width="1" stroke-dasharray="4 4"/>
<text x="90.00" y="657.00" font-size="11" text-anchor="end" font-family="Helvetica, Arial, sans-serif" font-weight="normal">0.135</text>
<line x1="100.00" y1="620.00" x2="1060.00" y2="620.00" stroke="#d9d9d9" stroke-width="1" stroke-dasharray="4 4"/>
<text x="90.00" y="624.00" font-size="11" text-anchor="end" font-family="Helvetica, Arial, sans-serif" font-weight="normal">0.169</text>
<line x1="100.00" y1="785.00" x2="100.00" y2="791.00" stroke="#333" stroke-width="1.5"/>
<text x="100.00" y="807.00" font-size="11" text-anchor="middle" font-family="Helvetica, Arial, sans-serif" font-weight="normal">fopenmp</text>
<line x1="237.14" y1="785.00" x2="237.14" y2="791.00" stroke="#333" stroke-width="1.5"/>
<text x="237.14" y="807.00" font-size="11" text-anchor="middle" font-family="Helvetica, Arial, sans-serif" font-weight="normal">fopenmp</text>
<text x="237.14" y="820.00" font-size="11" text-anchor="middle" font-family="Helvetica, Arial, sans-serif" font-weight="normal">O1</text>
<line x1="374.29" y1="785.00" x2="374.29" y2="791.00" stroke="#333" stroke-width="1.5"/>
<text x="374.29" y="807.00" font-size="11" text-anchor="middle" font-family="Helvetica, Arial, sans-serif" font-weight="normal">fopenmp</text>
<text x="374.29" y="820.00" font-size="11" text-anchor="middle" font-family="Helvetica, Arial, sans-serif" font-weight="normal">O2</text>
<line x1="511.43" y1="785.00" x2="511.43" y2="791.00" stroke="#333" stroke-width="1.5"/>
<text x="511.43" y="807.00" font-size="11" text-anchor="middle" font-family="Helvetica, Arial, sans-serif" font-weight="normal">fopenmp</text>
<text x="511.43" y="820.00" font-size="11" text-anchor="middle" font-family="Helvetica, Arial, sans-serif" font-weight="normal">O3</text>
<line x1="648.57" y1="785.00" x2="648.57" y2="791.00" stroke="#333" stroke-width="1.5"/>
<text x="648.57" y="807.00" font-size="11" text-anchor="middle" font-family="Helvetica, Arial, sans-serif" font-weight="normal">fopenmp</text>
<text x="648.57" y="820.00" font-size="11" text-anchor="middle" font-family="Helvetica, Arial, sans-serif" font-weight="normal">Ofast</text>
<line x1="785.71" y1="785.00" x2="785.71" y2="791.00" stroke="#333" stroke-width="1.5"/>
<text x="785.71" y="807.00" font-size="11" text-anchor="middle" font-family="Helvetica, Arial, sans-serif" font-weight="normal">fopenmp</text>
<text x="785.71" y="820.00" font-size="11" text-anchor="middle" font-family="Helvetica, Arial, sans-serif" font-weight="normal">O2</text>
<text x="785.71" y="833.00" font-size="11" text-anchor="middle" font-family="Helvetica, Arial, sans-serif" font-weight="normal">march</text>
<text x="785.71" y="846.00" font-size="11" text-anchor="middle" font-family="Helvetica, Arial, sans-serif" font-weight="normal">native</text>
<line x1="922.86" y1="785.00" x2="922.86" y2="791.00" stroke="#333" stroke-width="1.5"/>
<text x="922.86" y="807.00" font-size="11" text-anchor="middle" font-family="Helvetica, Arial, sans-serif" font-weight="normal">fopenmp</text>
<text x="922.86" y="820.00" font-size="11" text-anchor="middle" font-family="Helvetica, Arial, sans-serif" font-weight="normal">O3</text>
<text x="922.86" y="833.00" font-size="11" text-anchor="middle" font-family="Helvetica, Arial, sans-serif" font-weight="normal">march</text>
<text x="922.86" y="846.00" font-size="11" text-anchor="middle" font-family="Helvetica, Arial, sans-serif" font-weight="normal">native</text>
<line x1="1060.00" y1="785.00" x2="1060.00" y2="791.00" stroke="#333" stroke-width="1.5"/>
<text x="1060.00" y="807.00" font-size="11" text-anchor="middle" font-family="Helvetica, Arial, sans-serif" font-weight="normal">fopenmp</text>
<text x="1060.00" y="820.00" font-size="11" text-anchor="middle" font-family="Helvetica, Arial, sans-serif" font-weight="normal">Ofast</text>
<text x="1060.00" y="833.00" font-size="11" text-anchor="middle" font-family="Helvetica, Arial, sans-serif" font-weight="normal">march</text>
<text x="1060.00" y="846.00" font-size="11" text-anchor="middle" font-family="Helvetica, Arial, sans-serif" font-weight="normal">native</text>
<polyline fill="none" stroke="#1f77b4" stroke-width="2.5" points="100.00,635.00 237.14,761.91 374.29,784.97 511.43,784.99 648.57,784.99 785.71,784.98 922.86,785.00 1060.00,784.99"/>
<circle cx="100.00" cy="635.00" r="4" fill="#1f77b4"/>
<circle cx="237.14" cy="761.91" r="4" fill="#1f77b4"/>
<circle cx="374.29" cy="784.97" r="4" fill="#1f77b4"/>
<circle cx="511.43" cy="784.99" r="4" fill="#1f77b4"/>
<circle cx="648.57" cy="784.99" r="4" fill="#1f77b4"/>
<circle cx="785.71" cy="784.98" r="4" fill="#1f77b4"/>
<circle cx="922.86" cy="785.00" r="4" fill="#1f77b4"/>
<circle cx="1060.00" cy="784.99" r="4" fill="#1f77b4"/>
<polyline fill="none" stroke="#d62728" stroke-width="2.5" points="100.00,712.70 237.14,766.91 374.29,784.77 511.43,784.88 648.57,784.88 785.71,784.89 922.86,784.87 1060.00,784.79"/>
<circle cx="100.00" cy="712.70" r="4" fill="#d62728"/>
<circle cx="237.14" cy="766.91" r="4" fill="#d62728"/>
<circle cx="374.29" cy="784.77" r="4" fill="#d62728"/>
<circle cx="511.43" cy="784.88" r="4" fill="#d62728"/>
<circle cx="648.57" cy="784.88" r="4" fill="#d62728"/>
<circle cx="785.71" cy="784.89" r="4" fill="#d62728"/>
<circle cx="922.86" cy="784.87" r="4" fill="#d62728"/>
<circle cx="1060.00" cy="784.79" r="4" fill="#d62728"/>
<polyline fill="none" stroke="#2ca02c" stroke-width="2.5" points="100.00,743.41 237.14,776.27 374.29,784.77 511.43,784.77 648.57,784.78 785.71,784.65 922.86,784.73 1060.00,784.78"/>
<circle cx="100.00" cy="743.41" r="4" fill="#2ca02c"/>
<circle cx="237.14" cy="776.27" r="4" fill="#2ca02c"/>
<circle cx="374.29" cy="784.77" r="4" fill="#2ca02c"/>
<circle cx="511.43" cy="784.77" r="4" fill="#2ca02c"/>
<circle cx="648.57" cy="784.78" r="4" fill="#2ca02c"/>
<circle cx="785.71" cy="784.65" r="4" fill="#2ca02c"/>
<circle cx="922.86" cy="784.73" r="4" fill="#2ca02c"/>
<circle cx="1060.00" cy="784.78" r="4" fill="#2ca02c"/>
<polyline fill="none" stroke="#ff7f0e" stroke-width="2.5" points="100.00,752.52 237.14,777.89 374.29,784.59 511.43,784.67 648.57,784.54 785.71,784.47 922.86,784.71 1060.00,784.73"/>
<circle cx="100.00" cy="752.52" r="4" fill="#ff7f0e"/>
<circle cx="237.14" cy="777.89" r="4" fill="#ff7f0e"/>
<circle cx="374.29" cy="784.59" r="4" fill="#ff7f0e"/>
<circle cx="511.43" cy="784.67" r="4" fill="#ff7f0e"/>
<circle cx="648.57" cy="784.54" r="4" fill="#ff7f0e"/>
<circle cx="785.71" cy="784.47" r="4" fill="#ff7f0e"/>
<circle cx="922.86" cy="784.71" r="4" fill="#ff7f0e"/>
<circle cx="1060.00" cy="784.73" r="4" fill="#ff7f0e"/>
<line x1="940.00" y1="632.00" x2="958.00" y2="632.00" stroke="#1f77b4" stroke-width="2.5"/>
<circle cx="949.00" cy="632.00" r="3.5" fill="#1f77b4"/>
<text x="968.00" y="636.00" font-size="12" text-anchor="start" font-family="Helvetica, Arial, sans-serif" font-weight="normal">1 Threads</text>
<line x1="940.00" y1="650.00" x2="958.00" y2="650.00" stroke="#d62728" stroke-width="2.5"/>
<circle cx="949.00" cy="650.00" r="3.5" fill="#d62728"/>
<text x="968.00" y="654.00" font-size="12" text-anchor="start" font-family="Helvetica, Arial, sans-serif" font-weight="normal">2 Threads</text>
<line x1="940.00" y1="668.00" x2="958.00" y2="668.00" stroke="#2ca02c" stroke-width="2.5"/>
<circle cx="949.00" cy="668.00" r="3.5" fill="#2ca02c"/>
<text x="968.00" y="672.00" font-size="12" text-anchor="start" font-family="Helvetica, Arial, sans-serif" font-weight="normal">4 Threads</text>
<line x1="940.00" y1="686.00" x2="958.00" y2="686.00" stroke="#ff7f0e" stroke-width="2.5"/>
<circle cx="949.00" cy="686.00" r="3.5" fill="#ff7f0e"/>
<text x="968.00" y="690.00" font-size="12" text-anchor="start" font-family="Helvetica, Arial, sans-serif" font-weight="normal">8 Threads</text>
<text x="30.00" y="702.50" font-size="14" text-anchor="middle" font-family="Helvetica, Arial, sans-serif" font-weight="normal">Zeit [s]</text>
<text x="550.00" y="868.00" font-size="15" text-anchor="middle" font-family="Helvetica, Arial, sans-serif" font-weight="normal">Compiler-Flags</text>
</svg>