<svg xmlns="http://www.w3.org/2000/svg" width="900" height="560" viewBox="0 0 900 560">
<rect width="100%" height="100%" fill="white"/>
<text x="450.00" y="28.00" font-size="20" text-anchor="middle" font-family="Helvetica, Arial, sans-serif" font-weight="bold">Laufzeit vs. Threads (-fopenmp)</text>
<line x1="90.00" y1="60.00" x2="90.00" y2="490.00" stroke="#333" stroke-width="1.5"/>
<line x1="90.00" y1="490.00" x2="870.00" y2="490.00" stroke="#333" stroke-width="1.5"/>
<text x="450.00" y="542.00" font-size="15" text-anchor="middle" font-family="Helvetica, Arial, sans-serif" font-weight="normal">Threads</text>
<text x="24" y="275.00" font-size="15" font-family="Helvetica, Arial, sans-serif" transform="rotate(-90 24 275.00)">Zeit [s]</text>
<line x1="90.00" y1="490.00" x2="870.00" y2="490.00" stroke="#d9d9d9" stroke-width="1" stroke-dasharray="4 4"/>
<text x="80.00" y="495.00" font-size="11" text-anchor="end" font-family="Helvetica, Arial, sans-serif" font-weight="normal">0.000</text>
<line x1="90.00" y1="418.33" x2="870.00" y2="418.33" stroke="#d9d9d9" stroke-width="1" stroke-dasharray="4 4"/>
<text x="80.00" y="423.33" font-size="11" text-anchor="end" font-family="Helvetica, Arial, sans-serif" font-weight="normal">0.747</text>
<line x1="90.00" y1="346.67" x2="870.00" y2="346.67" stroke="#d9d9d9" stroke-width="1" stroke-dasharray="4 4"/>
<text x="80.00" y="351.67" font-size="11" text-anchor="end" font-family="Helvetica, Arial, sans-serif" font-weight="normal">1.495</text>
<line x1="90.00" y1="275.00" x2="870.00" y2="275.00" stroke="#d9d9d9" stroke-width="1" stroke-dasharray="4 4"/>
<text x="80.00" y="280.00" font-size="11" text-anchor="end" font-family="Helvetica, Arial, sans-serif" font-weight="normal">2.242</text>
<line x1="90.00" y1="203.33" x2="870.00" y2="203.33" stroke="#d9d9d9" stroke-width="1" stroke-dasharray="4 4"/>
<text x="80.00" y="208.33" font-size="11" text-anchor="end" font-family="Helvetica, Arial, sans-serif" font-weight="normal">2.990</text>
<line x1="90.00" y1="131.67" x2="870.00" y2="131.67" stroke="#d9d9d9" stroke-width="1" stroke-dasharray="4 4"/>
<text x="80.00" y="136.67" font-size="11" text-anchor="end" font-family="Helvetica, Arial, sans-serif" font-weight="normal">3.737</text>
<line x1="90.00" y1="60.00" x2="870.00" y2="60.00" stroke="#d9d9d9" stroke-width="1" stroke-dasharray="4 4"/>
<text x="80.00" y="65.00" font-size="11" text-anchor="end" font-family="Helvetica, Arial, sans-serif" font-weight="normal">4.485</text>
<line x1="90.00" y1="490.00" x2="90.00" y2="496.00" stroke="#333" stroke-width="1.5"/>
<text x="90.00" y="514.00" font-size="12" text-anchor="middle" font-family="Helvetica, Arial, sans-serif" font-weight="normal">1</text>
<line x1="201.43" y1="490.00" x2="201.43" y2="496.00" stroke="#333" stroke-width="1.5"/>
<text x="201.43" y="514.00" font-size="12" text-anchor="middle" font-family="Helvetica, Arial, sans-serif" font-weight="normal">2</text>
<line x1="424.29" y1="490.00" x2="424.29" y2="496.00" stroke="#333" stroke-width="1.5"/>
<text x="424.29" y="514.00" font-size="12" text-anchor="middle" font-family="Helvetica, Arial, sans-serif" font-weight="normal">4</text>
<line x1="870.00" y1="490.00" x2="870.00" y2="496.00" stroke="#333" stroke-width="1.5"/>
<text x="870.00" y="514.00" font-size="12" text-anchor="middle" font-family="Helvetica, Arial, sans-serif" font-weight="normal">8</text>
<polyline fill="none" stroke="#1f77b4" stroke-width="2.5" points="90.00,350.59 201.43,196.12 424.29,160.18 870.00,105.90"/>
<line x1="90.00" y1="355.57" x2="90.00" y2="345.60" stroke="#1f77b4" stroke-width="1.5"/>
<line x1="85.00" y1="355.57" x2="95.00" y2="355.57" stroke="#1f77b4" stroke-width="1.5"/>
<line x1="85.00" y1="345.60" x2="95.00" y2="345.60" stroke="#1f77b4" stroke-width="1.5"/>
<circle cx="90.00" cy="350.59" r="4" fill="#1f77b4"/>
<line x1="201.43" y1="209.17" x2="201.43" y2="183.07" stroke="#1f77b4" stroke-width="1.5"/>
<line x1="196.43" y1="209.17" x2="206.43" y2="209.17" stroke="#1f77b4" stroke-width="1.5"/>
<line x1="196.43" y1="183.07" x2="206.43" y2="183.07" stroke="#1f77b4" stroke-width="1.5"/>
<circle cx="201.43" cy="196.12" r="4" fill="#1f77b4"/>
<line x1="424.29" y1="171.35" x2="424.29" y2="149.02" stroke="#1f77b4" stroke-width="1.5"/>
<line x1="419.29" y1="171.35" x2="429.29" y2="171.35" stroke="#1f77b4" stroke-width="1.5"/>
<line x1="419.29" y1="149.02" x2="429.29" y2="149.02" stroke="#1f77b4" stroke-width="1.5"/>
<circle cx="424.29" cy="160.18" r="4" fill="#1f77b4"/>
<line x1="870.00" y1="112.70" x2="870.00" y2="99.09" stroke="#1f77b4" stroke-width="1.5"/>
<line x1="865.00" y1="112.70" x2="875.00" y2="112.70" stroke="#1f77b4" stroke-width="1.5"/>
<line x1="865.00" y1="99.09" x2="875.00" y2="99.09" stroke="#1f77b4" stroke-width="1.5"/>
<circle cx="870.00" cy="105.90" r="4" fill="#1f77b4"/>
<line x1="720.00" y1="70.00" x2="738.00" y2="70.00" stroke="#1f77b4" stroke-width="2.5"/>
<circle cx="729.00" cy="70.00" r="3.5" fill="#1f77b4"/>
<text x="748.00" y="74.00" font-size="12" text-anchor="start" font-family="Helvetica, Arial, sans-serif" font-weight="normal">slow</text>
<polyline fill="none" stroke="#d62728" stroke-width="2.5" points="90.00,454.99 201.43,344.42 424.29,304.21 870.00,315.34"/>
<line x1="90.00" y1="455.62" x2="90.00" y2="454.36" stroke="#d62728" stroke-width="1.5"/>
<line x1="85.00" y1="455.62" x2="95.00" y2="455.62" stroke="#d62728" stroke-width="1.5"/>
<line x1="85.00" y1="454.36" x2="95.00" y2="454.36" stroke="#d62728" stroke-width="1.5"/>
<circle cx="90.00" cy="454.99" r="4" fill="#d62728"/>
<line x1="201.43" y1="360.58" x2="201.43" y2="328.27" stroke="#d62728" stroke-width="1.5"/>
<line x1="196.43" y1="360.58" x2="206.43" y2="360.58" stroke="#d62728" stroke-width="1.5"/>
<line x1="196.43" y1="328.27" x2="206.43" y2="328.27" stroke="#d62728" stroke-width="1.5"/>
<circle cx="201.43" cy="344.42" r="4" fill="#d62728"/>
<line x1="424.29" y1="309.81" x2="424.29" y2="298.61" stroke="#d62728" stroke-width="1.5"/>
<line x1="419.29" y1="309.81" x2="429.29" y2="309.81" stroke="#d62728" stroke-width="1.5"/>
<line x1="419.29" y1="298.61" x2="429.29" y2="298.61" stroke="#d62728" stroke-width="1.5"/>
<circle cx="424.29" cy="304.21" r="4" fill="#d62728"/>
<line x1="870.00" y1="319.77" x2="870.00" y2="310.91" stroke="#d62728" stroke-width="1.5"/>
<line x1="865.00" y1="319.77" x2="875.00" y2="319.77" stroke="#d62728" stroke-width="1.5"/>
<line x1="865.00" y1="310.91" x2="875.00" y2="310.91" stroke="#d62728" stroke-width="1.5"/>
<circle cx="870.00" cy="315.34" r="4" fill="#d62728"/>
<line x1="720.00" y1="92.00" x2="738.00" y2="92.00" stroke="#d62728" stroke-width="2.5"/>
<circle cx="729.00" cy="92.00" r="3.5" fill="#d62728"/>
<text x="748.00" y="96.00" font-size="12" text-anchor="start" font-family="Helvetica, Arial, sans-serif" font-weight="normal">medium</text>
<polyline fill="none" stroke="#2ca02c" stroke-width="2.5" points="90.00,475.29 201.43,482.91 424.29,485.92 870.00,486.81"/>
<line x1="90.00" y1="477.13" x2="90.00" y2="473.44" stroke="#2ca02c" stroke-width="1.5"/>
<line x1="85.00" y1="477.13" x2="95.00" y2="477.13" stroke="#2ca02c" stroke-width="1.5"/>
<line x1="85.00" y1="473.44" x2="95.00" y2="473.44" stroke="#2ca02c" stroke-width="1.5"/>
<circle cx="90.00" cy="475.29" r="4" fill="#2ca02c"/>
<line x1="201.43" y1="483.11" x2="201.43" y2="482.70" stroke="#2ca02c" stroke-width="1.5"/>
<line x1="196.43" y1="483.11" x2="206.43" y2="483.11" stroke="#2ca02c" stroke-width="1.5"/>
<line x1="196.43" y1="482.70" x2="206.43" y2="482.70" stroke="#2ca02c" stroke-width="1.5"/>
<circle cx="201.43" cy="482.91" r="4" fill="#2ca02c"/>
<line x1="424.29" y1="486.32" x2="424.29" y2="485.52" stroke="#2ca02c" stroke-width="1.5"/>
<line x1="419.29" y1="486.32" x2="429.29" y2="486.32" stroke="#2ca02c" stroke-width="1.5"/>
<line x1="419.29" y1="485.52" x2="429.29" y2="485.52" stroke="#2ca02c" stroke-width="1.5"/>
<circle cx="424.29" cy="485.92" r="4" fill="#2ca02c"/>
<line x1="870.00" y1="487.17" x2="870.00" y2="486.46" stroke="#2ca02c" stroke-width="1.5"/>
<line x1="865.00" y1="487.17" x2="875.00" y2="487.17" stroke="#2ca02c" stroke-width="1.5"/>
<line x1="865.00" y1="486.46" x2="875.00" y2="486.46" stroke="#2ca02c" stroke-width="1.5"/>
<circle cx="870.00" cy="486.81" r="4" fill="#2ca02c"/>
<line x1="720.00" y1="114.00" x2="738.00" y2="114.00" stroke="#2ca02c" stroke-width="2.5"/>
<circle cx="729.00" cy="114.00" r="3.5" fill="#2ca02c"/>
<text x="748.00" y="118.00" font-size="12" text-anchor="start" font-family="Helvetica, Arial, sans-serif" font-weight="normal">fast</text>
</svg>