<svg xmlns="http://www.w3.org/2000/svg" width="900" height="560" viewBox="0 0 900 560">
<rect width="100%" height="100%" fill="white"/>
<text x="450.00" y="28.00" font-size="20" text-anchor="middle" font-family="Helvetica, Arial, sans-serif" font-weight="bold">Laufzeit vs. Threads (-fopenmp -O3 -march=native)</text>
<line x1="90.00" y1="60.00" x2="90.00" y2="490.00" stroke="#333" stroke-width="1.5"/>
<line x1="90.00" y1="490.00" x2="870.00" y2="490.00" stroke="#333" stroke-width="1.5"/>
<text x="450.00" y="542.00" font-size="15" text-anchor="middle" font-family="Helvetica, Arial, sans-serif" font-weight="normal">Threads</text>
<text x="24" y="275.00" font-size="15" font-family="Helvetica, Arial, sans-serif" transform="rotate(-90 24 275.00)">Zeit [s]</text>
<line x1="90.00" y1="490.00" x2="870.00" y2="490.00" stroke="#d9d9d9" stroke-width="1" stroke-dasharray="4 4"/>
<text x="80.00" y="495.00" font-size="11" text-anchor="end" font-family="Helvetica, Arial, sans-serif" font-weight="normal">0.000</text>
<line x1="90.00" y1="418.33" x2="870.00" y2="418.33" stroke="#d9d9d9" stroke-width="1" stroke-dasharray="4 4"/>
<text x="80.00" y="423.33" font-size="11" text-anchor="end" font-family="Helvetica, Arial, sans-serif" font-weight="normal">0.731</text>
<line x1="90.00" y1="346.67" x2="870.00" y2="346.67" stroke="#d9d9d9" stroke-width="1" stroke-dasharray="4 4"/>
<text x="80.00" y="351.67" font-size="11" text-anchor="end" font-family="Helvetica, Arial, sans-serif" font-weight="normal">1.461</text>
<line x1="90.00" y1="275.00" x2="870.00" y2="275.00" stroke="#d9d9d9" stroke-width="1" stroke-dasharray="4 4"/>
<text x="80.00" y="280.00" font-size="11" text-anchor="end" font-family="Helvetica, Arial, sans-serif" font-weight="normal">2.192</text>
<line x1="90.00" y1="203.33" x2="870.00" y2="203.33" stroke="#d9d9d9" stroke-width="1" stroke-dasharray="4 4"/>
<text x="80.00" y="208.33" font-size="11" text-anchor="end" font-family="Helvetica, Arial, sans-serif" font-weight="normal">2.922</text>
<line x1="90.00" y1="131.67" x2="870.00" y2="131.67" stroke="#d9d9d9" stroke-width="1" stroke-dasharray="4 4"/>
<text x="80.00" y="136.67" font-size="11" text-anchor="end" font-family="Helvetica, Arial, sans-serif" font-weight="normal">3.653</text>
<line x1="90.00" y1="60.00" x2="870.00" y2="60.00" stroke="#d9d9d9" stroke-width="1" stroke-dasharray="4 4"/>
<text x="80.00" y="65.00" font-size="11" text-anchor="end" font-family="Helvetica, Arial, sans-serif" font-weight="normal">4.383</text>
<line x1="90.00" y1="490.00" x2="90.00" y2="496.00" stroke="#333" stroke-width="1.5"/>
<text x="90.00" y="514.00" font-size="12" text-anchor="middle" font-family="Helvetica, Arial, sans-serif" font-weight="normal">1</text>
<line x1="201.43" y1="490.00" x2="201.43" y2="496.00" stroke="#333" stroke-width="1.5"/>
<text x="201.43" y="514.00" font-size="12" text-anchor="middle" font-family="Helvetica, Arial, sans-serif" font-weight="normal">2</text>
<line x1="424.29" y1="490.00" x2="424.29" y2="496.00" stroke="#333" stroke-width="1.5"/>
<text x="424.29" y="514.00" font-size="12" text-anchor="middle" font-family="Helvetica, Arial, sans-serif" font-weight="normal">4</text>
<line x1="870.00" y1="490.00" x2="870.00" y2="496.00" stroke="#333" stroke-width="1.5"/>
<text x="870.00" y="514.00" font-size="12" text-anchor="middle" font-family="Helvetica, Arial, sans-serif" font-weight="normal">8</text>
<polyline fill="none" stroke="#1f77b4" stroke-width="2.5" points="90.00,354.67 201.43,169.31 424.29,167.60 870.00,103.53"/>
<line x1="90.00" y1="355.96" x2="90.00" y2="353.39" stroke="#1f77b4" stroke-width="1.5"/>
<line x1="85.00" y1="355.96" x2="95.00" y2="355.96" stroke="#1f77b4" stroke-width="1.5"/>
<line x1="85.00" y1="353.39" x2="95.00" y2="353.39" stroke="#1f77b4" stroke-width="1.5"/>
<circle cx="90.00" cy="354.67" r="4" fill="#1f77b4"/>
<line x1="201.43" y1="177.36" x2="201.43" y2="161.26" stroke="#1f77b4" stroke-width="1.5"/>
<line x1="196.43" y1="177.36" x2="206.43" y2="177.36" stroke="#1f77b4" stroke-width="1.5"/>
<line x1="196.43" y1="161.26" x2="206.43" y2="161.26" stroke="#1f77b4" stroke-width="1.5"/>
<circle cx="201.43" cy="169.31" r="4" fill="#1f77b4"/>
<line x1="424.29" y1="177.95" x2="424.29" y2="157.25" stroke="#1f77b4" stroke-width="1.5"/>
<line x1="419.29" y1="177.95" x2="429.29" y2="177.95" stroke="#1f77b4" stroke-width="1.5"/>
<line x1="419.29" y1="157.25" x2="429.29" y2="157.25" stroke="#1f77b4" stroke-width="1.5"/>
<circle cx="424.29" cy="167.60" r="4" fill="#1f77b4"/>
<line x1="870.00" y1="107.97" x2="870.00" y2="99.09" stroke="#1f77b4" stroke-width="1.5"/>
<line x1="865.00" y1="107.97" x2="875.00" y2="107.97" stroke="#1f77b4" stroke-width="1.5"/>
<line x1="865.00" y1="99.09" x2="875.00" y2="99.09" stroke="#1f77b4" stroke-width="1.5"/>
<circle cx="870.00" cy="103.53" r="4" fill="#1f77b4"/>
<line x1="720.00" y1="70.00" x2="738.00" y2="70.00" stroke="#1f77b4" stroke-width="2.5"/>
<circle cx="729.00" cy="70.00" r="3.5" fill="#1f77b4"/>
<text x="748.00" y="74.00" font-size="12" text-anchor="start" font-family="Helvetica, Arial, sans-serif" font-weight="normal">slow</text>
<polyline fill="none" stroke="#d62728" stroke-width="2.5" points="90.00,454.25 201.43,322.88 424.29,287.64 870.00,290.91"/>
<line x1="90.00" y1="457.94" x2="90.00" y2="450.55" stroke="#d62728" stroke-width="1.5"/>
<line x1="85.00" y1="457.94" x2="95.00" y2="457.94" stroke="#d62728" stroke-width="1.5"/>
<line x1="85.00" y1="450.55" x2="95.00" y2="450.55" stroke="#d62728" stroke-width="1.5"/>
<circle cx="90.00" cy="454.25" r="4" fill="#d62728"/>
<line x1="201.43" y1="336.88" x2="201.43" y2="308.87" stroke="#d62728" stroke-width="1.5"/>
<line x1="196.43" y1="336.88" x2="206.43" y2="336.88" stroke="#d62728" stroke-width="1.5"/>
<line x1="196.43" y1="308.87" x2="206.43" y2="308.87" stroke="#d62728" stroke-width="1.5"/>
<circle cx="201.43" cy="322.88" r="4" fill="#d62728"/>
<line x1="424.29" y1="290.57" x2="424.29" y2="284.71" stroke="#d62728" stroke-width="1.5"/>
<line x1="419.29" y1="290.57" x2="429.29" y2="290.57" stroke="#d62728" stroke-width="1.5"/>
<line x1="419.29" y1="284.71" x2="429.29" y2="284.71" stroke="#d62728" stroke-width="1.5"/>
<circle cx="424.29" cy="287.64" r="4" fill="#d62728"/>
<line x1="870.00" y1="294.02" x2="870.00" y2="287.80" stroke="#d62728" stroke-width="1.5"/>
<line x1="865.00" y1="294.02" x2="875.00" y2="294.02" stroke="#d62728" stroke-width="1.5"/>
<line x1="865.00" y1="287.80" x2="875.00" y2="287.80" stroke="#d62728" stroke-width="1.5"/>
<circle cx="870.00" cy="290.91" r="4" fill="#d62728"/>
<line x1="720.00" y1="92.00" x2="738.00" y2="92.00" stroke="#d62728" stroke-width="2.5"/>
<circle cx="729.00" cy="92.00" r="3.5" fill="#d62728"/>
<text x="748.00" y="96.00" font-size="12" text-anchor="start" font-family="Helvetica, Arial, sans-serif" font-weight="normal">medium</text>
<polyline fill="none" stroke="#2ca02c" stroke-width="2.5" points="90.00,490.00 201.43,489.99 424.29,489.97 870.00,489.97"/>
<line x1="90.00" y1="490.00" x2="90.00" y2="490.00" stroke="#2ca02c" stroke-width="1.5"/>
<line x1="85.00" y1="490.00" x2="95.00" y2="490.00" stroke="#2ca02c" stroke-width="1.5"/>
<line x1="85.00" y1="490.00" x2="95.00" y2="490.00" stroke="#2ca02c" stroke-width="1.5"/>
<circle cx="90.00" cy="490.00" r="4" fill="#2ca02c"/>
<line x1="201.43" y1="489.99" x2="201.43" y2="489.98" stroke="#2ca02c" stroke-width="1.5"/>
<line x1="196.43" y1="489.99" x2="206.43" y2="489.99" stroke="#2ca02c" stroke-width="1.5"/>
<line x1="196.43" y1="489.98" x2="206.43" y2="489.98" stroke="#2ca02c" stroke-width="1.5"/>
<circle cx="201.43" cy="489.99" r="4" fill="#2ca02c"/>
<line x1="424.29" y1="489.98" x2="424.29" y2="489.96" stroke="#2ca02c" stroke-width="1.5"/>
<line x1="419.29" y1="489.98" x2="429.29" y2="489.98" stroke="#2ca02c" stroke-width="1.5"/>
<line x1="419.29" y1="489.96" x2="429.29" y2="489.96" stroke="#2ca02c" stroke-width="1.5"/>
<circle cx="424.29" cy="489.97" r="4" fill="#2ca02c"/>
<line x1="870.00" y1="489.98" x2="870.00" y2="489.96" stroke="#2ca02c" stroke-width="1.5"/>
<line x1="865.00" y1="489.98" x2="875.00" y2="489.98" stroke="#2ca02c" stroke-width="1.5"/>
<line x1="865.00" y1="489.96" x2="875.00" y2="489.96" stroke="#2ca02c" stroke-width="1.5"/>
<circle cx="870.00" cy="489.97" r="4" fill="#2ca02c"/>
<line x1="720.00" y1="114.00" x2="738.00" y2="114.00" stroke="#2ca02c" stroke-width="2.5"/>
<circle cx="729.00" cy="114.00" r="3.5" fill="#2ca02c"/>
<text x="748.00" y="118.00" font-size="12" text-anchor="start" font-family="Helvetica, Arial, sans-serif" font-weight="normal">fast</text>
</svg>