<svg xmlns="http://www.w3.org/2000/svg" width="900" height="560" viewBox="0 0 900 560">
<rect width="100%" height="100%" fill="white"/>
<text x="450.00" y="28.00" font-size="20" text-anchor="middle" font-family="Helvetica, Arial, sans-serif" font-weight="bold">Laufzeit vs. Threads (-fopenmp -O2 -march=native)</text>
<line x1="90.00" y1="60.00" x2="90.00" y2="490.00" stroke="#333" stroke-width="1.5"/>
<line x1="90.00" y1="490.00" x2="870.00" y2="490.00" stroke="#333" stroke-width="1.5"/>
<text x="450.00" y="542.00" font-size="15" text-anchor="middle" font-family="Helvetica, Arial, sans-serif" font-weight="normal">Threads</text>
<text x="24" y="275.00" font-size="15" font-family="Helvetica, Arial, sans-serif" transform="rotate(-90 24 275.00)">Zeit [s]</text>
<line x1="90.00" y1="490.00" x2="870.00" y2="490.00" stroke="#d9d9d9" stroke-width="1" stroke-dasharray="4 4"/>
<text x="80.00" y="495.00" font-size="11" text-anchor="end" font-family="Helvetica, Arial, sans-serif" font-weight="normal">0.000</text>
<line x1="90.00" y1="418.33" x2="870.00" y2="418.33" stroke="#d9d9d9" stroke-width="1" stroke-dasharray="4 4"/>
<text x="80.00" y="423.33" font-size="11" text-anchor="end" font-family="Helvetica, Arial, sans-serif" font-weight="normal">0.729</text>
<line x1="90.00" y1="346.67" x2="870.00" y2="346.67" stroke="#d9d9d9" stroke-width="1" stroke-dasharray="4 4"/>
<text x="80.00" y="351.67" font-size="11" text-anchor="end" font-family="Helvetica, Arial, sans-serif" font-weight="normal">1.458</text>
<line x1="90.00" y1="275.00" x2="870.00" y2="275.00" stroke="#d9d9d9" stroke-width="1" stroke-dasharray="4 4"/>
<text x="80.00" y="280.00" font-size="11" text-anchor="end" font-family="Helvetica, Arial, sans-serif" font-weight="normal">2.187</text>
<line x1="90.00" y1="203.33" x2="870.00" y2="203.33" stroke="#d9d9d9" stroke-width="1" stroke-dasharray="4 4"/>
<text x="80.00" y="208.33" font-size="11" text-anchor="end" font-family="Helvetica, Arial, sans-serif" font-weight="normal">2.916</text>
<line x1="90.00" y1="131.67" x2="870.00" y2="131.67" stroke="#d9d9d9" stroke-width="1" stroke-dasharray="4 4"/>
<text x="80.00" y="136.67" font-size="11" text-anchor="end" font-family="Helvetica, Arial, sans-serif" font-weight="normal">3.645</text>
<line x1="90.00" y1="60.00" x2="870.00" y2="60.00" stroke="#d9d9d9" stroke-width="1" stroke-dasharray="4 4"/>
<text x="80.00" y="65.00" font-size="11" text-anchor="end" font-family="Helvetica, Arial, sans-serif" font-weight="normal">4.374</text>
<line x1="90.00" y1="490.00" x2="90.00" y2="496.00" stroke="#333" stroke-width="1.5"/>
<text x="90.00" y="514.00" font-size="12" text-anchor="middle" font-family="Helvetica, Arial, sans-serif" font-weight="normal">1</text>
<line x1="201.43" y1="490.00" x2="201.43" y2="496.00" stroke="#333" stroke-width="1.5"/>
<text x="201.43" y="514.00" font-size="12" text-anchor="middle" font-family="Helvetica, Arial, sans-serif" font-weight="normal">2</text>
<line x1="424.29" y1="490.00" x2="424.29" y2="496.00" stroke="#333" stroke-width="1.5"/>
<text x="424.29" y="514.00" font-size="12" text-anchor="middle" font-family="Helvetica, Arial, sans-serif" font-weight="normal">4</text>
<line x1="870.00" y1="490.00" x2="870.00" y2="496.00" stroke="#333" stroke-width="1.5"/>
<text x="870.00" y="514.00" font-size="12" text-anchor="middle" font-family="Helvetica, Arial, sans-serif" font-weight="normal">8</text>
<polyline fill="none" stroke="#1f77b4" stroke-width="2.5" points="90.00,352.76 201.43,172.87 424.29,167.97 870.00,103.05"/>
<line x1="90.00" y1="355.73" x2="90.00" y2="349.79" stroke="#1f77b4" stroke-width="1.5"/>
<line x1="85.00" y1="355.73" x2="95.00" y2="355.73" stroke="#1f77b4" stroke-width="1.5"/>
<line x1="85.00" y1="349.79" x2="95.00" y2="349.79" stroke="#1f77b4" stroke-width="1.5"/>
<circle cx="90.00" cy="352.76" r="4" fill="#1f77b4"/>
<line x1="201.43" y1="180.90" x2="201.43" y2="164.84" stroke="#1f77b4" stroke-width="1.5"/>
<line x1="196.43" y1="180.90" x2="206.43" y2="180.90" stroke="#1f77b4" stroke-width="1.5"/>
<line x1="196.43" y1="164.84" x2="206.43" y2="164.84" stroke="#1f77b4" stroke-width="1.5"/>
<circle cx="201.43" cy="172.87" r="4" fill="#1f77b4"/>
<line x1="424.29" y1="176.45" x2="424.29" y2="159.49" stroke="#1f77b4" stroke-width="1.5"/>
<line x1="419.29" y1="176.45" x2="429.29" y2="176.45" stroke="#1f77b4" stroke-width="1.5"/>
<line x1="419.29" y1="159.49" x2="429.29" y2="159.49" stroke="#1f77b4" stroke-width="1.5"/>
<circle cx="424.29" cy="167.97" r="4" fill="#1f77b4"/>
<line x1="870.00" y1="107.01" x2="870.00" y2="99.09" stroke="#1f77b4" stroke-width="1.5"/>
<line x1="865.00" y1="107.01" x2="875.00" y2="107.01" stroke="#1f77b4" stroke-width="1.5"/>
<line x1="865.00" y1="99.09" x2="875.00" y2="99.09" stroke="#1f77b4" stroke-width="1.5"/>
<circle cx="870.00" cy="103.05" r="4" fill="#1f77b4"/>
<line x1="720.00" y1="70.00" x2="738.00" y2="70.00" stroke="#1f77b4" stroke-width="2.5"/>
<circle cx="729.00" cy="70.00" r="3.5" fill="#1f77b4"/>
<text x="748.00" y="74.00" font-size="12" text-anchor="start" font-family="Helvetica, Arial, sans-serif" font-weight="normal">slow</text>
<polyline fill="none" stroke="#d62728" stroke-width="2.5" points="90.00,455.23 201.43,316.56 424.29,286.61 870.00,297.11"/>
<line x1="90.00" y1="455.74" x2="90.00" y2="454.72" stroke="#d62728" stroke-width="1.5"/>
<line x1="85.00" y1="455.74" x2="95.00" y2="455.74" stroke="#d62728" stroke-width="1.5"/>
<line x1="85.00" y1="454.72" x2="95.00" y2="454.72" stroke="#d62728" stroke-width="1.5"/>
<circle cx="90.00" cy="455.23" r="4" fill="#d62728"/>
<line x1="201.43" y1="325.22" x2="201.43" y2="307.90" stroke="#d62728" stroke-width="1.5"/>
<line x1="196.43" y1="325.22" x2="206.43" y2="325.22" stroke="#d62728" stroke-width="1.5"/>
<line x1="196.43" y1="307.90" x2="206.43" y2="307.90" stroke="#d62728" stroke-width="1.5"/>
<circle cx="201.43" cy="316.56" r="4" fill="#d62728"/>
<line x1="424.29" y1="290.73" x2="424.29" y2="282.49" stroke="#d62728" stroke-width="1.5"/>
<line x1="419.29" y1="290.73" x2="429.29" y2="290.73" stroke="#d62728" stroke-width="1.5"/>
<line x1="419.29" y1="282.49" x2="429.29" y2="282.49" stroke="#d62728" stroke-width="1.5"/>
<circle cx="424.29" cy="286.61" r="4" fill="#d62728"/>
<line x1="870.00" y1="303.27" x2="870.00" y2="290.94" stroke="#d62728" stroke-width="1.5"/>
<line x1="865.00" y1="303.27" x2="875.00" y2="303.27" stroke="#d62728" stroke-width="1.5"/>
<line x1="865.00" y1="290.94" x2="875.00" y2="290.94" stroke="#d62728" stroke-width="1.5"/>
<circle cx="870.00" cy="297.11" r="4" fill="#d62728"/>
<line x1="720.00" y1="92.00" x2="738.00" y2="92.00" stroke="#d62728" stroke-width="2.5"/>
<circle cx="729.00" cy="92.00" r="3.5" fill="#d62728"/>
<text x="748.00" y="96.00" font-size="12" text-anchor="start" font-family="Helvetica, Arial, sans-serif" font-weight="normal">medium</text>
<polyline fill="none" stroke="#2ca02c" stroke-width="2.5" points="90.00,490.00 201.43,489.99 424.29,489.96 870.00,489.95"/>
<line x1="90.00" y1="490.00" x2="90.00" y2="489.99" stroke="#2ca02c" stroke-width="1.5"/>
<line x1="85.00" y1="490.00" x2="95.00" y2="490.00" stroke="#2ca02c" stroke-width="1.5"/>
<line x1="85.00" y1="489.99" x2="95.00" y2="489.99" stroke="#2ca02c" stroke-width="1.5"/>
<circle cx="90.00" cy="490.00" r="4" fill="#2ca02c"/>
<line x1="201.43" y1="489.99" x2="201.43" y2="489.99" stroke="#2ca02c" stroke-width="1.5"/>
<line x1="196.43" y1="489.99" x2="206.43" y2="489.99" stroke="#2ca02c" stroke-width="1.5"/>
<line x1="196.43" y1="489.99" x2="206.43" y2="489.99" stroke="#2ca02c" stroke-width="1.5"/>
<circle cx="201.43" cy="489.99" r="4" fill="#2ca02c"/>
<line x1="424.29" y1="489.98" x2="424.29" y2="489.95" stroke="#2ca02c" stroke-width="1.5"/>
<line x1="419.29" y1="489.98" x2="429.29" y2="489.98" stroke="#2ca02c" stroke-width="1.5"/>
<line x1="419.29" y1="489.95" x2="429.29" y2="489.95" stroke="#2ca02c" stroke-width="1.5"/>
<circle cx="424.29" cy="489.96" r="4" fill="#2ca02c"/>
<line x1="870.00" y1="490.00" x2="870.00" y2="489.86" stroke="#2ca02c" stroke-width="1.5"/>
<line x1="865.00" y1="490.00" x2="875.00" y2="490.00" stroke="#2ca02c" stroke-width="1.5"/>
<line x1="865.00" y1="489.86" x2="875.00" y2="489.86" stroke="#2ca02c" stroke-width="1.5"/>
<circle cx="870.00" cy="489.95" r="4" fill="#2ca02c"/>
<line x1="720.00" y1="114.00" x2="738.00" y2="114.00" stroke="#2ca02c" stroke-width="2.5"/>
<circle cx="729.00" cy="114.00" r="3.5" fill="#2ca02c"/>
<text x="748.00" y="118.00" font-size="12" text-anchor="start" font-family="Helvetica, Arial, sans-serif" font-weight="normal">fast</text>
</svg>