<svg xmlns="http://www.w3.org/2000/svg" width="900" height="560" viewBox="0 0 900 560">
<rect width="100%" height="100%" fill="white"/>
<text x="450.00" y="28.00" font-size="20" text-anchor="middle" font-family="Helvetica, Arial, sans-serif" font-weight="bold">Laufzeit vs. Threads (-fopenmp -Ofast)</text>
<line x1="90.00" y1="60.00" x2="90.00" y2="490.00" stroke="#333" stroke-width="1.5"/>
<line x1="90.00" y1="490.00" x2="870.00" y2="490.00" stroke="#333" stroke-width="1.5"/>
<text x="450.00" y="542.00" font-size="15" text-anchor="middle" font-family="Helvetica, Arial, sans-serif" font-weight="normal">Threads</text>
<text x="24" y="275.00" font-size="15" font-family="Helvetica, Arial, sans-serif" transform="rotate(-90 24 275.00)">Zeit [s]</text>
<line x1="90.00" y1="490.00" x2="870.00" y2="490.00" stroke="#d9d9d9" stroke-width="1" stroke-dasharray="4 4"/>
<text x="80.00" y="495.00" font-size="11" text-anchor="end" font-family="Helvetica, Arial, sans-serif" font-weight="normal">0.000</text>
<line x1="90.00" y1="418.33" x2="870.00" y2="418.33" stroke="#d9d9d9" stroke-width="1" stroke-dasharray="4 4"/>
<text x="80.00" y="423.33" font-size="11" text-anchor="end" font-family="Helvetica, Arial, sans-serif" font-weight="normal">0.739</text>
<line x1="90.00" y1="346.67" x2="870.00" y2="346.67" stroke="#d9d9d9" stroke-width="1" stroke-dasharray="4 4"/>
<text x="80.00" y="351.67" font-size="11" text-anchor="end" font-family="Helvetica, Arial, sans-serif" font-weight="normal">1.477</text>
<line x1="90.00" y1="275.00" x2="870.00" y2="275.00" stroke="#d9d9d9" stroke-width="1" stroke-dasharray="4 4"/>
<text x="80.00" y="280.00" font-size="11" text-anchor="end" font-family="Helvetica, Arial, sans-serif" font-weight="normal">2.216</text>
<line x1="90.00" y1="203.33" x2="870.00" y2="203.33" stroke="#d9d9d9" stroke-width="1" stroke-dasharray="4 4"/>
<text x="80.00" y="208.33" font-size="11" text-anchor="end" font-family="Helvetica, Arial, sans-serif" font-weight="normal">2.954</text>
<line x1="90.00" y1="131.67" x2="870.00" y2="131.67" stroke="#d9d9d9" stroke-width="1" stroke-dasharray="4 4"/>
<text x="80.00" y="136.67" font-size="11" text-anchor="end" font-family="Helvetica, Arial, sans-serif" font-weight="normal">3.693</text>
<line x1="90.00" y1="60.00" x2="870.00" y2="60.00" stroke="#d9d9d9" stroke-width="1" stroke-dasharray="4 4"/>
<text x="80.00" y="65.00" font-size="11" text-anchor="end" font-family="Helvetica, Arial, sans-serif" font-weight="normal">4.431</text>
<line x1="90.00" y1="490.00" x2="90.00" y2="496.00" stroke="#333" stroke-width="1.5"/>
<text x="90.00" y="514.00" font-size="12" text-anchor="middle" font-family="Helvetica, Arial, sans-serif" font-weight="normal">1</text>
<line x1="201.43" y1="490.00" x2="201.43" y2="496.00" stroke="#333" stroke-width="1.5"/>
<text x="201.43" y="514.00" font-size="12" text-anchor="middle" font-family="Helvetica, Arial, sans-serif" font-weight="normal">2</text>
<line x1="424.29" y1="490.00" x2="424.29" y2="496.00" stroke="#333" stroke-width="1.5"/>
<text x="424.29" y="514.00" font-size="12" text-anchor="middle" font-family="Helvetica, Arial, sans-serif" font-weight="normal">4</text>
<line x1="870.00" y1="490.00" x2="870.00" y2="496.00" stroke="#333" stroke-width="1.5"/>
<text x="870.00" y="514.00" font-size="12" text-anchor="middle" font-family="Helvetica, Arial, sans-serif" font-weight="normal">8</text>
<polyline fill="none" stroke="#1f77b4" stroke-width="2.5" points="90.00,354.48 201.43,179.12 424.29,167.06 870.00,105.99"/>
<line x1="90.00" y1="357.56" x2="90.00" y2="351.40" stroke="#1f77b4" stroke-width="1.5"/>
<line x1="85.00" y1="357.56" x2="95.00" y2="357.56" stroke="#1f77b4" stroke-width="1.5"/>
<line x1="85.00" y1="351.40" x2="95.00" y2="351.40" stroke="#1f77b4" stroke-width="1.5"/>
<circle cx="90.00" cy="354.48" r="4" fill="#1f77b4"/>
<line x1="201.43" y1="191.45" x2="201.43" y2="166.80" stroke="#1f77b4" stroke-width="1.5"/>
<line x1="196.43" y1="191.45" x2="206.43" y2="191.45" stroke="#1f77b4" stroke-width="1.5"/>
<line x1="196.43" y1="166.80" x2="206.43" y2="166.80" stroke="#1f77b4" stroke-width="1.5"/>
<circle cx="201.43" cy="179.12" r="4" fill="#1f77b4"/>
<line x1="424.29" y1="178.82" x2="424.29" y2="155.29" stroke="#1f77b4" stroke-width="1.5"/>
<line x1="419.29" y1="178.82" x2="429.29" y2="178.82" stroke="#1f77b4" stroke-width="1.5"/>
<line x1="419.29" y1="155.29" x2="429.29" y2="155.29" stroke="#1f77b4" stroke-width="1.5"/>
<circle cx="424.29" cy="167.06" r="4" fill="#1f77b4"/>
<line x1="870.00" y1="112.88" x2="870.00" y2="99.09" stroke="#1f77b4" stroke-width="1.5"/>
<line x1="865.00" y1="112.88" x2="875.00" y2="112.88" stroke="#1f77b4" stroke-width="1.5"/>
<line x1="865.00" y1="99.09" x2="875.00" y2="99.09" stroke="#1f77b4" stroke-width="1.5"/>
<circle cx="870.00" cy="105.99" r="4" fill="#1f77b4"/>
<line x1="720.00" y1="70.00" x2="738.00" y2="70.00" stroke="#1f77b4" stroke-width="2.5"/>
<circle cx="729.00" cy="70.00" r="3.5" fill="#1f77b4"/>
<text x="748.00" y="74.00" font-size="12" text-anchor="start" font-family="Helvetica, Arial, sans-serif" font-weight="normal">slow</text>
<polyline fill="none" stroke="#d62728" stroke-width="2.5" points="90.00,454.64 201.43,319.95 424.29,292.34 870.00,296.47"/>
<line x1="90.00" y1="457.64" x2="90.00" y2="451.63" stroke="#d62728" stroke-width="1.5"/>
<line x1="85.00" y1="457.64" x2="95.00" y2="457.64" stroke="#d62728" stroke-width="1.5"/>
<line x1="85.00" y1="451.63" x2="95.00" y2="451.63" stroke="#d62728" stroke-width="1.5"/>
<circle cx="90.00" cy="454.64" r="4" fill="#d62728"/>
<line x1="201.43" y1="334.01" x2="201.43" y2="305.88" stroke="#d62728" stroke-width="1.5"/>
<line x1="196.43" y1="334.01" x2="206.43" y2="334.01" stroke="#d62728" stroke-width="1.5"/>
<line x1="196.43" y1="305.88" x2="206.43" y2="305.88" stroke="#d62728" stroke-width="1.5"/>
<circle cx="201.43" cy="319.95" r="4" fill="#d62728"/>
<line x1="424.29" y1="298.88" x2="424.29" y2="285.81" stroke="#d62728" stroke-width="1.5"/>
<line x1="419.29" y1="298.88" x2="429.29" y2="298.88" stroke="#d62728" stroke-width="1.5"/>
<line x1="419.29" y1="285.81" x2="429.29" y2="285.81" stroke="#d62728" stroke-width="1.5"/>
<circle cx="424.29" cy="292.34" r="4" fill="#d62728"/>
<line x1="870.00" y1="298.92" x2="870.00" y2="294.02" stroke="#d62728" stroke-width="1.5"/>
<line x1="865.00" y1="298.92" x2="875.00" y2="298.92" stroke="#d62728" stroke-width="1.5"/>
<line x1="865.00" y1="294.02" x2="875.00" y2="294.02" stroke="#d62728" stroke-width="1.5"/>
<circle cx="870.00" cy="296.47" r="4" fill="#d62728"/>
<line x1="720.00" y1="92.00" x2="738.00" y2="92.00" stroke="#d62728" stroke-width="2.5"/>
<circle cx="729.00" cy="92.00" r="3.5" fill="#d62728"/>
<text x="748.00" y="96.00" font-size="12" text-anchor="start" font-family="Helvetica, Arial, sans-serif" font-weight="normal">medium</text>
<polyline fill="none" stroke="#2ca02c" stroke-width="2.5" points="90.00,490.00 201.43,489.99 424.29,489.98 870.00,489.95"/>
<line x1="90.00" y1="490.00" x2="90.00" y2="490.00" stroke="#2ca02c" stroke-width="1.5"/>
<line x1="85.00" y1="490.00" x2="95.00" y2="490.00" stroke="#2ca02c" stroke-width="1.5"/>
<line x1="85.00" y1="490.00" x2="95.00" y2="490.00" stroke="#2ca02c" stroke-width="1.5"/>
<circle cx="90.00" cy="490.00" r="4" fill="#2ca02c"/>
<line x1="201.43" y1="489.99" x2="201.43" y2="489.98" stroke="#2ca02c" stroke-width="1.5"/>
<line x1="196.43" y1="489.99" x2="206.43" y2="489.99" stroke="#2ca02c" stroke-width="1.5"/>
<line x1="196.43" y1="489.98" x2="206.43" y2="489.98" stroke="#2ca02c" stroke-width="1.5"/>
<circle cx="201.43" cy="489.99" r="4" fill="#2ca02c"/>
<line x1="424.29" y1="489.98" x2="424.29" y2="489.97" stroke="#2ca02c" stroke-width="1.5"/>
<line x1="419.29" y1="489.98" x2="429.29" y2="489.98" stroke="#2ca02c" stroke-width="1.5"/>
<line x1="419.29" y1="489.97" x2="429.29" y2="489.97" stroke="#2ca02c" stroke-width="1.5"/>
<circle cx="424.29" cy="489.98" r="4" fill="#2ca02c"/>
<line x1="870.00" y1="489.99" x2="870.00" y2="489.92" stroke="#2ca02c" stroke-width="1.5"/>
<line x1="865.00" y1="489.99" x2="875.00" y2="489.99" stroke="#2ca02c" stroke-width="1.5"/>
<line x1="865.00" y1="489.92" x2="875.00" y2="489.92" stroke="#2ca02c" stroke-width="1.5"/>
<circle cx="870.00" cy="489.95" r="4" fill="#2ca02c"/>
<line x1="720.00" y1="114.00" x2="738.00" y2="114.00" stroke="#2ca02c" stroke-width="2.5"/>
<circle cx="729.00" cy="114.00" r="3.5" fill="#2ca02c"/>
<text x="748.00" y="118.00" font-size="12" text-anchor="start" font-family="Helvetica, Arial, sans-serif" font-weight="normal">fast</text>
</svg>