<svg xmlns="http://www.w3.org/2000/svg" width="900" height="560" viewBox="0 0 900 560">
<rect width="100%" height="100%" fill="white"/>
<text x="450.00" y="28.00" font-size="20" text-anchor="middle" font-family="Helvetica, Arial, sans-serif" font-weight="bold">Laufzeit vs. Threads (-fopenmp -O3)</text>
<line x1="90.00" y1="60.00" x2="90.00" y2="490.00" stroke="#333" stroke-width="1.5"/>
<line x1="90.00" y1="490.00" x2="870.00" y2="490.00" stroke="#333" stroke-width="1.5"/>
<text x="450.00" y="542.00" font-size="15" text-anchor="middle" font-family="Helvetica, Arial, sans-serif" font-weight="normal">Threads</text>
<text x="24" y="275.00" font-size="15" font-family="Helvetica, Arial, sans-serif" transform="rotate(-90 24 275.00)">Zeit [s]</text>
<line x1="90.00" y1="490.00" x2="870.00" y2="490.00" stroke="#d9d9d9" stroke-width="1" stroke-dasharray="4 4"/>
<text x="80.00" y="495.00" font-size="11" text-anchor="end" font-family="Helvetica, Arial, sans-serif" font-weight="normal">0.000</text>
<line x1="90.00" y1="418.33" x2="870.00" y2="418.33" stroke="#d9d9d9" stroke-width="1" stroke-dasharray="4 4"/>
<text x="80.00" y="423.33" font-size="11" text-anchor="end" font-family="Helvetica, Arial, sans-serif" font-weight="normal">0.742</text>
<line x1="90.00" y1="346.67" x2="870.00" y2="346.67" stroke="#d9d9d9" stroke-width="1" stroke-dasharray="4 4"/>
<text x="80.00" y="351.67" font-size="11" text-anchor="end" font-family="Helvetica, Arial, sans-serif" font-weight="normal">1.483</text>
<line x1="90.00" y1="275.00" x2="870.00" y2="275.00" stroke="#d9d9d9" stroke-width="1" stroke-dasharray="4 4"/>
<text x="80.00" y="280.00" font-size="11" text-anchor="end" font-family="Helvetica, Arial, sans-serif" font-weight="normal">2.225</text>
<line x1="90.00" y1="203.33" x2="870.00" y2="203.33" stroke="#d9d9d9" stroke-width="1" stroke-dasharray="4 4"/>
<text x="80.00" y="208.33" font-size="11" text-anchor="end" font-family="Helvetica, Arial, sans-serif" font-weight="normal">2.967</text>
<line x1="90.00" y1="131.67" x2="870.00" y2="131.67" stroke="#d9d9d9" stroke-width="1" stroke-dasharray="4 4"/>
<text x="80.00" y="136.67" font-size="11" text-anchor="end" font-family="Helvetica, Arial, sans-serif" font-weight="normal">3.708</text>
<line x1="90.00" y1="60.00" x2="870.00" y2="60.00" stroke="#d9d9d9" stroke-width="1" stroke-dasharray="4 4"/>
<text x="80.00" y="65.00" font-size="11" text-anchor="end" font-family="Helvetica, Arial, sans-serif" font-weight="normal">4.450</text>
<line x1="90.00" y1="490.00" x2="90.00" y2="496.00" stroke="#333" stroke-width="1.5"/>
<text x="90.00" y="514.00" font-size="12" text-anchor="middle" font-family="Helvetica, Arial, sans-serif" font-weight="normal">1</text>
<line x1="201.43" y1="490.00" x2="201.43" y2="496.00" stroke="#333" stroke-width="1.5"/>
<text x="201.43" y="514.00" font-size="12" text-anchor="middle" font-family="Helvetica, Arial, sans-serif" font-weight="normal">2</text>
<line x1="424.29" y1="490.00" x2="424.29" y2="496.00" stroke="#333" stroke-width="1.5"/>
<text x="424.29" y="514.00" font-size="12" text-anchor="middle" font-family="Helvetica, Arial, sans-serif" font-weight="normal">4</text>
<line x1="870.00" y1="490.00" x2="870.00" y2="496.00" stroke="#333" stroke-width="1.5"/>
<text x="870.00" y="514.00" font-size="12" text-anchor="middle" font-family="Helvetica, Arial, sans-serif" font-weight="normal">8</text>
<polyline fill="none" stroke="#1f77b4" stroke-width="2.5" points="90.00,354.91 201.43,181.72 424.29,161.44 870.00,106.16"/>
<line x1="90.00" y1="357.45" x2="90.00" y2="352.37" stroke="#1f77b4" stroke-width="1.5"/>
<line x1="85.00" y1="357.45" x2="95.00" y2="357.45" stroke="#1f77b4" stroke-width="1.5"/>
<line x1="85.00" y1="352.37" x2="95.00" y2="352.37" stroke="#1f77b4" stroke-width="1.5"/>
<circle cx="90.00" cy="354.91" r="4" fill="#1f77b4"/>
<line x1="201.43" y1="195.24" x2="201.43" y2="168.19" stroke="#1f77b4" stroke-width="1.5"/>
<line x1="196.43" y1="195.24" x2="206.43" y2="195.24" stroke="#1f77b4" stroke-width="1.5"/>
<line x1="196.43" y1="168.19" x2="206.43" y2="168.19" stroke="#1f77b4" stroke-width="1.5"/>
<circle cx="201.43" cy="181.72" r="4" fill="#1f77b4"/>
<line x1="424.29" y1="175.30" x2="424.29" y2="147.58" stroke="#1f77b4" stroke-width="1.5"/>
<line x1="419.29" y1="175.30" x2="429.29" y2="175.30" stroke="#1f77b4" stroke-width="1.5"/>
<line x1="419.29" y1="147.58" x2="429.29" y2="147.58" stroke="#1f77b4" stroke-width="1.5"/>
<circle cx="424.29" cy="161.44" r="4" fill="#1f77b4"/>
<line x1="870.00" y1="113.23" x2="870.00" y2="99.09" stroke="#1f77b4" stroke-width="1.5"/>
<line x1="865.00" y1="113.23" x2="875.00" y2="113.23" stroke="#1f77b4" stroke-width="1.5"/>
<line x1="865.00" y1="99.09" x2="875.00" y2="99.09" stroke="#1f77b4" stroke-width="1.5"/>
<circle cx="870.00" cy="106.16" r="4" fill="#1f77b4"/>
<line x1="720.00" y1="70.00" x2="738.00" y2="70.00" stroke="#1f77b4" stroke-width="2.5"/>
<circle cx="729.00" cy="70.00" r="3.5" fill="#1f77b4"/>
<text x="748.00" y="74.00" font-size="12" text-anchor="start" font-family="Helvetica, Arial, sans-serif" font-weight="normal">slow</text>
<polyline fill="none" stroke="#d62728" stroke-width="2.5" points="90.00,455.13 201.43,324.81 424.29,292.48 870.00,299.27"/>
<line x1="90.00" y1="456.35" x2="90.00" y2="453.90" stroke="#d62728" stroke-width="1.5"/>
<line x1="85.00" y1="456.35" x2="95.00" y2="456.35" stroke="#d62728" stroke-width="1.5"/>
<line x1="85.00" y1="453.90" x2="95.00" y2="453.90" stroke="#d62728" stroke-width="1.5"/>
<circle cx="90.00" cy="455.13" r="4" fill="#d62728"/>
<line x1="201.43" y1="336.80" x2="201.43" y2="312.82" stroke="#d62728" stroke-width="1.5"/>
<line x1="196.43" y1="336.80" x2="206.43" y2="336.80" stroke="#d62728" stroke-width="1.5"/>
<line x1="196.43" y1="312.82" x2="206.43" y2="312.82" stroke="#d62728" stroke-width="1.5"/>
<circle cx="201.43" cy="324.81" r="4" fill="#d62728"/>
<line x1="424.29" y1="295.82" x2="424.29" y2="289.15" stroke="#d62728" stroke-width="1.5"/>
<line x1="419.29" y1="295.82" x2="429.29" y2="295.82" stroke="#d62728" stroke-width="1.5"/>
<line x1="419.29" y1="289.15" x2="429.29" y2="289.15" stroke="#d62728" stroke-width="1.5"/>
<circle cx="424.29" cy="292.48" r="4" fill="#d62728"/>
<line x1="870.00" y1="306.33" x2="870.00" y2="292.21" stroke="#d62728" stroke-width="1.5"/>
<line x1="865.00" y1="306.33" x2="875.00" y2="306.33" stroke="#d62728" stroke-width="1.5"/>
<line x1="865.00" y1="292.21" x2="875.00" y2="292.21" stroke="#d62728" stroke-width="1.5"/>
<circle cx="870.00" cy="299.27" r="4" fill="#d62728"/>
<line x1="720.00" y1="92.00" x2="738.00" y2="92.00" stroke="#d62728" stroke-width="2.5"/>
<circle cx="729.00" cy="92.00" r="3.5" fill="#d62728"/>
<text x="748.00" y="96.00" font-size="12" text-anchor="start" font-family="Helvetica, Arial, sans-serif" font-weight="normal">medium</text>
<polyline fill="none" stroke="#2ca02c" stroke-width="2.5" points="90.00,490.00 201.43,489.99 424.29,489.98 870.00,489.97"/>
<line x1="90.00" y1="490.00" x2="90.00" y2="490.00" stroke="#2ca02c" stroke-width="1.5"/>
<line x1="85.00" y1="490.00" x2="95.00" y2="490.00" stroke="#2ca02c" stroke-width="1.5"/>
<line x1="85.00" y1="490.00" x2="95.00" y2="490.00" stroke="#2ca02c" stroke-width="1.5"/>
<circle cx="90.00" cy="490.00" r="4" fill="#2ca02c"/>
<line x1="201.43" y1="489.99" x2="201.43" y2="489.98" stroke="#2ca02c" stroke-width="1.5"/>
<line x1="196.43" y1="489.99" x2="206.43" y2="489.99" stroke="#2ca02c" stroke-width="1.5"/>
<line x1="196.43" y1="489.98" x2="206.43" y2="489.98" stroke="#2ca02c" stroke-width="1.5"/>
<circle cx="201.43" cy="489.99" r="4" fill="#2ca02c"/>
<line x1="424.29" y1="489.98" x2="424.29" y2="489.97" stroke="#2ca02c" stroke-width="1.5"/>
<line x1="419.29" y1="489.98" x2="429.29" y2="489.98" stroke="#2ca02c" stroke-width="1.5"/>
<line x1="419.29" y1="489.97" x2="429.29" y2="489.97" stroke="#2ca02c" stroke-width="1.5"/>
<circle cx="424.29" cy="489.98" r="4" fill="#2ca02c"/>
<line x1="870.00" y1="489.98" x2="870.00" y2="489.95" stroke="#2ca02c" stroke-width="1.5"/>
<line x1="865.00" y1="489.98" x2="875.00" y2="489.98" stroke="#2ca02c" stroke-width="1.5"/>
<line x1="865.00" y1="489.95" x2="875.00" y2="489.95" stroke="#2ca02c" stroke-width="1.5"/>
<circle cx="870.00" cy="489.97" r="4" fill="#2ca02c"/>
<line x1="720.00" y1="114.00" x2="738.00" y2="114.00" stroke="#2ca02c" stroke-width="2.5"/>
<circle cx="729.00" cy="114.00" r="3.5" fill="#2ca02c"/>
<text x="748.00" y="118.00" font-size="12" text-anchor="start" font-family="Helvetica, Arial, sans-serif" font-weight="normal">fast</text>
</svg>