<svg xmlns="http://www.w3.org/2000/svg" width="900" height="560" viewBox="0 0 900 560">
<rect width="100%" height="100%" fill="white"/>
<text x="450.00" y="28.00" font-size="20" text-anchor="middle" font-family="Helvetica, Arial, sans-serif" font-weight="bold">Laufzeit vs. Threads (-fopenmp -O1)</text>
<line x1="90.00" y1="60.00" x2="90.00" y2="490.00" stroke="#333" stroke-width="1.5"/>
<line x1="90.00" y1="490.00" x2="870.00" y2="490.00" stroke="#333" stroke-width="1.5"/>
<text x="450.00" y="542.00" font-size="15" text-anchor="middle" font-family="Helvetica, Arial, sans-serif" font-weight="normal">Threads</text>
<text x="24" y="275.00" font-size="15" font-family="Helvetica, Arial, sans-serif" transform="rotate(-90 24 275.00)">Zeit [s]</text>
<line x1="90.00" y1="490.00" x2="870.00" y2="490.00" stroke="#d9d9d9" stroke-width="1" stroke-dasharray="4 4"/>
<text x="80.00" y="495.00" font-size="11" text-anchor="end" font-family="Helvetica, Arial, sans-serif" font-weight="normal">0.000</text>
<line x1="90.00" y1="418.33" x2="870.00" y2="418.33" stroke="#d9d9d9" stroke-width="1" stroke-dasharray="4 4"/>
<text x="80.00" y="423.33" font-size="11" text-anchor="end" font-family="Helvetica, Arial, sans-serif" font-weight="normal">0.746</text>
<line x1="90.00" y1="346.67" x2="870.00" y2="346.67" stroke="#d9d9d9" stroke-width="1" stroke-dasharray="4 4"/>
<text x="80.00" y="351.67" font-size="11" text-anchor="end" font-family="Helvetica, Arial, sans-serif" font-weight="normal">1.492</text>
<line x1="90.00" y1="275.00" x2="870.00" y2="275.00" stroke="#d9d9d9" stroke-width="1" stroke-dasharray="4 4"/>
<text x="80.00" y="280.00" font-size="11" text-anchor="end" font-family="Helvetica, Arial, sans-serif" font-weight="normal">2.238</text>
<line x1="90.00" y1="203.33" x2="870.00" y2="203.33" stroke="#d9d9d9" stroke-width="1" stroke-dasharray="4 4"/>
<text x="80.00" y="208.33" font-size="11" text-anchor="end" font-family="Helvetica, Arial, sans-serif" font-weight="normal">2.984</text>
<line x1="90.00" y1="131.67" x2="870.00" y2="131.67" stroke="#d9d9d9" stroke-width="1" stroke-dasharray="4 4"/>
<text x="80.00" y="136.67" font-size="11" text-anchor="end" font-family="Helvetica, Arial, sans-serif" font-weight="normal">3.730</text>
<line x1="90.00" y1="60.00" x2="870.00" y2="60.00" stroke="#d9d9d9" stroke-width="1" stroke-dasharray="4 4"/>
<text x="80.00" y="65.00" font-size="11" text-anchor="end" font-family="Helvetica, Arial, sans-serif" font-weight="normal">4.476</text>
<line x1="90.00" y1="490.00" x2="90.00" y2="496.00" stroke="#333" stroke-width="1.5"/>
<text x="90.00" y="514.00" font-size="12" text-anchor="middle" font-family="Helvetica, Arial, sans-serif" font-weight="normal">1</text>
<line x1="201.43" y1="490.00" x2="201.43" y2="496.00" stroke="#333" stroke-width="1.5"/>
<text x="201.43" y="514.00" font-size="12" text-anchor="middle" font-family="Helvetica, Arial, sans-serif" font-weight="normal">2</text>
<line x1="424.29" y1="490.00" x2="424.29" y2="496.00" stroke="#333" stroke-width="1.5"/>
<text x="424.29" y="514.00" font-size="12" text-anchor="middle" font-family="Helvetica, Arial, sans-serif" font-weight="normal">4</text>
<line x1="870.00" y1="490.00" x2="870.00" y2="496.00" stroke="#333" stroke-width="1.5"/>
<text x="870.00" y="514.00" font-size="12" text-anchor="middle" font-family="Helvetica, Arial, sans-serif" font-weight="normal">8</text>
<polyline fill="none" stroke="#1f77b4" stroke-width="2.5" points="90.00,351.68 201.43,185.21 424.29,162.27 870.00,106.70"/>
<line x1="90.00" y1="354.11" x2="90.00" y2="349.24" stroke="#1f77b4" stroke-width="1.5"/>
<line x1="85.00" y1="354.11" x2="95.00" y2="354.11" stroke="#1f77b4" stroke-width="1.5"/>
<line x1="85.00" y1="349.24" x2="95.00" y2="349.24" stroke="#1f77b4" stroke-width="1.5"/>
<circle cx="90.00" cy="351.68" r="4" fill="#1f77b4"/>
<line x1="201.43" y1="193.25" x2="201.43" y2="177.18" stroke="#1f77b4" stroke-width="1.5"/>
<line x1="196.43" y1="193.25" x2="206.43" y2="193.25" stroke="#1f77b4" stroke-width="1.5"/>
<line x1="196.43" y1="177.18" x2="206.43" y2="177.18" stroke="#1f77b4" stroke-width="1.5"/>
<circle cx="201.43" cy="185.21" r="4" fill="#1f77b4"/>
<line x1="424.29" y1="173.30" x2="424.29" y2="151.24" stroke="#1f77b4" stroke-width="1.5"/>
<line x1="419.29" y1="173.30" x2="429.29" y2="173.30" stroke="#1f77b4" stroke-width="1.5"/>
<line x1="419.29" y1="151.24" x2="429.29" y2="151.24" stroke="#1f77b4" stroke-width="1.5"/>
<circle cx="424.29" cy="162.27" r="4" fill="#1f77b4"/>
<line x1="870.00" y1="114.30" x2="870.00" y2="99.09" stroke="#1f77b4" stroke-width="1.5"/>
<line x1="865.00" y1="114.30" x2="875.00" y2="114.30" stroke="#1f77b4" stroke-width="1.5"/>
<line x1="865.00" y1="99.09" x2="875.00" y2="99.09" stroke="#1f77b4" stroke-width="1.5"/>
<circle cx="870.00" cy="106.70" r="4" fill="#1f77b4"/>
<line x1="720.00" y1="70.00" x2="738.00" y2="70.00" stroke="#1f77b4" stroke-width="2.5"/>
<circle cx="729.00" cy="70.00" r="3.5" fill="#1f77b4"/>
<text x="748.00" y="74.00" font-size="12" text-anchor="start" font-family="Helvetica, Arial, sans-serif" font-weight="normal">slow</text>
<polyline fill="none" stroke="#d62728" stroke-width="2.5" points="90.00,454.76 201.43,344.81 424.29,306.11 870.00,306.65"/>
<line x1="90.00" y1="455.24" x2="90.00" y2="454.28" stroke="#d62728" stroke-width="1.5"/>
<line x1="85.00" y1="455.24" x2="95.00" y2="455.24" stroke="#d62728" stroke-width="1.5"/>
<line x1="85.00" y1="454.28" x2="95.00" y2="454.28" stroke="#d62728" stroke-width="1.5"/>
<circle cx="90.00" cy="454.76" r="4" fill="#d62728"/>
<line x1="201.43" y1="358.19" x2="201.43" y2="331.42" stroke="#d62728" stroke-width="1.5"/>
<line x1="196.43" y1="358.19" x2="206.43" y2="358.19" stroke="#d62728" stroke-width="1.5"/>
<line x1="196.43" y1="331.42" x2="206.43" y2="331.42" stroke="#d62728" stroke-width="1.5"/>
<circle cx="201.43" cy="344.81" r="4" fill="#d62728"/>
<line x1="424.29" y1="314.00" x2="424.29" y2="298.22" stroke="#d62728" stroke-width="1.5"/>
<line x1="419.29" y1="314.00" x2="429.29" y2="314.00" stroke="#d62728" stroke-width="1.5"/>
<line x1="419.29" y1="298.22" x2="429.29" y2="298.22" stroke="#d62728" stroke-width="1.5"/>
<circle cx="424.29" cy="306.11" r="4" fill="#d62728"/>
<line x1="870.00" y1="314.71" x2="870.00" y2="298.58" stroke="#d62728" stroke-width="1.5"/>
<line x1="865.00" y1="314.71" x2="875.00" y2="314.71" stroke="#d62728" stroke-width="1.5"/>
<line x1="865.00" y1="298.58" x2="875.00" y2="298.58" stroke="#d62728" stroke-width="1.5"/>
<circle cx="870.00" cy="306.65" r="4" fill="#d62728"/>
<line x1="720.00" y1="92.00" x2="738.00" y2="92.00" stroke="#d62728" stroke-width="2.5"/>
<circle cx="729.00" cy="92.00" r="3.5" fill="#d62728"/>
<text x="748.00" y="96.00" font-size="12" text-anchor="start" font-family="Helvetica, Arial, sans-serif" font-weight="normal">medium</text>
<polyline fill="none" stroke="#2ca02c" stroke-width="2.5" points="90.00,487.73 201.43,488.22 424.29,489.14 870.00,489.30"/>
<line x1="90.00" y1="488.04" x2="90.00" y2="487.42" stroke="#2ca02c" stroke-width="1.5"/>
<line x1="85.00" y1="488.04" x2="95.00" y2="488.04" stroke="#2ca02c" stroke-width="1.5"/>
<line x1="85.00" y1="487.42" x2="95.00" y2="487.42" stroke="#2ca02c" stroke-width="1.5"/>
<circle cx="90.00" cy="487.73" r="4" fill="#2ca02c"/>
<line x1="201.43" y1="490.00" x2="201.43" y2="486.40" stroke="#2ca02c" stroke-width="1.5"/>
<line x1="196.43" y1="490.00" x2="206.43" y2="490.00" stroke="#2ca02c" stroke-width="1.5"/>
<line x1="196.43" y1="486.40" x2="206.43" y2="486.40" stroke="#2ca02c" stroke-width="1.5"/>
<circle cx="201.43" cy="488.22" r="4" fill="#2ca02c"/>
<line x1="424.29" y1="489.37" x2="424.29" y2="488.92" stroke="#2ca02c" stroke-width="1.5"/>
<line x1="419.29" y1="489.37" x2="429.29" y2="489.37" stroke="#2ca02c" stroke-width="1.5"/>
<line x1="419.29" y1="488.92" x2="429.29" y2="488.92" stroke="#2ca02c" stroke-width="1.5"/>
<circle cx="424.29" cy="489.14" r="4" fill="#2ca02c"/>
<line x1="870.00" y1="489.44" x2="870.00" y2="489.16" stroke="#2ca02c" stroke-width="1.5"/>
<line x1="865.00" y1="489.44" x2="875.00" y2="489.44" stroke="#2ca02c" stroke-width="1.5"/>
<line x1="865.00" y1="489.16" x2="875.00" y2="489.16" stroke="#2ca02c" stroke-width="1.5"/>
<circle cx="870.00" cy="489.30" r="4" fill="#2ca02c"/>
<line x1="720.00" y1="114.00" x2="738.00" y2="114.00" stroke="#2ca02c" stroke-width="2.5"/>
<circle cx="729.00" cy="114.00" r="3.5" fill="#2ca02c"/>
<text x="748.00" y="118.00" font-size="12" text-anchor="start" font-family="Helvetica, Arial, sans-serif" font-weight="normal">fast</text>
</svg>