<svg xmlns="http://www.w3.org/2000/svg" width="960" height="770" viewBox="0 0 960 770">
<rect width="100%" height="100%" fill="white"/>
<text x="480.00" y="28.00" font-size="20" text-anchor="middle" font-family="Helvetica, Arial, sans-serif" font-weight="bold">Messstreuung ueber alle Runs (-fopenmp)</text>
<text x="480.00" y="62.00" font-size="16" text-anchor="middle" font-family="Helvetica, Arial, sans-serif" font-weight="bold">slow</text>
<line x1="90.00" y1="70.00" x2="90.00" y2="200.00" stroke="#333" stroke-width="1.5"/>
<line x1="90.00" y1="200.00" x2="930.00" y2="200.00" stroke="#333" stroke-width="1.5"/>
<line x1="90.00" y1="200.00" x2="930.00" y2="200.00" stroke="#d9d9d9" stroke-width="1" stroke-dasharray="4 4"/>
<text x="80.00" y="204.00" font-size="11" text-anchor="end" font-family="Helvetica, Arial, sans-serif" font-weight="normal">1.382</text>
<line x1="90.00" y1="162.50" x2="930.00" y2="162.50" stroke="#d9d9d9" stroke-width="1" stroke-dasharray="4 4"/>
<text x="80.00" y="166.50" font-size="11" text-anchor="end" font-family="Helvetica, Arial, sans-serif" font-weight="normal">2.074</text>
<line x1="90.00" y1="125.00" x2="930.00" y2="125.00" stroke="#d9d9d9" stroke-width="1" stroke-dasharray="4 4"/>
<text x="80.00" y="129.00" font-size="11" text-anchor="end" font-family="Helvetica, Arial, sans-serif" font-weight="normal">2.765</text>
<line x1="90.00" y1="87.50" x2="930.00" y2="87.50" stroke="#d9d9d9" stroke-width="1" stroke-dasharray="4 4"/>
<text x="80.00" y="91.50" font-size="11" text-anchor="end" font-family="Helvetica, Arial, sans-serif" font-weight="normal">3.457</text>
<line x1="90.00" y1="50.00" x2="930.00" y2="50.00" stroke="#d9d9d9" stroke-width="1" stroke-dasharray="4 4"/>
<text x="80.00" y="54.00" font-size="11" text-anchor="end" font-family="Helvetica, Arial, sans-serif" font-weight="normal">4.148</text>
<line x1="90.00" y1="200.00" x2="90.00" y2="192.47" stroke="#555" stroke-width="1.5"/>
<line x1="80.00" y1="200.00" x2="100.00" y2="200.00" stroke="#555" stroke-width="1.5"/>
<line x1="80.00" y1="192.47" x2="100.00" y2="192.47" stroke="#555" stroke-width="1.5"/>
<rect x="68.00" y="193.69" width="44.00" height="4.32" stroke="#1f77b4" fill="#cfe3f6" stroke-width="1.5"/>
<line x1="68.00" y1="196.10" x2="112.00" y2="196.10" stroke="#d62728" stroke-width="2"/>
<text x="90.00" y="224.00" font-size="12" text-anchor="middle" font-family="Helvetica, Arial, sans-serif" font-weight="normal">1</text>
<line x1="370.00" y1="119.42" x2="370.00" y2="94.76" stroke="#555" stroke-width="1.5"/>
<line x1="360.00" y1="119.42" x2="380.00" y2="119.42" stroke="#555" stroke-width="1.5"/>
<line x1="360.00" y1="94.76" x2="380.00" y2="94.76" stroke="#555" stroke-width="1.5"/>
<rect x="348.00" y="105.23" width="44.00" height="7.80" stroke="#1f77b4" fill="#cfe3f6" stroke-width="1.5"/>
<line x1="348.00" y1="107.56" x2="392.00" y2="107.56" stroke="#d62728" stroke-width="2"/>
<text x="370.00" y="224.00" font-size="12" text-anchor="middle" font-family="Helvetica, Arial, sans-serif" font-weight="normal">2</text>
<line x1="650.00" y1="96.77" x2="650.00" y2="75.69" stroke="#555" stroke-width="1.5"/>
<line x1="640.00" y1="96.77" x2="660.00" y2="96.77" stroke="#555" stroke-width="1.5"/>
<line x1="640.00" y1="75.69" x2="660.00" y2="75.69" stroke="#555" stroke-width="1.5"/>
<rect x="628.00" y="86.72" width="44.00" height="4.70" stroke="#1f77b4" fill="#cfe3f6" stroke-width="1.5"/>
<line x1="628.00" y1="89.12" x2="672.00" y2="89.12" stroke="#d62728" stroke-width="2"/>
<text x="650.00" y="224.00" font-size="12" text-anchor="middle" font-family="Helvetica, Arial, sans-serif" font-weight="normal">4</text>
<line x1="930.00" y1="63.08" x2="930.00" y2="50.00" stroke="#555" stroke-width="1.5"/>
<line x1="920.00" y1="63.08" x2="940.00" y2="63.08" stroke="#555" stroke-width="1.5"/>
<line x1="920.00" y1="50.00" x2="940.00" y2="50.00" stroke="#555" stroke-width="1.5"/>
<rect x="908.00" y="56.92" width="44.00" height="3.00" stroke="#1f77b4" fill="#cfe3f6" stroke-width="1.5"/>
<line x1="908.00" y1="58.53" x2="952.00" y2="58.53" stroke="#d62728" stroke-width="2"/>
<text x="930.00" y="224.00" font-size="12" text-anchor="middle" font-family="Helvetica, Arial, sans-serif" font-weight="normal">8</text>
<text x="24.00" y="125.00" font-size="14" text-anchor="middle" font-family="Helvetica, Arial, sans-serif" font-weight="normal">Zeit [s]</text>
<text x="480.00" y="302.00" font-size="16" text-anchor="middle" font-family="Helvetica, Arial, sans-serif" font-weight="bold">medium</text>
<line x1="90.00" y1="310.00" x2="90.00" y2="440.00" stroke="#333" stroke-width="1.5"/>
<line x1="90.00" y1="440.00" x2="930.00" y2="440.00" stroke="#333" stroke-width="1.5"/>
<line x1="90.00" y1="440.00" x2="930.00" y2="440.00" stroke="#d9d9d9" stroke-width="1" stroke-dasharray="4 4"/>
<text x="80.00" y="444.00" font-size="11" text-anchor="end" font-family="Helvetica, Arial, sans-serif" font-weight="normal">0.357</text>
<line x1="90.00" y1="402.50" x2="930.00" y2="402.50" stroke="#d9d9d9" stroke-width="1" stroke-dasharray="4 4"/>
<text x="80.00" y="406.50" font-size="11" text-anchor="end" font-family="Helvetica, Arial, sans-serif" font-weight="normal">0.777</text>
<line x1="90.00" y1="365.00" x2="930.00" y2="365.00" stroke="#d9d9d9" stroke-width="1" stroke-dasharray="4 4"/>
<text x="80.00" y="369.00" font-size="11" text-anchor="end" font-family="Helvetica, Arial, sans-serif" font-weight="normal">1.196</text>
<line x1="90.00" y1="327.50" x2="930.00" y2="327.50" stroke="#d9d9d9" stroke-width="1" stroke-dasharray="4 4"/>
<text x="80.00" y="331.50" font-size="11" text-anchor="end" font-family="Helvetica, Arial, sans-serif" font-weight="normal">1.616</text>
<line x1="90.00" y1="290.00" x2="930.00" y2="290.00" stroke="#d9d9d9" stroke-width="1" stroke-dasharray="4 4"/>
<text x="80.00" y="294.00" font-size="11" text-anchor="end" font-family="Helvetica, Arial, sans-serif" font-weight="normal">2.036</text>
<line x1="90.00" y1="440.00" x2="90.00" y2="438.31" stroke="#555" stroke-width="1.5"/>
<line x1="80.00" y1="440.00" x2="100.00" y2="440.00" stroke="#555" stroke-width="1.5"/>
<line x1="80.00" y1="438.31" x2="100.00" y2="438.31" stroke="#555" stroke-width="1.5"/>
<rect x="68.00" y="438.86" width="44.00" height="0.90" stroke="#1f77b4" fill="#cfe3f6" stroke-width="1.5"/>
<line x1="68.00" y1="439.24" x2="112.00" y2="439.24" stroke="#d62728" stroke-width="2"/>
<text x="90.00" y="464.00" font-size="12" text-anchor="middle" font-family="Helvetica, Arial, sans-serif" font-weight="normal">1</text>
<line x1="370.00" y1="365.50" x2="370.00" y2="316.96" stroke="#555" stroke-width="1.5"/>
<line x1="360.00" y1="365.50" x2="380.00" y2="365.50" stroke="#555" stroke-width="1.5"/>
<line x1="360.00" y1="316.96" x2="380.00" y2="316.96" stroke="#555" stroke-width="1.5"/>
<rect x="348.00" y="325.49" width="44.00" height="19.38" stroke="#1f77b4" fill="#cfe3f6" stroke-width="1.5"/>
<line x1="348.00" y1="333.24" x2="392.00" y2="333.24" stroke="#d62728" stroke-width="2"/>
<text x="370.00" y="464.00" font-size="12" text-anchor="middle" font-family="Helvetica, Arial, sans-serif" font-weight="normal">2</text>
<line x1="650.00" y1="305.81" x2="650.00" y2="290.00" stroke="#555" stroke-width="1.5"/>
<line x1="640.00" y1="305.81" x2="660.00" y2="305.81" stroke="#555" stroke-width="1.5"/>
<line x1="640.00" y1="290.00" x2="660.00" y2="290.00" stroke="#555" stroke-width="1.5"/>
<rect x="628.00" y="296.20" width="44.00" height="7.00" stroke="#1f77b4" fill="#cfe3f6" stroke-width="1.5"/>
<line x1="628.00" y1="298.14" x2="672.00" y2="298.14" stroke="#d62728" stroke-width="2"/>
<text x="650.00" y="464.00" font-size="12" text-anchor="middle" font-family="Helvetica, Arial, sans-serif" font-weight="normal">4</text>
<line x1="930.00" y1="315.45" x2="930.00" y2="302.16" stroke="#555" stroke-width="1.5"/>
<line x1="920.00" y1="315.45" x2="940.00" y2="315.45" stroke="#555" stroke-width="1.5"/>
<line x1="920.00" y1="302.16" x2="940.00" y2="302.16" stroke="#555" stroke-width="1.5"/>
<rect x="908.00" y="307.90" width="44.00" height="3.59" stroke="#1f77b4" fill="#cfe3f6" stroke-width="1.5"/>
<line x1="908.00" y1="309.28" x2="952.00" y2="309.28" stroke="#d62728" stroke-width="2"/>
<text x="930.00" y="464.00" font-size="12" text-anchor="middle" font-family="Helvetica, Arial, sans-serif" font-weight="normal">8</text>
<text x="24.00" y="365.00" font-size="14" text-anchor="middle" font-family="Helvetica, Arial, sans-serif" font-weight="normal">Zeit [s]</text>
<text x="480.00" y="542.00" font-size="16" text-anchor="middle" font-family="Helvetica, Arial, sans-serif" font-weight="bold">fast</text>
<line x1="90.00" y1="550.00" x2="90.00" y2="680.00" stroke="#333" stroke-width="1.5"/>
<line x1="90.00" y1="680.00" x2="930.00" y2="680.00" stroke="#333" stroke-width="1.5"/>
<line x1="90.00" y1="680.00" x2="930.00" y2="680.00" stroke="#d9d9d9" stroke-width="1" stroke-dasharray="4 4"/>
<text x="80.00" y="684.00" font-size="11" text-anchor="end" font-family="Helvetica, Arial, sans-serif" font-weight="normal">0.028</text>
<line x1="90.00" y1="642.50" x2="930.00" y2="642.50" stroke="#d9d9d9" stroke-width="1" stroke-dasharray="4 4"/>
<text x="80.00" y="646.50" font-size="11" text-anchor="end" font-family="Helvetica, Arial, sans-serif" font-weight="normal">0.073</text>
<line x1="90.00" y1="605.00" x2="930.00" y2="605.00" stroke="#d9d9d9" stroke-width="1" stroke-dasharray="4 4"/>
<text x="80.00" y="609.00" font-size="11" text-anchor="end" font-family="Helvetica, Arial, sans-serif" font-weight="normal">0.118</text>
<line x1="90.00" y1="567.50" x2="930.00" y2="567.50" stroke="#d9d9d9" stroke-width="1" stroke-dasharray="4 4"/>
<text x="80.00" y="571.50" font-size="11" text-anchor="end" font-family="Helvetica, Arial, sans-serif" font-weight="normal">0.163</text>
<line x1="90.00" y1="530.00" x2="930.00" y2="530.00" stroke="#d9d9d9" stroke-width="1" stroke-dasharray="4 4"/>
<text x="80.00" y="534.00" font-size="11" text-anchor="end" font-family="Helvetica, Arial, sans-serif" font-weight="normal">0.207</text>
<line x1="90.00" y1="583.65" x2="90.00" y2="530.00" stroke="#555" stroke-width="1.5"/>
<line x1="80.00" y1="583.65" x2="100.00" y2="583.65" stroke="#555" stroke-width="1.5"/>
<line x1="80.00" y1="530.00" x2="100.00" y2="530.00" stroke="#555" stroke-width="1.5"/>
<rect x="68.00" y="577.63" width="44.00" height="4.07" stroke="#1f77b4" fill="#cfe3f6" stroke-width="1.5"/>
<line x1="68.00" y1="580.39" x2="112.00" y2="580.39" stroke="#d62728" stroke-width="2"/>
<text x="90.00" y="704.00" font-size="12" text-anchor="middle" font-family="Helvetica, Arial, sans-serif" font-weight="normal">1</text>
<line x1="370.00" y1="643.65" x2="370.00" y2="638.30" stroke="#555" stroke-width="1.5"/>
<line x1="360.00" y1="643.65" x2="380.00" y2="643.65" stroke="#555" stroke-width="1.5"/>
<line x1="360.00" y1="638.30" x2="380.00" y2="638.30" stroke="#555" stroke-width="1.5"/>
<rect x="348.00" y="640.16" width="44.00" height="2.59" stroke="#1f77b4" fill="#cfe3f6" stroke-width="1.5"/>
<line x1="348.00" y1="642.02" x2="392.00" y2="642.02" stroke="#d62728" stroke-width="2"/>
<text x="370.00" y="704.00" font-size="12" text-anchor="middle" font-family="Helvetica, Arial, sans-serif" font-weight="normal">2</text>
<line x1="650.00" y1="672.65" x2="650.00" y2="662.20" stroke="#555" stroke-width="1.5"/>
<line x1="640.00" y1="672.65" x2="660.00" y2="672.65" stroke="#555" stroke-width="1.5"/>
<line x1="640.00" y1="662.20" x2="660.00" y2="662.20" stroke="#555" stroke-width="1.5"/>
<rect x="628.00" y="665.77" width="44.00" height="4.32" stroke="#1f77b4" fill="#cfe3f6" stroke-width="1.5"/>
<line x1="628.00" y1="668.80" x2="672.00" y2="668.80" stroke="#d62728" stroke-width="2"/>
<text x="650.00" y="704.00" font-size="12" text-anchor="middle" font-family="Helvetica, Arial, sans-serif" font-weight="normal">4</text>
<line x1="930.00" y1="680.00" x2="930.00" y2="671.56" stroke="#555" stroke-width="1.5"/>
<line x1="920.00" y1="680.00" x2="940.00" y2="680.00" stroke="#555" stroke-width="1.5"/>
<line x1="920.00" y1="671.56" x2="940.00" y2="671.56" stroke="#555" stroke-width="1.5"/>
<rect x="908.00" y="672.75" width="44.00" height="5.37" stroke="#1f77b4" fill="#cfe3f6" stroke-width="1.5"/>
<line x1="908.00" y1="676.07" x2="952.00" y2="676.07" stroke="#d62728" stroke-width="2"/>
<text x="930.00" y="704.00" font-size="12" text-anchor="middle" font-family="Helvetica, Arial, sans-serif" font-weight="normal">8</text>
<text x="24.00" y="605.00" font-size="14" text-anchor="middle" font-family="Helvetica, Arial, sans-serif" font-weight="normal">Zeit [s]</text>
<text x="480.00" y="754.00" font-size="15" text-anchor="middle" font-family="Helvetica, Arial, sans-serif" font-weight="normal">Threads</text>
</svg>