<svg xmlns="http://www.w3.org/2000/svg" width="960" height="770" viewBox="0 0 960 770">
<rect width="100%" height="100%" fill="white"/>
<text x="480.00" y="28.00" font-size="20" text-anchor="middle" font-family="Helvetica, Arial, sans-serif" font-weight="bold">Messstreuung ueber alle Runs (-fopenmp -Ofast -march=native)</text>
<text x="480.00" y="62.00" font-size="16" text-anchor="middle" font-family="Helvetica, Arial, sans-serif" font-weight="bold">slow</text>
<line x1="90.00" y1="70.00" x2="90.00" y2="200.00" stroke="#333" stroke-width="1.5"/>
<line x1="90.00" y1="200.00" x2="930.00" y2="200.00" stroke="#333" stroke-width="1.5"/>
<line x1="90.00" y1="200.00" x2="930.00" y2="200.00" stroke="#d9d9d9" stroke-width="1" stroke-dasharray="4 4"/>
<text x="80.00" y="204.00" font-size="11" text-anchor="end" font-family="Helvetica, Arial, sans-serif" font-weight="normal">1.357</text>
<line x1="90.00" y1="162.50" x2="930.00" y2="162.50" stroke="#d9d9d9" stroke-width="1" stroke-dasharray="4 4"/>
<text x="80.00" y="166.50" font-size="11" text-anchor="end" font-family="Helvetica, Arial, sans-serif" font-weight="normal">2.027</text>
<line x1="90.00" y1="125.00" x2="930.00" y2="125.00" stroke="#d9d9d9" stroke-width="1" stroke-dasharray="4 4"/>
<text x="80.00" y="129.00" font-size="11" text-anchor="end" font-family="Helvetica, Arial, sans-serif" font-weight="normal">2.696</text>
<line x1="90.00" y1="87.50" x2="930.00" y2="87.50" stroke="#d9d9d9" stroke-width="1" stroke-dasharray="4 4"/>
<text x="80.00" y="91.50" font-size="11" text-anchor="end" font-family="Helvetica, Arial, sans-serif" font-weight="normal">3.366</text>
<line x1="90.00" y1="50.00" x2="930.00" y2="50.00" stroke="#d9d9d9" stroke-width="1" stroke-dasharray="4 4"/>
<text x="80.00" y="54.00" font-size="11" text-anchor="end" font-family="Helvetica, Arial, sans-serif" font-weight="normal">4.036</text>
<line x1="90.00" y1="200.00" x2="90.00" y2="197.84" stroke="#555" stroke-width="1.5"/>
<line x1="80.00" y1="200.00" x2="100.00" y2="200.00" stroke="#555" stroke-width="1.5"/>
<line x1="80.00" y1="197.84" x2="100.00" y2="197.84" stroke="#555" stroke-width="1.5"/>
<rect x="68.00" y="198.80" width="44.00" height="0.62" stroke="#1f77b4" fill="#cfe3f6" stroke-width="1.5"/>
<line x1="68.00" y1="198.93" x2="112.00" y2="198.93" stroke="#d62728" stroke-width="2"/>
<text x="90.00" y="224.00" font-size="12" text-anchor="middle" font-family="Helvetica, Arial, sans-serif" font-weight="normal">1</text>
<line x1="370.00" y1="101.08" x2="370.00" y2="86.96" stroke="#555" stroke-width="1.5"/>
<line x1="360.00" y1="101.08" x2="380.00" y2="101.08" stroke="#555" stroke-width="1.5"/>
<line x1="360.00" y1="86.96" x2="380.00" y2="86.96" stroke="#555" stroke-width="1.5"/>
<rect x="348.00" y="88.82" width="44.00" height="9.61" stroke="#1f77b4" fill="#cfe3f6" stroke-width="1.5"/>
<line x1="348.00" y1="90.70" x2="392.00" y2="90.70" stroke="#d62728" stroke-width="2"/>
<text x="370.00" y="224.00" font-size="12" text-anchor="middle" font-family="Helvetica, Arial, sans-serif" font-weight="normal">2</text>
<line x1="650.00" y1="99.63" x2="650.00" y2="80.32" stroke="#555" stroke-width="1.5"/>
<line x1="640.00" y1="99.63" x2="660.00" y2="99.63" stroke="#555" stroke-width="1.5"/>
<line x1="640.00" y1="80.32" x2="660.00" y2="80.32" stroke="#555" stroke-width="1.5"/>
<rect x="628.00" y="90.65" width="44.00" height="4.46" stroke="#1f77b4" fill="#cfe3f6" stroke-width="1.5"/>
<line x1="628.00" y1="94.00" x2="672.00" y2="94.00" stroke="#d62728" stroke-width="2"/>
<text x="650.00" y="224.00" font-size="12" text-anchor="middle" font-family="Helvetica, Arial, sans-serif" font-weight="normal">4</text>
<line x1="930.00" y1="57.31" x2="930.00" y2="50.00" stroke="#555" stroke-width="1.5"/>
<line x1="920.00" y1="57.31" x2="940.00" y2="57.31" stroke="#555" stroke-width="1.5"/>
<line x1="920.00" y1="50.00" x2="940.00" y2="50.00" stroke="#555" stroke-width="1.5"/>
<rect x="908.00" y="54.48" width="44.00" height="2.04" stroke="#1f77b4" fill="#cfe3f6" stroke-width="1.5"/>
<line x1="908.00" y1="55.43" x2="952.00" y2="55.43" stroke="#d62728" stroke-width="2"/>
<text x="930.00" y="224.00" font-size="12" text-anchor="middle" font-family="Helvetica, Arial, sans-serif" font-weight="normal">8</text>
<text x="24.00" y="125.00" font-size="14" text-anchor="middle" font-family="Helvetica, Arial, sans-serif" font-weight="normal">Zeit [s]</text>
<text x="480.00" y="302.00" font-size="16" text-anchor="middle" font-family="Helvetica, Arial, sans-serif" font-weight="bold">medium</text>
<line x1="90.00" y1="310.00" x2="90.00" y2="440.00" stroke="#333" stroke-width="1.5"/>
<line x1="90.00" y1="440.00" x2="930.00" y2="440.00" stroke="#333" stroke-width="1.5"/>
<line x1="90.00" y1="440.00" x2="930.00" y2="440.00" stroke="#d9d9d9" stroke-width="1" stroke-dasharray="4 4"/>
<text x="80.00" y="444.00" font-size="11" text-anchor="end" font-family="Helvetica, Arial, sans-serif" font-weight="normal">0.345</text>
<line x1="90.00" y1="402.50" x2="930.00" y2="402.50" stroke="#d9d9d9" stroke-width="1" stroke-dasharray="4 4"/>
<text x="80.00" y="406.50" font-size="11" text-anchor="end" font-family="Helvetica, Arial, sans-serif" font-weight="normal">0.790</text>
<line x1="90.00" y1="365.00" x2="930.00" y2="365.00" stroke="#d9d9d9" stroke-width="1" stroke-dasharray="4 4"/>
<text x="80.00" y="369.00" font-size="11" text-anchor="end" font-family="Helvetica, Arial, sans-serif" font-weight="normal">1.234</text>
<line x1="90.00" y1="327.50" x2="930.00" y2="327.50" stroke="#d9d9d9" stroke-width="1" stroke-dasharray="4 4"/>
<text x="80.00" y="331.50" font-size="11" text-anchor="end" font-family="Helvetica, Arial, sans-serif" font-weight="normal">1.679</text>
<line x1="90.00" y1="290.00" x2="930.00" y2="290.00" stroke="#d9d9d9" stroke-width="1" stroke-dasharray="4 4"/>
<text x="80.00" y="294.00" font-size="11" text-anchor="end" font-family="Helvetica, Arial, sans-serif" font-weight="normal">2.123</text>
<line x1="90.00" y1="440.00" x2="90.00" y2="438.29" stroke="#555" stroke-width="1.5"/>
<line x1="80.00" y1="440.00" x2="100.00" y2="440.00" stroke="#555" stroke-width="1.5"/>
<line x1="80.00" y1="438.29" x2="100.00" y2="438.29" stroke="#555" stroke-width="1.5"/>
<rect x="68.00" y="439.21" width="44.00" height="0.59" stroke="#1f77b4" fill="#cfe3f6" stroke-width="1.5"/>
<line x1="68.00" y1="439.49" x2="112.00" y2="439.49" stroke="#d62728" stroke-width="2"/>
<text x="90.00" y="464.00" font-size="12" text-anchor="middle" font-family="Helvetica, Arial, sans-serif" font-weight="normal">1</text>
<line x1="370.00" y1="329.34" x2="370.00" y2="312.85" stroke="#555" stroke-width="1.5"/>
<line x1="360.00" y1="329.34" x2="380.00" y2="329.34" stroke="#555" stroke-width="1.5"/>
<line x1="360.00" y1="312.85" x2="380.00" y2="312.85" stroke="#555" stroke-width="1.5"/>
<rect x="348.00" y="316.16" width="44.00" height="10.01" stroke="#1f77b4" fill="#cfe3f6" stroke-width="1.5"/>
<line x1="348.00" y1="320.11" x2="392.00" y2="320.11" stroke="#d62728" stroke-width="2"/>
<text x="370.00" y="464.00" font-size="12" text-anchor="middle" font-family="Helvetica, Arial, sans-serif" font-weight="normal">2</text>
<line x1="650.00" y1="298.08" x2="650.00" y2="290.00" stroke="#555" stroke-width="1.5"/>
<line x1="640.00" y1="298.08" x2="660.00" y2="298.08" stroke="#555" stroke-width="1.5"/>
<line x1="640.00" y1="290.00" x2="660.00" y2="290.00" stroke="#555" stroke-width="1.5"/>
<rect x="628.00" y="291.96" width="44.00" height="4.49" stroke="#1f77b4" fill="#cfe3f6" stroke-width="1.5"/>
<line x1="628.00" y1="294.21" x2="672.00" y2="294.21" stroke="#d62728" stroke-width="2"/>
<text x="650.00" y="464.00" font-size="12" text-anchor="middle" font-family="Helvetica, Arial, sans-serif" font-weight="normal">4</text>
<line x1="930.00" y1="313.09" x2="930.00" y2="297.18" stroke="#555" stroke-width="1.5"/>
<line x1="920.00" y1="313.09" x2="940.00" y2="313.09" stroke="#555" stroke-width="1.5"/>
<line x1="920.00" y1="297.18" x2="940.00" y2="297.18" stroke="#555" stroke-width="1.5"/>
<rect x="908.00" y="299.54" width="44.00" height="12.67" stroke="#1f77b4" fill="#cfe3f6" stroke-width="1.5"/>
<line x1="908.00" y1="307.07" x2="952.00" y2="307.07" stroke="#d62728" stroke-width="2"/>
<text x="930.00" y="464.00" font-size="12" text-anchor="middle" font-family="Helvetica, Arial, sans-serif" font-weight="normal">8</text>
<text x="24.00" y="365.00" font-size="14" text-anchor="middle" font-family="Helvetica, Arial, sans-serif" font-weight="normal">Zeit [s]</text>
<text x="480.00" y="542.00" font-size="16" text-anchor="middle" font-family="Helvetica, Arial, sans-serif" font-weight="bold">fast</text>
<line x1="90.00" y1="550.00" x2="90.00" y2="680.00" stroke="#333" stroke-width="1.5"/>
<line x1="90.00" y1="680.00" x2="930.00" y2="680.00" stroke="#333" stroke-width="1.5"/>
<line x1="90.00" y1="680.00" x2="930.00" y2="680.00" stroke="#d9d9d9" stroke-width="1" stroke-dasharray="4 4"/>
<text x="80.00" y="684.00" font-size="11" text-anchor="end" font-family="Helvetica, Arial, sans-serif" font-weight="normal">0.000</text>
<line x1="90.00" y1="642.50" x2="930.00" y2="642.50" stroke="#d9d9d9" stroke-width="1" stroke-dasharray="4 4"/>
<text x="80.00" y="646.50" font-size="11" text-anchor="end" font-family="Helvetica, Arial, sans-serif" font-weight="normal">0.000</text>
<line x1="90.00" y1="605.00" x2="930.00" y2="605.00" stroke="#d9d9d9" stroke-width="1" stroke-dasharray="4 4"/>
<text x="80.00" y="609.00" font-size="11" text-anchor="end" font-family="Helvetica, Arial, sans-serif" font-weight="normal">0.000</text>
<line x1="90.00" y1="567.50" x2="930.00" y2="567.50" stroke="#d9d9d9" stroke-width="1" stroke-dasharray="4 4"/>
<text x="80.00" y="571.50" font-size="11" text-anchor="end" font-family="Helvetica, Arial, sans-serif" font-weight="normal">0.001</text>
<line x1="90.00" y1="530.00" x2="930.00" y2="530.00" stroke="#d9d9d9" stroke-width="1" stroke-dasharray="4 4"/>
<text x="80.00" y="534.00" font-size="11" text-anchor="end" font-family="Helvetica, Arial, sans-serif" font-weight="normal">0.001</text>
<line x1="90.00" y1="680.00" x2="90.00" y2="663.33" stroke="#555" stroke-width="1.5"/>
<line x1="80.00" y1="680.00" x2="100.00" y2="680.00" stroke="#555" stroke-width="1.5"/>
<line x1="80.00" y1="663.33" x2="100.00" y2="663.33" stroke="#555" stroke-width="1.5"/>
<rect x="68.00" y="680.00" width="44.00" height="0.00" stroke="#1f77b4" fill="#cfe3f6" stroke-width="1.5"/>
<line x1="68.00" y1="680.00" x2="112.00" y2="680.00" stroke="#d62728" stroke-width="2"/>
<text x="90.00" y="704.00" font-size="12" text-anchor="middle" font-family="Helvetica, Arial, sans-serif" font-weight="normal">1</text>
<line x1="370.00" y1="663.33" x2="370.00" y2="530.00" stroke="#555" stroke-width="1.5"/>
<line x1="360.00" y1="663.33" x2="380.00" y2="663.33" stroke="#555" stroke-width="1.5"/>
<line x1="360.00" y1="530.00" x2="380.00" y2="530.00" stroke="#555" stroke-width="1.5"/>
<rect x="348.00" y="646.67" width="44.00" height="16.67" stroke="#1f77b4" fill="#cfe3f6" stroke-width="1.5"/>
<line x1="348.00" y1="663.33" x2="392.00" y2="663.33" stroke="#d62728" stroke-width="2"/>
<text x="370.00" y="704.00" font-size="12" text-anchor="middle" font-family="Helvetica, Arial, sans-serif" font-weight="normal">2</text>
<line x1="650.00" y1="646.67" x2="650.00" y2="630.00" stroke="#555" stroke-width="1.5"/>
<line x1="640.00" y1="646.67" x2="660.00" y2="646.67" stroke="#555" stroke-width="1.5"/>
<line x1="640.00" y1="630.00" x2="660.00" y2="630.00" stroke="#555" stroke-width="1.5"/>
<rect x="628.00" y="634.17" width="44.00" height="12.50" stroke="#1f77b4" fill="#cfe3f6" stroke-width="1.5"/>
<line x1="628.00" y1="646.67" x2="672.00" y2="646.67" stroke="#d62728" stroke-width="2"/>
<text x="650.00" y="704.00" font-size="12" text-anchor="middle" font-family="Helvetica, Arial, sans-serif" font-weight="normal">4</text>
<line x1="930.00" y1="646.67" x2="930.00" y2="613.33" stroke="#555" stroke-width="1.5"/>
<line x1="920.00" y1="646.67" x2="940.00" y2="646.67" stroke="#555" stroke-width="1.5"/>
<line x1="920.00" y1="613.33" x2="940.00" y2="613.33" stroke="#555" stroke-width="1.5"/>
<rect x="908.00" y="617.50" width="44.00" height="29.17" stroke="#1f77b4" fill="#cfe3f6" stroke-width="1.5"/>
<line x1="908.00" y1="638.33" x2="952.00" y2="638.33" stroke="#d62728" stroke-width="2"/>
<text x="930.00" y="704.00" font-size="12" text-anchor="middle" font-family="Helvetica, Arial, sans-serif" font-weight="normal">8</text>
<text x="24.00" y="605.00" font-size="14" text-anchor="middle" font-family="Helvetica, Arial, sans-serif" font-weight="normal">Zeit [s]</text>
<text x="480.00" y="754.00" font-size="15" text-anchor="middle" font-family="Helvetica, Arial, sans-serif" font-weight="normal">Threads</text>
</svg>