<svg xmlns="http://www.w3.org/2000/svg" width="960" height="770" viewBox="0 0 960 770">
<rect width="100%" height="100%" fill="white"/>
<text x="480.00" y="28.00" font-size="20" text-anchor="middle" font-family="Helvetica, Arial, sans-serif" font-weight="bold">Messstreuung ueber alle Runs (-fopenmp -O1)</text>
<text x="480.00" y="62.00" font-size="16" text-anchor="middle" font-family="Helvetica, Arial, sans-serif" font-weight="bold">slow</text>
<line x1="90.00" y1="70.00" x2="90.00" y2="200.00" stroke="#333" stroke-width="1.5"/>
<line x1="90.00" y1="200.00" x2="930.00" y2="200.00" stroke="#333" stroke-width="1.5"/>
<line x1="90.00" y1="200.00" x2="930.00" y2="200.00" stroke="#d9d9d9" stroke-width="1" stroke-dasharray="4 4"/>
<text x="80.00" y="204.00" font-size="11" text-anchor="end" font-family="Helvetica, Arial, sans-serif" font-weight="normal">1.416</text>
<line x1="90.00" y1="162.50" x2="930.00" y2="162.50" stroke="#d9d9d9" stroke-width="1" stroke-dasharray="4 4"/>
<text x="80.00" y="166.50" font-size="11" text-anchor="end" font-family="Helvetica, Arial, sans-serif" font-weight="normal">2.104</text>
<line x1="90.00" y1="125.00" x2="930.00" y2="125.00" stroke="#d9d9d9" stroke-width="1" stroke-dasharray="4 4"/>
<text x="80.00" y="129.00" font-size="11" text-anchor="end" font-family="Helvetica, Arial, sans-serif" font-weight="normal">2.792</text>
<line x1="90.00" y1="87.50" x2="930.00" y2="87.50" stroke="#d9d9d9" stroke-width="1" stroke-dasharray="4 4"/>
<text x="80.00" y="91.50" font-size="11" text-anchor="end" font-family="Helvetica, Arial, sans-serif" font-weight="normal">3.481</text>
<line x1="90.00" y1="50.00" x2="930.00" y2="50.00" stroke="#d9d9d9" stroke-width="1" stroke-dasharray="4 4"/>
<text x="80.00" y="54.00" font-size="11" text-anchor="end" font-family="Helvetica, Arial, sans-serif" font-weight="normal">4.169</text>
<line x1="90.00" y1="200.00" x2="90.00" y2="195.35" stroke="#555" stroke-width="1.5"/>
<line x1="80.00" y1="200.00" x2="100.00" y2="200.00" stroke="#555" stroke-width="1.5"/>
<line x1="80.00" y1="195.35" x2="100.00" y2="195.35" stroke="#555" stroke-width="1.5"/>
<rect x="68.00" y="198.47" width="44.00" height="1.17" stroke="#1f77b4" fill="#cfe3f6" stroke-width="1.5"/>
<line x1="68.00" y1="198.99" x2="112.00" y2="198.99" stroke="#d62728" stroke-width="2"/>
<text x="90.00" y="224.00" font-size="12" text-anchor="middle" font-family="Helvetica, Arial, sans-serif" font-weight="normal">1</text>
<line x1="370.00" y1="112.96" x2="370.00" y2="98.69" stroke="#555" stroke-width="1.5"/>
<line x1="360.00" y1="112.96" x2="380.00" y2="112.96" stroke="#555" stroke-width="1.5"/>
<line x1="360.00" y1="98.69" x2="380.00" y2="98.69" stroke="#555" stroke-width="1.5"/>
<rect x="348.00" y="100.91" width="44.00" height="6.41" stroke="#1f77b4" fill="#cfe3f6" stroke-width="1.5"/>
<line x1="348.00" y1="103.53" x2="392.00" y2="103.53" stroke="#d62728" stroke-width="2"/>
<text x="370.00" y="224.00" font-size="12" text-anchor="middle" font-family="Helvetica, Arial, sans-serif" font-weight="normal">2</text>
<line x1="650.00" y1="99.82" x2="650.00" y2="80.99" stroke="#555" stroke-width="1.5"/>
<line x1="640.00" y1="99.82" x2="660.00" y2="99.82" stroke="#555" stroke-width="1.5"/>
<line x1="640.00" y1="80.99" x2="660.00" y2="80.99" stroke="#555" stroke-width="1.5"/>
<rect x="628.00" y="89.10" width="44.00" height="6.52" stroke="#1f77b4" fill="#cfe3f6" stroke-width="1.5"/>
<line x1="628.00" y1="92.92" x2="672.00" y2="92.92" stroke="#d62728" stroke-width="2"/>
<text x="650.00" y="224.00" font-size="12" text-anchor="middle" font-family="Helvetica, Arial, sans-serif" font-weight="normal">4</text>
<line x1="930.00" y1="66.39" x2="930.00" y2="50.00" stroke="#555" stroke-width="1.5"/>
<line x1="920.00" y1="66.39" x2="940.00" y2="66.39" stroke="#555" stroke-width="1.5"/>
<line x1="920.00" y1="50.00" x2="940.00" y2="50.00" stroke="#555" stroke-width="1.5"/>
<rect x="908.00" y="58.80" width="44.00" height="3.42" stroke="#1f77b4" fill="#cfe3f6" stroke-width="1.5"/>
<line x1="908.00" y1="60.05" x2="952.00" y2="60.05" stroke="#d62728" stroke-width="2"/>
<text x="930.00" y="224.00" font-size="12" text-anchor="middle" font-family="Helvetica, Arial, sans-serif" font-weight="normal">8</text>
<text x="24.00" y="125.00" font-size="14" text-anchor="middle" font-family="Helvetica, Arial, sans-serif" font-weight="normal">Zeit [s]</text>
<text x="480.00" y="302.00" font-size="16" text-anchor="middle" font-family="Helvetica, Arial, sans-serif" font-weight="bold">medium</text>
<line x1="90.00" y1="310.00" x2="90.00" y2="440.00" stroke="#333" stroke-width="1.5"/>
<line x1="90.00" y1="440.00" x2="930.00" y2="440.00" stroke="#333" stroke-width="1.5"/>
<line x1="90.00" y1="440.00" x2="930.00" y2="440.00" stroke="#d9d9d9" stroke-width="1" stroke-dasharray="4 4"/>
<text x="80.00" y="444.00" font-size="11" text-anchor="end" font-family="Helvetica, Arial, sans-serif" font-weight="normal">0.360</text>
<line x1="90.00" y1="402.50" x2="930.00" y2="402.50" stroke="#d9d9d9" stroke-width="1" stroke-dasharray="4 4"/>
<text x="80.00" y="406.50" font-size="11" text-anchor="end" font-family="Helvetica, Arial, sans-serif" font-weight="normal">0.782</text>
<line x1="90.00" y1="365.00" x2="930.00" y2="365.00" stroke="#d9d9d9" stroke-width="1" stroke-dasharray="4 4"/>
<text x="80.00" y="369.00" font-size="11" text-anchor="end" font-family="Helvetica, Arial, sans-serif" font-weight="normal">1.205</text>
<line x1="90.00" y1="327.50" x2="930.00" y2="327.50" stroke="#d9d9d9" stroke-width="1" stroke-dasharray="4 4"/>
<text x="80.00" y="331.50" font-size="11" text-anchor="end" font-family="Helvetica, Arial, sans-serif" font-weight="normal">1.627</text>
<line x1="90.00" y1="290.00" x2="930.00" y2="290.00" stroke="#d9d9d9" stroke-width="1" stroke-dasharray="4 4"/>
<text x="80.00" y="294.00" font-size="11" text-anchor="end" font-family="Helvetica, Arial, sans-serif" font-weight="normal">2.050</text>
<line x1="90.00" y1="440.00" x2="90.00" y2="438.74" stroke="#555" stroke-width="1.5"/>
<line x1="80.00" y1="440.00" x2="100.00" y2="440.00" stroke="#555" stroke-width="1.5"/>
<line x1="80.00" y1="438.74" x2="100.00" y2="438.74" stroke="#555" stroke-width="1.5"/>
<rect x="68.00" y="438.99" width="44.00" height="0.80" stroke="#1f77b4" fill="#cfe3f6" stroke-width="1.5"/>
<line x1="68.00" y1="439.48" x2="112.00" y2="439.48" stroke="#d62728" stroke-width="2"/>
<text x="90.00" y="464.00" font-size="12" text-anchor="middle" font-family="Helvetica, Arial, sans-serif" font-weight="normal">1</text>
<line x1="370.00" y1="356.37" x2="370.00" y2="321.02" stroke="#555" stroke-width="1.5"/>
<line x1="360.00" y1="356.37" x2="380.00" y2="356.37" stroke="#555" stroke-width="1.5"/>
<line x1="360.00" y1="321.02" x2="380.00" y2="321.02" stroke="#555" stroke-width="1.5"/>
<rect x="348.00" y="329.59" width="44.00" height="19.13" stroke="#1f77b4" fill="#cfe3f6" stroke-width="1.5"/>
<line x1="348.00" y1="336.16" x2="392.00" y2="336.16" stroke="#d62728" stroke-width="2"/>
<text x="370.00" y="464.00" font-size="12" text-anchor="middle" font-family="Helvetica, Arial, sans-serif" font-weight="normal">2</text>
<line x1="650.00" y1="318.63" x2="650.00" y2="294.35" stroke="#555" stroke-width="1.5"/>
<line x1="640.00" y1="318.63" x2="660.00" y2="318.63" stroke="#555" stroke-width="1.5"/>
<line x1="640.00" y1="294.35" x2="660.00" y2="294.35" stroke="#555" stroke-width="1.5"/>
<rect x="628.00" y="297.27" width="44.00" height="5.71" stroke="#1f77b4" fill="#cfe3f6" stroke-width="1.5"/>
<line x1="628.00" y1="299.99" x2="672.00" y2="299.99" stroke="#d62728" stroke-width="2"/>
<text x="650.00" y="464.00" font-size="12" text-anchor="middle" font-family="Helvetica, Arial, sans-serif" font-weight="normal">4</text>
<line x1="930.00" y1="311.54" x2="930.00" y2="290.00" stroke="#555" stroke-width="1.5"/>
<line x1="920.00" y1="311.54" x2="940.00" y2="311.54" stroke="#555" stroke-width="1.5"/>
<line x1="920.00" y1="290.00" x2="940.00" y2="290.00" stroke="#555" stroke-width="1.5"/>
<rect x="908.00" y="297.65" width="44.00" height="11.85" stroke="#1f77b4" fill="#cfe3f6" stroke-width="1.5"/>
<line x1="908.00" y1="302.70" x2="952.00" y2="302.70" stroke="#d62728" stroke-width="2"/>
<text x="930.00" y="464.00" font-size="12" text-anchor="middle" font-family="Helvetica, Arial, sans-serif" font-weight="normal">8</text>
<text x="24.00" y="365.00" font-size="14" text-anchor="middle" font-family="Helvetica, Arial, sans-serif" font-weight="normal">Zeit [s]</text>
<text x="480.00" y="542.00" font-size="16" text-anchor="middle" font-family="Helvetica, Arial, sans-serif" font-weight="bold">fast</text>
<line x1="90.00" y1="550.00" x2="90.00" y2="680.00" stroke="#333" stroke-width="1.5"/>
<line x1="90.00" y1="680.00" x2="930.00" y2="680.00" stroke="#333" stroke-width="1.5"/>
<line x1="90.00" y1="680.00" x2="930.00" y2="680.00" stroke="#d9d9d9" stroke-width="1" stroke-dasharray="4 4"/>
<text x="80.00" y="684.00" font-size="11" text-anchor="end" font-family="Helvetica, Arial, sans-serif" font-weight="normal">0.006</text>
<line x1="90.00" y1="642.50" x2="930.00" y2="642.50" stroke="#d9d9d9" stroke-width="1" stroke-dasharray="4 4"/>
<text x="80.00" y="646.50" font-size="11" text-anchor="end" font-family="Helvetica, Arial, sans-serif" font-weight="normal">0.022</text>
<line x1="90.00" y1="605.00" x2="930.00" y2="605.00" stroke="#d9d9d9" stroke-width="1" stroke-dasharray="4 4"/>
<text x="80.00" y="609.00" font-size="11" text-anchor="end" font-family="Helvetica, Arial, sans-serif" font-weight="normal">0.039</text>
<line x1="90.00" y1="567.50" x2="930.00" y2="567.50" stroke="#d9d9d9" stroke-width="1" stroke-dasharray="4 4"/>
<text x="80.00" y="571.50" font-size="11" text-anchor="end" font-family="Helvetica, Arial, sans-serif" font-weight="normal">0.055</text>
<line x1="90.00" y1="530.00" x2="930.00" y2="530.00" stroke="#d9d9d9" stroke-width="1" stroke-dasharray="4 4"/>
<text x="80.00" y="534.00" font-size="11" text-anchor="end" font-family="Helvetica, Arial, sans-serif" font-weight="normal">0.072</text>
<line x1="90.00" y1="645.44" x2="90.00" y2="624.43" stroke="#555" stroke-width="1.5"/>
<line x1="80.00" y1="645.44" x2="100.00" y2="645.44" stroke="#555" stroke-width="1.5"/>
<line x1="80.00" y1="624.43" x2="100.00" y2="624.43" stroke="#555" stroke-width="1.5"/>
<rect x="68.00" y="635.67" width="44.00" height="8.25" stroke="#1f77b4" fill="#cfe3f6" stroke-width="1.5"/>
<line x1="68.00" y1="643.06" x2="112.00" y2="643.06" stroke="#d62728" stroke-width="2"/>
<text x="90.00" y="704.00" font-size="12" text-anchor="middle" font-family="Helvetica, Arial, sans-serif" font-weight="normal">1</text>
<line x1="370.00" y1="669.16" x2="370.00" y2="530.00" stroke="#555" stroke-width="1.5"/>
<line x1="360.00" y1="669.16" x2="380.00" y2="669.16" stroke="#555" stroke-width="1.5"/>
<line x1="360.00" y1="530.00" x2="380.00" y2="530.00" stroke="#555" stroke-width="1.5"/>
<rect x="348.00" y="659.44" width="44.00" height="8.53" stroke="#1f77b4" fill="#cfe3f6" stroke-width="1.5"/>
<line x1="348.00" y1="666.11" x2="392.00" y2="666.11" stroke="#d62728" stroke-width="2"/>
<text x="370.00" y="704.00" font-size="12" text-anchor="middle" font-family="Helvetica, Arial, sans-serif" font-weight="normal">2</text>
<line x1="650.00" y1="679.10" x2="650.00" y2="662.61" stroke="#555" stroke-width="1.5"/>
<line x1="640.00" y1="679.10" x2="660.00" y2="679.10" stroke="#555" stroke-width="1.5"/>
<line x1="640.00" y1="662.61" x2="660.00" y2="662.61" stroke="#555" stroke-width="1.5"/>
<rect x="628.00" y="669.21" width="44.00" height="7.57" stroke="#1f77b4" fill="#cfe3f6" stroke-width="1.5"/>
<line x1="628.00" y1="672.77" x2="672.00" y2="672.77" stroke="#d62728" stroke-width="2"/>
<text x="650.00" y="704.00" font-size="12" text-anchor="middle" font-family="Helvetica, Arial, sans-serif" font-weight="normal">4</text>
<line x1="930.00" y1="680.00" x2="930.00" y2="670.51" stroke="#555" stroke-width="1.5"/>
<line x1="920.00" y1="680.00" x2="940.00" y2="680.00" stroke="#555" stroke-width="1.5"/>
<line x1="920.00" y1="670.51" x2="940.00" y2="670.51" stroke="#555" stroke-width="1.5"/>
<rect x="908.00" y="675.20" width="44.00" height="3.11" stroke="#1f77b4" fill="#cfe3f6" stroke-width="1.5"/>
<line x1="908.00" y1="676.95" x2="952.00" y2="676.95" stroke="#d62728" stroke-width="2"/>
<text x="930.00" y="704.00" font-size="12" text-anchor="middle" font-family="Helvetica, Arial, sans-serif" font-weight="normal">8</text>
<text x="24.00" y="605.00" font-size="14" text-anchor="middle" font-family="Helvetica, Arial, sans-serif" font-weight="normal">Zeit [s]</text>
<text x="480.00" y="754.00" font-size="15" text-anchor="middle" font-family="Helvetica, Arial, sans-serif" font-weight="normal">Threads</text>
</svg>