<svg xmlns="http://www.w3.org/2000/svg" width="960" height="770" viewBox="0 0 960 770">
<rect width="100%" height="100%" fill="white"/>
<text x="480.00" y="28.00" font-size="20" text-anchor="middle" font-family="Helvetica, Arial, sans-serif" font-weight="bold">Messstreuung ueber alle Runs (-fopenmp -O3 -march=native)</text>
<text x="480.00" y="62.00" font-size="16" text-anchor="middle" font-family="Helvetica, Arial, sans-serif" font-weight="bold">slow</text>
<line x1="90.00" y1="70.00" x2="90.00" y2="200.00" stroke="#333" stroke-width="1.5"/>
<line x1="90.00" y1="200.00" x2="930.00" y2="200.00" stroke="#333" stroke-width="1.5"/>
<line x1="90.00" y1="200.00" x2="930.00" y2="200.00" stroke="#d9d9d9" stroke-width="1" stroke-dasharray="4 4"/>
<text x="80.00" y="204.00" font-size="11" text-anchor="end" font-family="Helvetica, Arial, sans-serif" font-weight="normal">1.366</text>
<line x1="90.00" y1="162.50" x2="930.00" y2="162.50" stroke="#d9d9d9" stroke-width="1" stroke-dasharray="4 4"/>
<text x="80.00" y="166.50" font-size="11" text-anchor="end" font-family="Helvetica, Arial, sans-serif" font-weight="normal">2.030</text>
<line x1="90.00" y1="125.00" x2="930.00" y2="125.00" stroke="#d9d9d9" stroke-width="1" stroke-dasharray="4 4"/>
<text x="80.00" y="129.00" font-size="11" text-anchor="end" font-family="Helvetica, Arial, sans-serif" font-weight="normal">2.694</text>
<line x1="90.00" y1="87.50" x2="930.00" y2="87.50" stroke="#d9d9d9" stroke-width="1" stroke-dasharray="4 4"/>
<text x="80.00" y="91.50" font-size="11" text-anchor="end" font-family="Helvetica, Arial, sans-serif" font-weight="normal">3.357</text>
<line x1="90.00" y1="50.00" x2="930.00" y2="50.00" stroke="#d9d9d9" stroke-width="1" stroke-dasharray="4 4"/>
<text x="80.00" y="54.00" font-size="11" text-anchor="end" font-family="Helvetica, Arial, sans-serif" font-weight="normal">4.021</text>
<line x1="90.00" y1="200.00" x2="90.00" y2="197.69" stroke="#555" stroke-width="1.5"/>
<line x1="80.00" y1="200.00" x2="100.00" y2="200.00" stroke="#555" stroke-width="1.5"/>
<line x1="80.00" y1="197.69" x2="100.00" y2="197.69" stroke="#555" stroke-width="1.5"/>
<rect x="68.00" y="198.78" width="44.00" height="1.05" stroke="#1f77b4" fill="#cfe3f6" stroke-width="1.5"/>
<line x1="68.00" y1="199.37" x2="112.00" y2="199.37" stroke="#d62728" stroke-width="2"/>
<text x="90.00" y="224.00" font-size="12" text-anchor="middle" font-family="Helvetica, Arial, sans-serif" font-weight="normal">1</text>
<line x1="370.00" y1="102.50" x2="370.00" y2="87.83" stroke="#555" stroke-width="1.5"/>
<line x1="360.00" y1="102.50" x2="380.00" y2="102.50" stroke="#555" stroke-width="1.5"/>
<line x1="360.00" y1="87.83" x2="380.00" y2="87.83" stroke="#555" stroke-width="1.5"/>
<rect x="348.00" y="89.62" width="44.00" height="4.80" stroke="#1f77b4" fill="#cfe3f6" stroke-width="1.5"/>
<line x1="348.00" y1="90.63" x2="392.00" y2="90.63" stroke="#d62728" stroke-width="2"/>
<text x="370.00" y="224.00" font-size="12" text-anchor="middle" font-family="Helvetica, Arial, sans-serif" font-weight="normal">2</text>
<line x1="650.00" y1="97.62" x2="650.00" y2="79.37" stroke="#555" stroke-width="1.5"/>
<line x1="640.00" y1="97.62" x2="660.00" y2="97.62" stroke="#555" stroke-width="1.5"/>
<line x1="640.00" y1="79.37" x2="660.00" y2="79.37" stroke="#555" stroke-width="1.5"/>
<rect x="628.00" y="90.90" width="44.00" height="4.22" stroke="#1f77b4" fill="#cfe3f6" stroke-width="1.5"/>
<line x1="628.00" y1="92.73" x2="672.00" y2="92.73" stroke="#d62728" stroke-width="2"/>
<text x="650.00" y="224.00" font-size="12" text-anchor="middle" font-family="Helvetica, Arial, sans-serif" font-weight="normal">4</text>
<line x1="930.00" y1="57.68" x2="930.00" y2="50.00" stroke="#555" stroke-width="1.5"/>
<line x1="920.00" y1="57.68" x2="940.00" y2="57.68" stroke="#555" stroke-width="1.5"/>
<line x1="920.00" y1="50.00" x2="940.00" y2="50.00" stroke="#555" stroke-width="1.5"/>
<rect x="908.00" y="53.03" width="44.00" height="3.53" stroke="#1f77b4" fill="#cfe3f6" stroke-width="1.5"/>
<line x1="908.00" y1="55.38" x2="952.00" y2="55.38" stroke="#d62728" stroke-width="2"/>
<text x="930.00" y="224.00" font-size="12" text-anchor="middle" font-family="Helvetica, Arial, sans-serif" font-weight="normal">8</text>
<text x="24.00" y="125.00" font-size="14" text-anchor="middle" font-family="Helvetica, Arial, sans-serif" font-weight="normal">Zeit [s]</text>
<text x="480.00" y="302.00" font-size="16" text-anchor="middle" font-family="Helvetica, Arial, sans-serif" font-weight="bold">medium</text>
<line x1="90.00" y1="310.00" x2="90.00" y2="440.00" stroke="#333" stroke-width="1.5"/>
<line x1="90.00" y1="440.00" x2="930.00" y2="440.00" stroke="#333" stroke-width="1.5"/>
<line x1="90.00" y1="440.00" x2="930.00" y2="440.00" stroke="#d9d9d9" stroke-width="1" stroke-dasharray="4 4"/>
<text x="80.00" y="444.00" font-size="11" text-anchor="end" font-family="Helvetica, Arial, sans-serif" font-weight="normal">0.340</text>
<line x1="90.00" y1="402.50" x2="930.00" y2="402.50" stroke="#d9d9d9" stroke-width="1" stroke-dasharray="4 4"/>
<text x="80.00" y="406.50" font-size="11" text-anchor="end" font-family="Helvetica, Arial, sans-serif" font-weight="normal">0.784</text>
<line x1="90.00" y1="365.00" x2="930.00" y2="365.00" stroke="#d9d9d9" stroke-width="1" stroke-dasharray="4 4"/>
<text x="80.00" y="369.00" font-size="11" text-anchor="end" font-family="Helvetica, Arial, sans-serif" font-weight="normal">1.228</text>
<line x1="90.00" y1="327.50" x2="930.00" y2="327.50" stroke="#d9d9d9" stroke-width="1" stroke-dasharray="4 4"/>
<text x="80.00" y="331.50" font-size="11" text-anchor="end" font-family="Helvetica, Arial, sans-serif" font-weight="normal">1.672</text>
<line x1="90.00" y1="290.00" x2="930.00" y2="290.00" stroke="#d9d9d9" stroke-width="1" stroke-dasharray="4 4"/>
<text x="80.00" y="294.00" font-size="11" text-anchor="end" font-family="Helvetica, Arial, sans-serif" font-weight="normal">2.116</text>
<line x1="90.00" y1="440.00" x2="90.00" y2="429.08" stroke="#555" stroke-width="1.5"/>
<line x1="80.00" y1="440.00" x2="100.00" y2="440.00" stroke="#555" stroke-width="1.5"/>
<line x1="80.00" y1="429.08" x2="100.00" y2="429.08" stroke="#555" stroke-width="1.5"/>
<rect x="68.00" y="438.30" width="44.00" height="1.04" stroke="#1f77b4" fill="#cfe3f6" stroke-width="1.5"/>
<line x1="68.00" y1="438.90" x2="112.00" y2="438.90" stroke="#d62728" stroke-width="2"/>
<text x="90.00" y="464.00" font-size="12" text-anchor="middle" font-family="Helvetica, Arial, sans-serif" font-weight="normal">1</text>
<line x1="370.00" y1="354.42" x2="370.00" y2="312.47" stroke="#555" stroke-width="1.5"/>
<line x1="360.00" y1="354.42" x2="380.00" y2="354.42" stroke="#555" stroke-width="1.5"/>
<line x1="360.00" y1="312.47" x2="380.00" y2="312.47" stroke="#555" stroke-width="1.5"/>
<rect x="348.00" y="317.81" width="44.00" height="10.59" stroke="#1f77b4" fill="#cfe3f6" stroke-width="1.5"/>
<line x1="348.00" y1="323.77" x2="392.00" y2="323.77" stroke="#d62728" stroke-width="2"/>
<text x="370.00" y="464.00" font-size="12" text-anchor="middle" font-family="Helvetica, Arial, sans-serif" font-weight="normal">2</text>
<line x1="650.00" y1="298.23" x2="650.00" y2="290.00" stroke="#555" stroke-width="1.5"/>
<line x1="640.00" y1="298.23" x2="660.00" y2="298.23" stroke="#555" stroke-width="1.5"/>
<line x1="640.00" y1="290.00" x2="660.00" y2="290.00" stroke="#555" stroke-width="1.5"/>
<rect x="628.00" y="292.70" width="44.00" height="3.32" stroke="#1f77b4" fill="#cfe3f6" stroke-width="1.5"/>
<line x1="628.00" y1="294.95" x2="672.00" y2="294.95" stroke="#d62728" stroke-width="2"/>
<text x="650.00" y="464.00" font-size="12" text-anchor="middle" font-family="Helvetica, Arial, sans-serif" font-weight="normal">4</text>
<line x1="930.00" y1="302.02" x2="930.00" y2="292.57" stroke="#555" stroke-width="1.5"/>
<line x1="920.00" y1="302.02" x2="940.00" y2="302.02" stroke="#555" stroke-width="1.5"/>
<line x1="920.00" y1="292.57" x2="940.00" y2="292.57" stroke="#555" stroke-width="1.5"/>
<rect x="908.00" y="296.76" width="44.00" height="1.70" stroke="#1f77b4" fill="#cfe3f6" stroke-width="1.5"/>
<line x1="908.00" y1="297.07" x2="952.00" y2="297.07" stroke="#d62728" stroke-width="2"/>
<text x="930.00" y="464.00" font-size="12" text-anchor="middle" font-family="Helvetica, Arial, sans-serif" font-weight="normal">8</text>
<text x="24.00" y="365.00" font-size="14" text-anchor="middle" font-family="Helvetica, Arial, sans-serif" font-weight="normal">Zeit [s]</text>
<text x="480.00" y="542.00" font-size="16" text-anchor="middle" font-family="Helvetica, Arial, sans-serif" font-weight="bold">fast</text>
<line x1="90.00" y1="550.00" x2="90.00" y2="680.00" stroke="#333" stroke-width="1.5"/>
<line x1="90.00" y1="680.00" x2="930.00" y2="680.00" stroke="#333" stroke-width="1.5"/>
<line x1="90.00" y1="680.00" x2="930.00" y2="680.00" stroke="#d9d9d9" stroke-width="1" stroke-dasharray="4 4"/>
<text x="80.00" y="684.00" font-size="11" text-anchor="end" font-family="Helvetica, Arial, sans-serif" font-weight="normal">0.000</text>
<line x1="90.00" y1="642.50" x2="930.00" y2="642.50" stroke="#d9d9d9" stroke-width="1" stroke-dasharray="4 4"/>
<text x="80.00" y="646.50" font-size="11" text-anchor="end" font-family="Helvetica, Arial, sans-serif" font-weight="normal">0.000</text>
<line x1="90.00" y1="605.00" x2="930.00" y2="605.00" stroke="#d9d9d9" stroke-width="1" stroke-dasharray="4 4"/>
<text x="80.00" y="609.00" font-size="11" text-anchor="end" font-family="Helvetica, Arial, sans-serif" font-weight="normal">0.000</text>
<line x1="90.00" y1="567.50" x2="930.00" y2="567.50" stroke="#d9d9d9" stroke-width="1" stroke-dasharray="4 4"/>
<text x="80.00" y="571.50" font-size="11" text-anchor="end" font-family="Helvetica, Arial, sans-serif" font-weight="normal">0.000</text>
<line x1="90.00" y1="530.00" x2="930.00" y2="530.00" stroke="#d9d9d9" stroke-width="1" stroke-dasharray="4 4"/>
<text x="80.00" y="534.00" font-size="11" text-anchor="end" font-family="Helvetica, Arial, sans-serif" font-weight="normal">0.000</text>
<line x1="90.00" y1="680.00" x2="90.00" y2="680.00" stroke="#555" stroke-width="1.5"/>
<line x1="80.00" y1="680.00" x2="100.00" y2="680.00" stroke="#555" stroke-width="1.5"/>
<line x1="80.00" y1="680.00" x2="100.00" y2="680.00" stroke="#555" stroke-width="1.5"/>
<rect x="68.00" y="680.00" width="44.00" height="0.00" stroke="#1f77b4" fill="#cfe3f6" stroke-width="1.5"/>
<line x1="68.00" y1="680.00" x2="112.00" y2="680.00" stroke="#d62728" stroke-width="2"/>
<text x="90.00" y="704.00" font-size="12" text-anchor="middle" font-family="Helvetica, Arial, sans-serif" font-weight="normal">1</text>
<line x1="370.00" y1="642.50" x2="370.00" y2="605.00" stroke="#555" stroke-width="1.5"/>
<line x1="360.00" y1="642.50" x2="380.00" y2="642.50" stroke="#555" stroke-width="1.5"/>
<line x1="360.00" y1="605.00" x2="380.00" y2="605.00" stroke="#555" stroke-width="1.5"/>
<rect x="348.00" y="614.38" width="44.00" height="28.12" stroke="#1f77b4" fill="#cfe3f6" stroke-width="1.5"/>
<line x1="348.00" y1="642.50" x2="392.00" y2="642.50" stroke="#d62728" stroke-width="2"/>
<text x="370.00" y="704.00" font-size="12" text-anchor="middle" font-family="Helvetica, Arial, sans-serif" font-weight="normal">2</text>
<line x1="650.00" y1="605.00" x2="650.00" y2="530.00" stroke="#555" stroke-width="1.5"/>
<line x1="640.00" y1="605.00" x2="660.00" y2="605.00" stroke="#555" stroke-width="1.5"/>
<line x1="640.00" y1="530.00" x2="660.00" y2="530.00" stroke="#555" stroke-width="1.5"/>
<rect x="628.00" y="539.38" width="44.00" height="65.62" stroke="#1f77b4" fill="#cfe3f6" stroke-width="1.5"/>
<line x1="628.00" y1="586.25" x2="672.00" y2="586.25" stroke="#d62728" stroke-width="2"/>
<text x="650.00" y="704.00" font-size="12" text-anchor="middle" font-family="Helvetica, Arial, sans-serif" font-weight="normal">4</text>
<line x1="930.00" y1="605.00" x2="930.00" y2="530.00" stroke="#555" stroke-width="1.5"/>
<line x1="920.00" y1="605.00" x2="940.00" y2="605.00" stroke="#555" stroke-width="1.5"/>
<line x1="920.00" y1="530.00" x2="940.00" y2="530.00" stroke="#555" stroke-width="1.5"/>
<rect x="908.00" y="539.38" width="44.00" height="56.25" stroke="#1f77b4" fill="#cfe3f6" stroke-width="1.5"/>
<line x1="908.00" y1="567.50" x2="952.00" y2="567.50" stroke="#d62728" stroke-width="2"/>
<text x="930.00" y="704.00" font-size="12" text-anchor="middle" font-family="Helvetica, Arial, sans-serif" font-weight="normal">8</text>
<text x="24.00" y="605.00" font-size="14" text-anchor="middle" font-family="Helvetica, Arial, sans-serif" font-weight="normal">Zeit [s]</text>
<text x="480.00" y="754.00" font-size="15" text-anchor="middle" font-family="Helvetica, Arial, sans-serif" font-weight="normal">Threads</text>
</svg>