<svg xmlns="http://www.w3.org/2000/svg" width="960" height="770" viewBox="0 0 960 770">
<rect width="100%" height="100%" fill="white"/>
<text x="480.00" y="28.00" font-size="20" text-anchor="middle" font-family="Helvetica, Arial, sans-serif" font-weight="bold">Messstreuung ueber alle Runs (-fopenmp -O2 -march=native)</text>
<text x="480.00" y="62.00" font-size="16" text-anchor="middle" font-family="Helvetica, Arial, sans-serif" font-weight="bold">slow</text>
<line x1="90.00" y1="70.00" x2="90.00" y2="200.00" stroke="#333" stroke-width="1.5"/>
<line x1="90.00" y1="200.00" x2="930.00" y2="200.00" stroke="#333" stroke-width="1.5"/>
<line x1="90.00" y1="200.00" x2="930.00" y2="200.00" stroke="#d9d9d9" stroke-width="1" stroke-dasharray="4 4"/>
<text x="80.00" y="204.00" font-size="11" text-anchor="end" font-family="Helvetica, Arial, sans-serif" font-weight="normal">1.357</text>
<line x1="90.00" y1="162.50" x2="930.00" y2="162.50" stroke="#d9d9d9" stroke-width="1" stroke-dasharray="4 4"/>
<text x="80.00" y="166.50" font-size="11" text-anchor="end" font-family="Helvetica, Arial, sans-serif" font-weight="normal">2.017</text>
<line x1="90.00" y1="125.00" x2="930.00" y2="125.00" stroke="#d9d9d9" stroke-width="1" stroke-dasharray="4 4"/>
<text x="80.00" y="129.00" font-size="11" text-anchor="end" font-family="Helvetica, Arial, sans-serif" font-weight="normal">2.678</text>
<line x1="90.00" y1="87.50" x2="930.00" y2="87.50" stroke="#d9d9d9" stroke-width="1" stroke-dasharray="4 4"/>
<text x="80.00" y="91.50" font-size="11" text-anchor="end" font-family="Helvetica, Arial, sans-serif" font-weight="normal">3.339</text>
<line x1="90.00" y1="50.00" x2="930.00" y2="50.00" stroke="#d9d9d9" stroke-width="1" stroke-dasharray="4 4"/>
<text x="80.00" y="54.00" font-size="11" text-anchor="end" font-family="Helvetica, Arial, sans-serif" font-weight="normal">3.999</text>
<line x1="90.00" y1="200.00" x2="90.00" y2="194.32" stroke="#555" stroke-width="1.5"/>
<line x1="80.00" y1="200.00" x2="100.00" y2="200.00" stroke="#555" stroke-width="1.5"/>
<line x1="80.00" y1="194.32" x2="100.00" y2="194.32" stroke="#555" stroke-width="1.5"/>
<rect x="68.00" y="196.82" width="44.00" height="1.95" stroke="#1f77b4" fill="#cfe3f6" stroke-width="1.5"/>
<line x1="68.00" y1="198.14" x2="112.00" y2="198.14" stroke="#d62728" stroke-width="2"/>
<text x="90.00" y="224.00" font-size="12" text-anchor="middle" font-family="Helvetica, Arial, sans-serif" font-weight="normal">1</text>
<line x1="370.00" y1="99.93" x2="370.00" y2="85.90" stroke="#555" stroke-width="1.5"/>
<line x1="360.00" y1="99.93" x2="380.00" y2="99.93" stroke="#555" stroke-width="1.5"/>
<line x1="360.00" y1="85.90" x2="380.00" y2="85.90" stroke="#555" stroke-width="1.5"/>
<rect x="348.00" y="91.46" width="44.00" height="5.18" stroke="#1f77b4" fill="#cfe3f6" stroke-width="1.5"/>
<line x1="348.00" y1="94.58" x2="392.00" y2="94.58" stroke="#d62728" stroke-width="2"/>
<text x="370.00" y="224.00" font-size="12" text-anchor="middle" font-family="Helvetica, Arial, sans-serif" font-weight="normal">2</text>
<line x1="650.00" y1="96.23" x2="650.00" y2="81.64" stroke="#555" stroke-width="1.5"/>
<line x1="640.00" y1="96.23" x2="660.00" y2="96.23" stroke="#555" stroke-width="1.5"/>
<line x1="640.00" y1="81.64" x2="660.00" y2="81.64" stroke="#555" stroke-width="1.5"/>
<rect x="628.00" y="87.81" width="44.00" height="7.38" stroke="#1f77b4" fill="#cfe3f6" stroke-width="1.5"/>
<line x1="628.00" y1="92.03" x2="672.00" y2="92.03" stroke="#d62728" stroke-width="2"/>
<text x="650.00" y="224.00" font-size="12" text-anchor="middle" font-family="Helvetica, Arial, sans-serif" font-weight="normal">4</text>
<line x1="930.00" y1="57.12" x2="930.00" y2="50.00" stroke="#555" stroke-width="1.5"/>
<line x1="920.00" y1="57.12" x2="940.00" y2="57.12" stroke="#555" stroke-width="1.5"/>
<line x1="920.00" y1="50.00" x2="940.00" y2="50.00" stroke="#555" stroke-width="1.5"/>
<rect x="908.00" y="52.40" width="44.00" height="2.89" stroke="#1f77b4" fill="#cfe3f6" stroke-width="1.5"/>
<line x1="908.00" y1="53.46" x2="952.00" y2="53.46" stroke="#d62728" stroke-width="2"/>
<text x="930.00" y="224.00" font-size="12" text-anchor="middle" font-family="Helvetica, Arial, sans-serif" font-weight="normal">8</text>
<text x="24.00" y="125.00" font-size="14" text-anchor="middle" font-family="Helvetica, Arial, sans-serif" font-weight="normal">Zeit [s]</text>
<text x="480.00" y="302.00" font-size="16" text-anchor="middle" font-family="Helvetica, Arial, sans-serif" font-weight="bold">medium</text>
<line x1="90.00" y1="310.00" x2="90.00" y2="440.00" stroke="#333" stroke-width="1.5"/>
<line x1="90.00" y1="440.00" x2="930.00" y2="440.00" stroke="#333" stroke-width="1.5"/>
<line x1="90.00" y1="440.00" x2="930.00" y2="440.00" stroke="#d9d9d9" stroke-width="1" stroke-dasharray="4 4"/>
<text x="80.00" y="444.00" font-size="11" text-anchor="end" font-family="Helvetica, Arial, sans-serif" font-weight="normal">0.347</text>
<line x1="90.00" y1="402.50" x2="930.00" y2="402.50" stroke="#d9d9d9" stroke-width="1" stroke-dasharray="4 4"/>
<text x="80.00" y="406.50" font-size="11" text-anchor="end" font-family="Helvetica, Arial, sans-serif" font-weight="normal">0.792</text>
<line x1="90.00" y1="365.00" x2="930.00" y2="365.00" stroke="#d9d9d9" stroke-width="1" stroke-dasharray="4 4"/>
<text x="80.00" y="369.00" font-size="11" text-anchor="end" font-family="Helvetica, Arial, sans-serif" font-weight="normal">1.237</text>
<line x1="90.00" y1="327.50" x2="930.00" y2="327.50" stroke="#d9d9d9" stroke-width="1" stroke-dasharray="4 4"/>
<text x="80.00" y="331.50" font-size="11" text-anchor="end" font-family="Helvetica, Arial, sans-serif" font-weight="normal">1.683</text>
<line x1="90.00" y1="290.00" x2="930.00" y2="290.00" stroke="#d9d9d9" stroke-width="1" stroke-dasharray="4 4"/>
<text x="80.00" y="294.00" font-size="11" text-anchor="end" font-family="Helvetica, Arial, sans-serif" font-weight="normal">2.128</text>
<line x1="90.00" y1="440.00" x2="90.00" y2="438.65" stroke="#555" stroke-width="1.5"/>
<line x1="80.00" y1="440.00" x2="100.00" y2="440.00" stroke="#555" stroke-width="1.5"/>
<line x1="80.00" y1="438.65" x2="100.00" y2="438.65" stroke="#555" stroke-width="1.5"/>
<rect x="68.00" y="439.22" width="44.00" height="0.45" stroke="#1f77b4" fill="#cfe3f6" stroke-width="1.5"/>
<line x1="68.00" y1="439.57" x2="112.00" y2="439.57" stroke="#d62728" stroke-width="2"/>
<text x="90.00" y="464.00" font-size="12" text-anchor="middle" font-family="Helvetica, Arial, sans-serif" font-weight="normal">1</text>
<line x1="370.00" y1="337.32" x2="370.00" y2="309.75" stroke="#555" stroke-width="1.5"/>
<line x1="360.00" y1="337.32" x2="380.00" y2="337.32" stroke="#555" stroke-width="1.5"/>
<line x1="360.00" y1="309.75" x2="380.00" y2="309.75" stroke="#555" stroke-width="1.5"/>
<rect x="348.00" y="316.41" width="44.00" height="7.25" stroke="#1f77b4" fill="#cfe3f6" stroke-width="1.5"/>
<line x1="348.00" y1="319.72" x2="392.00" y2="319.72" stroke="#d62728" stroke-width="2"/>
<text x="370.00" y="464.00" font-size="12" text-anchor="middle" font-family="Helvetica, Arial, sans-serif" font-weight="normal">2</text>
<line x1="650.00" y1="302.96" x2="650.00" y2="290.00" stroke="#555" stroke-width="1.5"/>
<line x1="640.00" y1="302.96" x2="660.00" y2="302.96" stroke="#555" stroke-width="1.5"/>
<line x1="640.00" y1="290.00" x2="660.00" y2="290.00" stroke="#555" stroke-width="1.5"/>
<rect x="628.00" y="293.97" width="44.00" height="2.32" stroke="#1f77b4" fill="#cfe3f6" stroke-width="1.5"/>
<line x1="628.00" y1="294.41" x2="672.00" y2="294.41" stroke="#d62728" stroke-width="2"/>
<text x="650.00" y="464.00" font-size="12" text-anchor="middle" font-family="Helvetica, Arial, sans-serif" font-weight="normal">4</text>
<line x1="930.00" y1="312.34" x2="930.00" y2="297.75" stroke="#555" stroke-width="1.5"/>
<line x1="920.00" y1="312.34" x2="940.00" y2="312.34" stroke="#555" stroke-width="1.5"/>
<line x1="920.00" y1="297.75" x2="940.00" y2="297.75" stroke="#555" stroke-width="1.5"/>
<rect x="908.00" y="299.29" width="44.00" height="8.05" stroke="#1f77b4" fill="#cfe3f6" stroke-width="1.5"/>
<line x1="908.00" y1="303.81" x2="952.00" y2="303.81" stroke="#d62728" stroke-width="2"/>
<text x="930.00" y="464.00" font-size="12" text-anchor="middle" font-family="Helvetica, Arial, sans-serif" font-weight="normal">8</text>
<text x="24.00" y="365.00" font-size="14" text-anchor="middle" font-family="Helvetica, Arial, sans-serif" font-weight="normal">Zeit [s]</text>
<text x="480.00" y="542.00" font-size="16" text-anchor="middle" font-family="Helvetica, Arial, sans-serif" font-weight="bold">fast</text>
<line x1="90.00" y1="550.00" x2="90.00" y2="680.00" stroke="#333" stroke-width="1.5"/>
<line x1="90.00" y1="680.00" x2="930.00" y2="680.00" stroke="#333" stroke-width="1.5"/>
<line x1="90.00" y1="680.00" x2="930.00" y2="680.00" stroke="#d9d9d9" stroke-width="1" stroke-dasharray="4 4"/>
<text x="80.00" y="684.00" font-size="11" text-anchor="end" font-family="Helvetica, Arial, sans-serif" font-weight="normal">0.000</text>
<line x1="90.00" y1="642.50" x2="930.00" y2="642.50" stroke="#d9d9d9" stroke-width="1" stroke-dasharray="4 4"/>
<text x="80.00" y="646.50" font-size="11" text-anchor="end" font-family="Helvetica, Arial, sans-serif" font-weight="normal">0.001</text>
<line x1="90.00" y1="605.00" x2="930.00" y2="605.00" stroke="#d9d9d9" stroke-width="1" stroke-dasharray="4 4"/>
<text x="80.00" y="609.00" font-size="11" text-anchor="end" font-family="Helvetica, Arial, sans-serif" font-weight="normal">0.002</text>
<line x1="90.00" y1="567.50" x2="930.00" y2="567.50" stroke="#d9d9d9" stroke-width="1" stroke-dasharray="4 4"/>
<text x="80.00" y="571.50" font-size="11" text-anchor="end" font-family="Helvetica, Arial, sans-serif" font-weight="normal">0.002</text>
<line x1="90.00" y1="530.00" x2="930.00" y2="530.00" stroke="#d9d9d9" stroke-width="1" stroke-dasharray="4 4"/>
<text x="80.00" y="534.00" font-size="11" text-anchor="end" font-family="Helvetica, Arial, sans-serif" font-weight="normal">0.003</text>
<line x1="90.00" y1="680.00" x2="90.00" y2="675.00" stroke="#555" stroke-width="1.5"/>
<line x1="80.00" y1="680.00" x2="100.00" y2="680.00" stroke="#555" stroke-width="1.5"/>
<line x1="80.00" y1="675.00" x2="100.00" y2="675.00" stroke="#555" stroke-width="1.5"/>
<rect x="68.00" y="680.00" width="44.00" height="0.00" stroke="#1f77b4" fill="#cfe3f6" stroke-width="1.5"/>
<line x1="68.00" y1="680.00" x2="112.00" y2="680.00" stroke="#d62728" stroke-width="2"/>
<text x="90.00" y="704.00" font-size="12" text-anchor="middle" font-family="Helvetica, Arial, sans-serif" font-weight="normal">1</text>
<line x1="370.00" y1="675.00" x2="370.00" y2="670.00" stroke="#555" stroke-width="1.5"/>
<line x1="360.00" y1="675.00" x2="380.00" y2="675.00" stroke="#555" stroke-width="1.5"/>
<line x1="360.00" y1="670.00" x2="380.00" y2="670.00" stroke="#555" stroke-width="1.5"/>
<rect x="348.00" y="675.00" width="44.00" height="0.00" stroke="#1f77b4" fill="#cfe3f6" stroke-width="1.5"/>
<line x1="348.00" y1="675.00" x2="392.00" y2="675.00" stroke="#d62728" stroke-width="2"/>
<text x="370.00" y="704.00" font-size="12" text-anchor="middle" font-family="Helvetica, Arial, sans-serif" font-weight="normal">2</text>
<line x1="650.00" y1="670.00" x2="650.00" y2="650.00" stroke="#555" stroke-width="1.5"/>
<line x1="640.00" y1="670.00" x2="660.00" y2="670.00" stroke="#555" stroke-width="1.5"/>
<line x1="640.00" y1="650.00" x2="660.00" y2="650.00" stroke="#555" stroke-width="1.5"/>
<rect x="628.00" y="656.25" width="44.00" height="12.50" stroke="#1f77b4" fill="#cfe3f6" stroke-width="1.5"/>
<line x1="628.00" y1="665.00" x2="672.00" y2="665.00" stroke="#d62728" stroke-width="2"/>
<text x="650.00" y="704.00" font-size="12" text-anchor="middle" font-family="Helvetica, Arial, sans-serif" font-weight="normal">4</text>
<line x1="930.00" y1="670.00" x2="930.00" y2="530.00" stroke="#555" stroke-width="1.5"/>
<line x1="920.00" y1="670.00" x2="940.00" y2="670.00" stroke="#555" stroke-width="1.5"/>
<line x1="920.00" y1="530.00" x2="940.00" y2="530.00" stroke="#555" stroke-width="1.5"/>
<rect x="908.00" y="665.00" width="44.00" height="5.00" stroke="#1f77b4" fill="#cfe3f6" stroke-width="1.5"/>
<line x1="908.00" y1="667.50" x2="952.00" y2="667.50" stroke="#d62728" stroke-width="2"/>
<text x="930.00" y="704.00" font-size="12" text-anchor="middle" font-family="Helvetica, Arial, sans-serif" font-weight="normal">8</text>
<text x="24.00" y="605.00" font-size="14" text-anchor="middle" font-family="Helvetica, Arial, sans-serif" font-weight="normal">Zeit [s]</text>
<text x="480.00" y="754.00" font-size="15" text-anchor="middle" font-family="Helvetica, Arial, sans-serif" font-weight="normal">Threads</text>
</svg>