<svg xmlns="http://www.w3.org/2000/svg" width="1220" height="780" viewBox="0 0 1220 780" role="img">
<rect width="100%" height="100%" fill="#faf8f3"/>
<style>
text { font-family: "Helvetica", "Arial", sans-serif; fill: #1f2937; }
.title { font-size: 22px; font-weight: 700; }
.subtitle { font-size: 12px; fill: #4b5563; }
.axis { stroke: #374151; stroke-width: 1.2; }
.grid { stroke: #d1d5db; stroke-width: 1; stroke-dasharray: 4 4; }
.label { font-size: 12px; }
.tick { font-size: 11px; fill: #4b5563; }
.legend { font-size: 12px; }
</style>
<text class="title" x="90" y="50">Mandelbrot Speedup by Core OpenMP Schedules</text>
<text class="subtitle" x="90" y="72">Gray dashed line shows ideal linear speedup for static, dynamic, guided and auto.</text>
<line class="grid" x1="90.0" y1="620.0" x2="1090.0" y2="620.0"/>
<text class="tick" x="82.0" y="624.0" text-anchor="end">0.00</text>
<line class="grid" x1="90.0" y1="516.0" x2="1090.0" y2="516.0"/>
<text class="tick" x="82.0" y="520.0" text-anchor="end">2.64</text>
<line class="grid" x1="90.0" y1="412.0" x2="1090.0" y2="412.0"/>
<text class="tick" x="82.0" y="416.0" text-anchor="end">5.28</text>
<line class="grid" x1="90.0" y1="308.0" x2="1090.0" y2="308.0"/>
<text class="tick" x="82.0" y="312.0" text-anchor="end">7.92</text>
<line class="grid" x1="90.0" y1="204.0" x2="1090.0" y2="204.0"/>
<text class="tick" x="82.0" y="208.0" text-anchor="end">10.56</text>
<line class="grid" x1="90.0" y1="100.0" x2="1090.0" y2="100.0"/>
<text class="tick" x="82.0" y="104.0" text-anchor="end">13.20</text>
<line class="axis" x1="90.0" y1="620.0" x2="1090.0" y2="620.0"/>
<line class="axis" x1="90.0" y1="100.0" x2="90.0" y2="620.0"/>
<text class="tick" x="90.0" y="644.0" text-anchor="middle">1</text>
<text class="tick" x="423.3" y="644.0" text-anchor="middle">4</text>
<text class="tick" x="756.7" y="644.0" text-anchor="middle">8</text>
<text class="tick" x="1090.0" y="644.0" text-anchor="middle">12</text>
<polyline fill="none" stroke="#9ca3af" stroke-dasharray="8 6" stroke-width="2" points="90.0,580.6 423.3,462.4 756.7,304.8 1090.0,147.3"/>
<circle cx="90.0" cy="580.6" r="4.5" fill="#2563eb"/>
<circle cx="423.3" cy="525.8" r="4.5" fill="#2563eb"/>
<circle cx="756.7" cy="467.2" r="4.5" fill="#2563eb"/>
<circle cx="1090.0" cy="401.4" r="4.5" fill="#2563eb"/>
<polyline fill="none" stroke="#2563eb" stroke-width="3" points="90.0,580.6 423.3,525.8 756.7,467.2 1090.0,401.4"/>
<circle cx="90.0" cy="580.6" r="4.5" fill="#b45309"/>
<circle cx="423.3" cy="463.2" r="4.5" fill="#b45309"/>
<circle cx="756.7" cy="317.9" r="4.5" fill="#b45309"/>
<circle cx="1090.0" cy="167.2" r="4.5" fill="#b45309"/>
<polyline fill="none" stroke="#b45309" stroke-width="3" points="90.0,580.6 423.3,463.2 756.7,317.9 1090.0,167.2"/>
<circle cx="90.0" cy="580.6" r="4.5" fill="#059669"/>
<circle cx="423.3" cy="489.6" r="4.5" fill="#059669"/>
<circle cx="756.7" cy="371.7" r="4.5" fill="#059669"/>
<circle cx="1090.0" cy="247.4" r="4.5" fill="#059669"/>
<polyline fill="none" stroke="#059669" stroke-width="3" points="90.0,580.6 423.3,489.6 756.7,371.7 1090.0,247.4"/>
<circle cx="90.0" cy="580.6" r="4.5" fill="#dc2626"/>
<circle cx="423.3" cy="525.9" r="4.5" fill="#dc2626"/>
<circle cx="756.7" cy="466.6" r="4.5" fill="#dc2626"/>
<circle cx="1090.0" cy="401.8" r="4.5" fill="#dc2626"/>
<polyline fill="none" stroke="#dc2626" stroke-width="3" points="90.0,580.6 423.3,525.9 756.7,466.6 1090.0,401.8"/>
<text class="label" x="590.0" y="734.0" text-anchor="middle">Threads</text>
<text class="label" x="28" y="360.0" transform="rotate(-90 28 360.0)" text-anchor="middle">Speedup vs. same schedule at 1 thread</text>
</svg>