<svg xmlns="http://www.w3.org/2000/svg" width="900" height="640" viewBox="0 0 900 640">
<rect width="100%" height="100%" fill="#fffaf0"/>
<style>
text { font-family: Helvetica, Arial, sans-serif; fill: #1f2937; }
.title { font-size: 24px; font-weight: 700; }
.subtitle { font-size: 12px; fill: #6b7280; }
.axis { stroke: #111827; stroke-width: 1.2; }
.grid { stroke: #d1d5db; stroke-dasharray: 4 4; }
.tick { font-size: 11px; fill: #4b5563; }
</style>
<text class="title" x="120" y="52">Exercise 3 Runtime Comparison</text>
<text class="subtitle" x="120" y="74">Original nested loop versus parity-based parallel execution.</text>
<line class="grid" x1="120" y1="490.0" x2="780" y2="490.0"/>
<text class="tick" x="110" y="494.0" text-anchor="end">0.00</text>
<line class="grid" x1="120" y1="414.0" x2="780" y2="414.0"/>
<text class="tick" x="110" y="418.0" text-anchor="end">0.00</text>
<line class="grid" x1="120" y1="338.0" x2="780" y2="338.0"/>
<text class="tick" x="110" y="342.0" text-anchor="end">0.01</text>
<line class="grid" x1="120" y1="262.0" x2="780" y2="262.0"/>
<text class="tick" x="110" y="266.0" text-anchor="end">0.01</text>
<line class="grid" x1="120" y1="186.0" x2="780" y2="186.0"/>
<text class="tick" x="110" y="190.0" text-anchor="end">0.01</text>
<line class="grid" x1="120" y1="110.0" x2="780" y2="110.0"/>
<text class="tick" x="110" y="114.0" text-anchor="end">0.02</text>
<line class="axis" x1="120" y1="490" x2="780" y2="490"/>
<line class="axis" x1="120" y1="110" x2="120" y2="490"/>
<rect x="220" y="173.3" width="180" height="316.7" fill="#2563eb" opacity="0.88"/>
<text x="310.0" y="514" text-anchor="middle">original</text>
<text x="310.0" y="163.3" text-anchor="middle">0.015s</text>
<rect x="520" y="291.5" width="180" height="198.5" fill="#059669" opacity="0.88"/>
<text x="610.0" y="514" text-anchor="middle">parallel</text>
<text x="610.0" y="281.5" text-anchor="middle">0.010s</text>
<text x="450.0" y="586" text-anchor="middle">Variant</text>
<text x="38" y="300.0" transform="rotate(-90 38 300.0)" text-anchor="middle">Runtime [s]</text>
</svg>