<svg xmlns="http://www.w3.org/2000/svg" width="1100" height="560" viewBox="0 0 1100 560">
<rect width="100%" height="100%" fill="#fffdf8"/>
<text x="550.0" y="30" text-anchor="middle" font-size="22" font-family="Helvetica, Arial, sans-serif">Perf vector event counts</text>
<line x1="90" y1="450.00" x2="1070" y2="450.00" stroke="#d9d9d9" stroke-dasharray="4 4"/>
<text x="80" y="455.00" text-anchor="end" font-size="12" font-family="Helvetica, Arial, sans-serif">0</text>
<line x1="90" y1="372.00" x2="1070" y2="372.00" stroke="#d9d9d9" stroke-dasharray="4 4"/>
<text x="80" y="377.00" text-anchor="end" font-size="12" font-family="Helvetica, Arial, sans-serif">3604821537</text>
<line x1="90" y1="294.00" x2="1070" y2="294.00" stroke="#d9d9d9" stroke-dasharray="4 4"/>
<text x="80" y="299.00" text-anchor="end" font-size="12" font-family="Helvetica, Arial, sans-serif">7209643074</text>
<line x1="90" y1="216.00" x2="1070" y2="216.00" stroke="#d9d9d9" stroke-dasharray="4 4"/>
<text x="80" y="221.00" text-anchor="end" font-size="12" font-family="Helvetica, Arial, sans-serif">10814464610</text>
<line x1="90" y1="138.00" x2="1070" y2="138.00" stroke="#d9d9d9" stroke-dasharray="4 4"/>
<text x="80" y="143.00" text-anchor="end" font-size="12" font-family="Helvetica, Arial, sans-serif">14419286147</text>
<line x1="90" y1="60.00" x2="1070" y2="60.00" stroke="#d9d9d9" stroke-dasharray="4 4"/>
<text x="80" y="65.00" text-anchor="end" font-size="12" font-family="Helvetica, Arial, sans-serif">18024107684</text>
<line x1="90" y1="60" x2="90" y2="450" stroke="#333333" stroke-width="2"/>
<line x1="90" y1="450" x2="1070" y2="450" stroke="#333333" stroke-width="2"/>
<rect x="107.25" y="361.37" width="40.00" height="88.63" fill="#9b2226"/>
<rect x="155.25" y="427.85" width="40.00" height="22.15" fill="#005f73"/>
<text x="151.25" y="500" text-anchor="middle" font-size="11" font-family="Helvetica, Arial, sans-serif" transform="rotate(-25 151.25 500)">n=2048 SSE_FP</text>
<rect x="229.75" y="450.00" width="40.00" height="0.00" fill="#9b2226"/>
<rect x="277.75" y="427.85" width="40.00" height="22.15" fill="#005f73"/>
<text x="273.75" y="500" text-anchor="middle" font-size="11" font-family="Helvetica, Arial, sans-serif" transform="rotate(-25 273.75 500)">n=2048 SSE_FP_PACKED</text>
<rect x="352.25" y="361.37" width="40.00" height="88.63" fill="#9b2226"/>
<rect x="400.25" y="450.00" width="40.00" height="0.00" fill="#005f73"/>
<text x="396.25" y="500" text-anchor="middle" font-size="11" font-family="Helvetica, Arial, sans-serif" transform="rotate(-25 396.25 500)">n=2048 SSE_FP_SCALAR</text>
<rect x="474.75" y="361.38" width="40.00" height="88.62" fill="#9b2226"/>
<rect x="522.75" y="427.83" width="40.00" height="22.17" fill="#005f73"/>
<text x="518.75" y="500" text-anchor="middle" font-size="11" font-family="Helvetica, Arial, sans-serif" transform="rotate(-25 518.75 500)">n=2048 SSE_SINGLE_PRECISION</text>
<rect x="597.25" y="95.47" width="40.00" height="354.53" fill="#9b2226"/>
<rect x="645.25" y="360.49" width="40.00" height="89.51" fill="#005f73"/>
<text x="641.25" y="500" text-anchor="middle" font-size="11" font-family="Helvetica, Arial, sans-serif" transform="rotate(-25 641.25 500)">n=8192 SSE_FP</text>
<rect x="719.75" y="450.00" width="40.00" height="0.00" fill="#9b2226"/>
<rect x="767.75" y="360.52" width="40.00" height="89.48" fill="#005f73"/>
<text x="763.75" y="500" text-anchor="middle" font-size="11" font-family="Helvetica, Arial, sans-serif" transform="rotate(-25 763.75 500)">n=8192 SSE_FP_PACKED</text>
<rect x="842.25" y="95.45" width="40.00" height="354.55" fill="#9b2226"/>
<rect x="890.25" y="450.00" width="40.00" height="0.00" fill="#005f73"/>
<text x="886.25" y="500" text-anchor="middle" font-size="11" font-family="Helvetica, Arial, sans-serif" transform="rotate(-25 886.25 500)">n=8192 SSE_FP_SCALAR</text>
<rect x="964.75" y="95.49" width="40.00" height="354.51" fill="#9b2226"/>
<rect x="1012.75" y="360.33" width="40.00" height="89.67" fill="#005f73"/>
<text x="1008.75" y="500" text-anchor="middle" font-size="11" font-family="Helvetica, Arial, sans-serif" transform="rotate(-25 1008.75 500)">n=8192 SSE_SINGLE_PRECISION</text>
<rect x="850" y="70" width="200" height="70" fill="#ffffff" stroke="#cccccc"/>
<rect x="862" y="83" width="20" height="14" fill="#9b2226"/>
<text x="892" y="94" font-size="13" font-family="Helvetica, Arial, sans-serif">baseline</text>
<rect x="862" y="111" width="20" height="14" fill="#005f73"/>
<text x="892" y="122" font-size="13" font-family="Helvetica, Arial, sans-serif">auto_vectorized</text>
<text x="550.0" y="548" text-anchor="middle" font-size="14" font-family="Helvetica, Arial, sans-serif">Metric group</text>
<text x="22" y="280.0" text-anchor="middle" font-size="14" font-family="Helvetica, Arial, sans-serif" transform="rotate(-90 22 280.0)">Mean event count</text>
</svg>
