<svg xmlns="http://www.w3.org/2000/svg" width="1100" height="700" viewBox="0 0 1100 700" role="img">
<rect width="100%" height="100%" fill="#fcfbf7"/>
<style>
text { font-family: "Helvetica", "Arial", sans-serif; fill: #1f2937; }
.title { font-size: 22px; font-weight: 700; }
.subtitle { font-size: 12px; fill: #4b5563; }
.axis { stroke: #374151; stroke-width: 1.3; }
.grid { stroke: #d1d5db; stroke-width: 1; stroke-dasharray: 4 4; }
.label { font-size: 12px; }
.tick { font-size: 11px; fill: #4b5563; }
.legend { font-size: 12px; }
</style>
<text class="title" x="90" y="46">Mandelbrot Runtime by Thread Count</text>
<text class="subtitle" x="90" y="68">Gray dots show individual runs, orange line shows mean runtime, vertical bars show ±1 standard deviation.</text>
<line class="grid" x1="90.0" y1="570.0" x2="1010.0" y2="570.0"/>
<text class="tick" x="80.0" y="574.0" text-anchor="end">0.00</text>
<line class="grid" x1="90.0" y1="474.0" x2="1010.0" y2="474.0"/>
<text class="tick" x="80.0" y="478.0" text-anchor="end">2.16</text>
<line class="grid" x1="90.0" y1="378.0" x2="1010.0" y2="378.0"/>
<text class="tick" x="80.0" y="382.0" text-anchor="end">4.33</text>
<line class="grid" x1="90.0" y1="282.0" x2="1010.0" y2="282.0"/>
<text class="tick" x="80.0" y="286.0" text-anchor="end">6.49</text>
<line class="grid" x1="90.0" y1="186.0" x2="1010.0" y2="186.0"/>
<text class="tick" x="80.0" y="190.0" text-anchor="end">8.66</text>
<line class="grid" x1="90.0" y1="90.0" x2="1010.0" y2="90.0"/>
<text class="tick" x="80.0" y="94.0" text-anchor="end">10.82</text>
<line class="axis" x1="90.0" y1="570.0" x2="1010.0" y2="570.0"/>
<line class="axis" x1="90.0" y1="90.0" x2="90.0" y2="570.0"/>
<text class="tick" x="90.0" y="594.0" text-anchor="middle">1</text>
<circle cx="74.2" cy="134.5" r="4.2" fill="#9ca3af" fill-opacity="0.85"/>
<circle cx="77.8" cy="136.3" r="4.2" fill="#9ca3af" fill-opacity="0.85"/>
<circle cx="81.2" cy="134.1" r="4.2" fill="#9ca3af" fill-opacity="0.85"/>
<circle cx="84.8" cy="135.0" r="4.2" fill="#9ca3af" fill-opacity="0.85"/>
<circle cx="88.2" cy="133.6" r="4.2" fill="#9ca3af" fill-opacity="0.85"/>
<circle cx="91.8" cy="134.5" r="4.2" fill="#9ca3af" fill-opacity="0.85"/>
<circle cx="95.2" cy="134.1" r="4.2" fill="#9ca3af" fill-opacity="0.85"/>
<circle cx="98.8" cy="136.3" r="4.2" fill="#9ca3af" fill-opacity="0.85"/>
<circle cx="102.2" cy="136.3" r="4.2" fill="#9ca3af" fill-opacity="0.85"/>
<circle cx="105.8" cy="135.0" r="4.2" fill="#9ca3af" fill-opacity="0.85"/>
<line x1="90.0" y1="134.0" x2="90.0" y2="136.0" stroke="#c2410c" stroke-width="2.2"/>
<line x1="80.0" y1="134.0" x2="100.0" y2="134.0" stroke="#c2410c" stroke-width="2.2"/>
<line x1="80.0" y1="136.0" x2="100.0" y2="136.0" stroke="#c2410c" stroke-width="2.2"/>
<circle cx="90.0" cy="135.0" r="5.3" fill="#ea580c"/>
<text class="tick" x="320.0" y="594.0" text-anchor="middle">2</text>
<circle cx="304.2" cy="351.8" r="4.2" fill="#9ca3af" fill-opacity="0.85"/>
<circle cx="307.8" cy="351.8" r="4.2" fill="#9ca3af" fill-opacity="0.85"/>
<circle cx="311.2" cy="351.4" r="4.2" fill="#9ca3af" fill-opacity="0.85"/>
<circle cx="314.8" cy="351.4" r="4.2" fill="#9ca3af" fill-opacity="0.85"/>
<circle cx="318.2" cy="351.4" r="4.2" fill="#9ca3af" fill-opacity="0.85"/>
<circle cx="321.8" cy="351.4" r="4.2" fill="#9ca3af" fill-opacity="0.85"/>
<circle cx="325.2" cy="351.4" r="4.2" fill="#9ca3af" fill-opacity="0.85"/>
<circle cx="328.8" cy="351.4" r="4.2" fill="#9ca3af" fill-opacity="0.85"/>
<circle cx="332.2" cy="351.4" r="4.2" fill="#9ca3af" fill-opacity="0.85"/>
<circle cx="335.8" cy="351.4" r="4.2" fill="#9ca3af" fill-opacity="0.85"/>
<line x1="320.0" y1="351.3" x2="320.0" y2="351.7" stroke="#c2410c" stroke-width="2.2"/>
<line x1="310.0" y1="351.3" x2="330.0" y2="351.3" stroke="#c2410c" stroke-width="2.2"/>
<line x1="310.0" y1="351.7" x2="330.0" y2="351.7" stroke="#c2410c" stroke-width="2.2"/>
<circle cx="320.0" cy="351.5" r="5.3" fill="#ea580c"/>
<text class="tick" x="550.0" y="594.0" text-anchor="middle">4</text>
<circle cx="534.2" cy="386.4" r="4.2" fill="#9ca3af" fill-opacity="0.85"/>
<circle cx="537.8" cy="386.9" r="4.2" fill="#9ca3af" fill-opacity="0.85"/>
<circle cx="541.2" cy="387.3" r="4.2" fill="#9ca3af" fill-opacity="0.85"/>
<circle cx="544.8" cy="387.3" r="4.2" fill="#9ca3af" fill-opacity="0.85"/>
<circle cx="548.2" cy="387.3" r="4.2" fill="#9ca3af" fill-opacity="0.85"/>
<circle cx="551.8" cy="387.3" r="4.2" fill="#9ca3af" fill-opacity="0.85"/>
<circle cx="555.2" cy="387.3" r="4.2" fill="#9ca3af" fill-opacity="0.85"/>
<circle cx="558.8" cy="387.7" r="4.2" fill="#9ca3af" fill-opacity="0.85"/>
<circle cx="562.2" cy="387.3" r="4.2" fill="#9ca3af" fill-opacity="0.85"/>
<circle cx="565.8" cy="387.7" r="4.2" fill="#9ca3af" fill-opacity="0.85"/>
<line x1="550.0" y1="386.9" x2="550.0" y2="387.6" stroke="#c2410c" stroke-width="2.2"/>
<line x1="540.0" y1="386.9" x2="560.0" y2="386.9" stroke="#c2410c" stroke-width="2.2"/>
<line x1="540.0" y1="387.6" x2="560.0" y2="387.6" stroke="#c2410c" stroke-width="2.2"/>
<circle cx="550.0" cy="387.3" r="5.3" fill="#ea580c"/>
<text class="tick" x="780.0" y="594.0" text-anchor="middle">8</text>
<circle cx="764.2" cy="457.4" r="4.2" fill="#9ca3af" fill-opacity="0.85"/>
<circle cx="767.8" cy="457.4" r="4.2" fill="#9ca3af" fill-opacity="0.85"/>
<circle cx="771.2" cy="457.4" r="4.2" fill="#9ca3af" fill-opacity="0.85"/>
<circle cx="774.8" cy="456.9" r="4.2" fill="#9ca3af" fill-opacity="0.85"/>
<circle cx="778.2" cy="457.4" r="4.2" fill="#9ca3af" fill-opacity="0.85"/>
<circle cx="781.8" cy="457.4" r="4.2" fill="#9ca3af" fill-opacity="0.85"/>
<circle cx="785.2" cy="457.4" r="4.2" fill="#9ca3af" fill-opacity="0.85"/>
<circle cx="788.8" cy="456.9" r="4.2" fill="#9ca3af" fill-opacity="0.85"/>
<circle cx="792.2" cy="457.4" r="4.2" fill="#9ca3af" fill-opacity="0.85"/>
<circle cx="795.8" cy="457.4" r="4.2" fill="#9ca3af" fill-opacity="0.85"/>
<line x1="780.0" y1="457.1" x2="780.0" y2="457.5" stroke="#c2410c" stroke-width="2.2"/>
<line x1="770.0" y1="457.1" x2="790.0" y2="457.1" stroke="#c2410c" stroke-width="2.2"/>
<line x1="770.0" y1="457.5" x2="790.0" y2="457.5" stroke="#c2410c" stroke-width="2.2"/>
<circle cx="780.0" cy="457.3" r="5.3" fill="#ea580c"/>
<text class="tick" x="1010.0" y="594.0" text-anchor="middle">12</text>
<circle cx="994.2" cy="490.2" r="4.2" fill="#9ca3af" fill-opacity="0.85"/>
<circle cx="997.8" cy="490.6" r="4.2" fill="#9ca3af" fill-opacity="0.85"/>
<circle cx="1001.2" cy="490.2" r="4.2" fill="#9ca3af" fill-opacity="0.85"/>
<circle cx="1004.8" cy="490.6" r="4.2" fill="#9ca3af" fill-opacity="0.85"/>
<circle cx="1008.2" cy="490.6" r="4.2" fill="#9ca3af" fill-opacity="0.85"/>
<circle cx="1011.8" cy="490.6" r="4.2" fill="#9ca3af" fill-opacity="0.85"/>
<circle cx="1015.2" cy="490.6" r="4.2" fill="#9ca3af" fill-opacity="0.85"/>
<circle cx="1018.8" cy="490.2" r="4.2" fill="#9ca3af" fill-opacity="0.85"/>
<circle cx="1022.2" cy="490.6" r="4.2" fill="#9ca3af" fill-opacity="0.85"/>
<circle cx="1025.8" cy="489.3" r="4.2" fill="#9ca3af" fill-opacity="0.85"/>
<line x1="1010.0" y1="489.9" x2="1010.0" y2="490.8" stroke="#c2410c" stroke-width="2.2"/>
<line x1="1000.0" y1="489.9" x2="1020.0" y2="489.9" stroke="#c2410c" stroke-width="2.2"/>
<line x1="1000.0" y1="490.8" x2="1020.0" y2="490.8" stroke="#c2410c" stroke-width="2.2"/>
<circle cx="1010.0" cy="490.4" r="5.3" fill="#ea580c"/>
<polyline fill="none" stroke="#ea580c" stroke-width="3" points="90.0,135.0 320.0,351.5 550.0,387.3 780.0,457.3 1010.0,490.4"/>
<text class="label" x="550.0" y="660.0" text-anchor="middle">Threads</text>
<text class="label" x="28" y="330.0" transform="rotate(-90 28 330.0)" text-anchor="middle">Real runtime [s]</text>
<circle cx="820" cy="56" r="4.2" fill="#9ca3af" fill-opacity="0.85"/>
<text class="legend" x="834" y="60">Single run</text>
<line x1="930" y1="56" x2="962" y2="56" stroke="#ea580c" stroke-width="3"/>
<circle cx="946" cy="56" r="5.3" fill="#ea580c"/>
<text class="legend" x="972" y="60">Mean runtime</text>
</svg>