<svg xmlns="http://www.w3.org/2000/svg" width="1100" height="700" viewBox="0 0 1100 700" role="img">
<rect width="100%" height="100%" fill="#fcfbf7"/>
<style>
text { font-family: "Helvetica", "Arial", sans-serif; fill: #1f2937; }
.title { font-size: 22px; font-weight: 700; }
.subtitle { font-size: 12px; fill: #4b5563; }
.axis { stroke: #374151; stroke-width: 1.3; }
.grid { stroke: #d1d5db; stroke-width: 1; stroke-dasharray: 4 4; }
.label { font-size: 12px; }
.tick { font-size: 11px; fill: #4b5563; }
.legend { font-size: 12px; }
</style>
<text class="title" x="90" y="46">Speedup and Efficiency</text>
<text class="subtitle" x="90" y="68">Blue line shows measured speedup relative to 1 thread, red bars show parallel efficiency.</text>
<line class="grid" x1="90.0" y1="570.0" x2="1010.0" y2="570.0"/>
<text class="tick" x="80.0" y="574.0" text-anchor="end">0.00</text>
<line class="grid" x1="90.0" y1="474.0" x2="1010.0" y2="474.0"/>
<text class="tick" x="80.0" y="478.0" text-anchor="end">2.64</text>
<line class="grid" x1="90.0" y1="378.0" x2="1010.0" y2="378.0"/>
<text class="tick" x="80.0" y="382.0" text-anchor="end">5.28</text>
<line class="grid" x1="90.0" y1="282.0" x2="1010.0" y2="282.0"/>
<text class="tick" x="80.0" y="286.0" text-anchor="end">7.92</text>
<line class="grid" x1="90.0" y1="186.0" x2="1010.0" y2="186.0"/>
<text class="tick" x="80.0" y="190.0" text-anchor="end">10.56</text>
<line class="grid" x1="90.0" y1="90.0" x2="1010.0" y2="90.0"/>
<text class="tick" x="80.0" y="94.0" text-anchor="end">13.20</text>
<line class="axis" x1="90.0" y1="570.0" x2="1010.0" y2="570.0"/>
<line class="axis" x1="90.0" y1="90.0" x2="90.0" y2="570.0"/>
<text class="tick" x="90.0" y="594.0" text-anchor="middle">1</text>
<line x1="90.0" y1="533.6" x2="90.0" y2="533.6" stroke="#93c5fd" stroke-width="2"/>
<rect x="73.0" y="306.0" width="34" height="264.0" fill="#dc2626" fill-opacity="0.72"/>
<circle cx="90.0" cy="533.6" r="5.2" fill="#2563eb"/>
<text class="tick" x="90.0" y="298.0" text-anchor="middle">1.00</text>
<text class="tick" x="320.0" y="594.0" text-anchor="middle">2</text>
<line x1="320.0" y1="497.3" x2="320.0" y2="497.6" stroke="#93c5fd" stroke-width="2"/>
<rect x="303.0" y="307.2" width="34" height="262.8" fill="#dc2626" fill-opacity="0.72"/>
<circle cx="320.0" cy="497.6" r="5.2" fill="#2563eb"/>
<text class="tick" x="320.0" y="299.2" text-anchor="middle">1.00</text>
<text class="tick" x="550.0" y="594.0" text-anchor="middle">4</text>
<line x1="550.0" y1="424.5" x2="550.0" y2="483.4" stroke="#93c5fd" stroke-width="2"/>
<rect x="533.0" y="412.9" width="34" height="157.1" fill="#dc2626" fill-opacity="0.72"/>
<circle cx="550.0" cy="483.4" r="5.2" fill="#2563eb"/>
<text class="tick" x="550.0" y="404.9" text-anchor="middle">0.60</text>
<text class="tick" x="780.0" y="594.0" text-anchor="middle">8</text>
<line x1="780.0" y1="279.1" x2="780.0" y2="429.7" stroke="#93c5fd" stroke-width="2"/>
<rect x="763.0" y="442.6" width="34" height="127.4" fill="#dc2626" fill-opacity="0.72"/>
<circle cx="780.0" cy="429.7" r="5.2" fill="#2563eb"/>
<text class="tick" x="780.0" y="434.6" text-anchor="middle">0.48</text>
<text class="tick" x="1010.0" y="594.0" text-anchor="middle">12</text>
<line x1="1010.0" y1="133.6" x2="1010.0" y2="371.4" stroke="#93c5fd" stroke-width="2"/>
<rect x="993.0" y="449.8" width="34" height="120.2" fill="#dc2626" fill-opacity="0.72"/>
<circle cx="1010.0" cy="371.4" r="5.2" fill="#2563eb"/>
<text class="tick" x="1010.0" y="441.8" text-anchor="middle">0.46</text>
<polyline fill="none" stroke="#2563eb" stroke-width="3" points="90.0,533.6 320.0,497.6 550.0,483.4 780.0,429.7 1010.0,371.4"/>
<polyline fill="none" stroke="#6b7280" stroke-width="2" stroke-dasharray="8 6" points="90.0,533.6 320.0,497.3 550.0,424.5 780.0,279.1 1010.0,133.6"/>
<text class="label" x="550.0" y="660.0" text-anchor="middle">Threads</text>
<text class="label" x="28" y="330.0" transform="rotate(-90 28 330.0)" text-anchor="middle">Speedup</text>
<line x1="752" y1="56" x2="784" y2="56" stroke="#2563eb" stroke-width="3"/>
<circle cx="768" cy="56" r="5.2" fill="#2563eb"/>
<text class="legend" x="794" y="60">Measured speedup</text>
<line x1="915" y1="56" x2="947" y2="56" stroke="#6b7280" stroke-width="2" stroke-dasharray="8 6"/>
<text class="legend" x="957" y="60">Ideal speedup</text>
<rect x="752" y="86" width="34" height="18" fill="#dc2626" fill-opacity="0.72"/>
<text class="legend" x="794" y="100">Efficiency (0..1, scaled bar)</text>
</svg>