<svg xmlns="http://www.w3.org/2000/svg" width="1000" height="560" viewBox="0 0 1000 560">
<rect width="100%" height="100%" fill="#fffdf8"/>
<text x="500.0" y="30" text-anchor="middle" font-size="22" font-family="Helvetica, Arial, sans-serif">Runtime comparison for Exercise 2</text>
<line x1="90" y1="440.00" x2="970" y2="440.00" stroke="#d9d9d9" stroke-dasharray="4 4"/>
<text x="80" y="445.00" text-anchor="end" font-size="12" font-family="Helvetica, Arial, sans-serif">0.000</text>
<line x1="90" y1="364.00" x2="970" y2="364.00" stroke="#d9d9d9" stroke-dasharray="4 4"/>
<text x="80" y="369.00" text-anchor="end" font-size="12" font-family="Helvetica, Arial, sans-serif">0.592</text>
<line x1="90" y1="288.00" x2="970" y2="288.00" stroke="#d9d9d9" stroke-dasharray="4 4"/>
<text x="80" y="293.00" text-anchor="end" font-size="12" font-family="Helvetica, Arial, sans-serif">1.184</text>
<line x1="90" y1="212.00" x2="970" y2="212.00" stroke="#d9d9d9" stroke-dasharray="4 4"/>
<text x="80" y="217.00" text-anchor="end" font-size="12" font-family="Helvetica, Arial, sans-serif">1.776</text>
<line x1="90" y1="136.00" x2="970" y2="136.00" stroke="#d9d9d9" stroke-dasharray="4 4"/>
<text x="80" y="141.00" text-anchor="end" font-size="12" font-family="Helvetica, Arial, sans-serif">2.368</text>
<line x1="90" y1="60.00" x2="970" y2="60.00" stroke="#d9d9d9" stroke-dasharray="4 4"/>
<text x="80" y="65.00" text-anchor="end" font-size="12" font-family="Helvetica, Arial, sans-serif">2.960</text>
<line x1="90" y1="60" x2="90" y2="440" stroke="#333333" stroke-width="2"/>
<line x1="90" y1="440" x2="970" y2="440" stroke="#333333" stroke-width="2"/>
<rect x="143.00" y="374.66" width="70.00" height="65.34" fill="#005f73"/>
<text x="178.00" y="495" text-anchor="middle" font-size="12" font-family="Helvetica, Arial, sans-serif" transform="rotate(-18 178.00 495)">auto_float</text>
<rect x="319.00" y="94.55" width="70.00" height="345.45" fill="#005f73"/>
<text x="354.00" y="495" text-anchor="middle" font-size="12" font-family="Helvetica, Arial, sans-serif" transform="rotate(-18 354.00 495)">baseline_double</text>
<rect x="495.00" y="95.34" width="70.00" height="344.66" fill="#005f73"/>
<text x="530.00" y="495" text-anchor="middle" font-size="12" font-family="Helvetica, Arial, sans-serif" transform="rotate(-18 530.00 495)">baseline_float</text>
<rect x="671.00" y="209.77" width="70.00" height="230.23" fill="#005f73"/>
<text x="706.00" y="495" text-anchor="middle" font-size="12" font-family="Helvetica, Arial, sans-serif" transform="rotate(-18 706.00 495)">omp_simd_double</text>
<rect x="847.00" y="374.62" width="70.00" height="65.38" fill="#005f73"/>
<text x="882.00" y="495" text-anchor="middle" font-size="12" font-family="Helvetica, Arial, sans-serif" transform="rotate(-18 882.00 495)">omp_simd_float</text>
<rect x="730" y="70" width="220" height="42" fill="#ffffff" stroke="#cccccc"/>
<rect x="742" y="83" width="20" height="14" fill="#005f73"/>
<text x="772" y="94" font-size="13" font-family="Helvetica, Arial, sans-serif">mean runtime</text>
<text x="22" y="280.0" text-anchor="middle" font-size="14" font-family="Helvetica, Arial, sans-serif" transform="rotate(-90 22 280.0)">Mean runtime [s]</text>
</svg>
