<svg xmlns="http://www.w3.org/2000/svg" width="1240" height="780" viewBox="0 0 1240 780">
<rect width="100%" height="100%" fill="#f8fafc"/>
<style>
text { font-family: Helvetica, Arial, sans-serif; fill: #0f172a; }
.title { font-size: 24px; font-weight: 700; }
.subtitle { font-size: 12px; fill: #475569; }
.axis { stroke: #0f172a; stroke-width: 1.2; }
.grid { stroke: #cbd5e1; stroke-dasharray: 4 4; }
.tick { font-size: 11px; fill: #475569; }
.legend { font-size: 12px; }
</style>
<text class="title" x="90" y="52">Exercise 2 Runtime Comparison</text>
<text class="subtitle" x="90" y="74">Each transformed loop version is benchmarked against the original serial dependency-carrying code.</text>
<line class="grid" x1="90" y1="630.0" x2="1110" y2="630.0"/>
<text class="tick" x="80" y="634.0" text-anchor="end">0.00</text>
<line class="grid" x1="90" y1="526.0" x2="1110" y2="526.0"/>
<text class="tick" x="80" y="530.0" text-anchor="end">0.02</text>
<line class="grid" x1="90" y1="422.0" x2="1110" y2="422.0"/>
<text class="tick" x="80" y="426.0" text-anchor="end">0.04</text>
<line class="grid" x1="90" y1="318.0" x2="1110" y2="318.0"/>
<text class="tick" x="80" y="322.0" text-anchor="end">0.07</text>
<line class="grid" x1="90" y1="214.0" x2="1110" y2="214.0"/>
<text class="tick" x="80" y="218.0" text-anchor="end">0.09</text>
<line class="grid" x1="90" y1="110.0" x2="1110" y2="110.0"/>
<text class="tick" x="80" y="114.0" text-anchor="end">0.11</text>
<line class="axis" x1="90" y1="630" x2="1110" y2="630"/>
<line class="axis" x1="90" y1="110" x2="90" y2="630"/>
<text class="tick" x="90.0" y="654" text-anchor="middle">1</text>
<text class="tick" x="430.0" y="654" text-anchor="middle">2</text>
<text class="tick" x="770.0" y="654" text-anchor="middle">4</text>
<text class="tick" x="1110.0" y="654" text-anchor="middle">8</text>
<line x1="90" y1="466.0" x2="1110" y2="466.0" stroke="#2563eb" stroke-dasharray="8 6" stroke-width="1.5" opacity="0.55"/>
<line x1="90.0" y1="116.8" x2="90.0" y2="197.8" stroke="#2563eb" stroke-width="2"/>
<circle cx="90.0" cy="157.3" r="5" fill="#2563eb"/>
<line x1="430.0" y1="385.7" x2="430.0" y2="405.0" stroke="#2563eb" stroke-width="2"/>
<circle cx="430.0" cy="395.4" r="5" fill="#2563eb"/>
<line x1="770.0" y1="474.9" x2="770.0" y2="491.9" stroke="#2563eb" stroke-width="2"/>
<circle cx="770.0" cy="483.4" r="5" fill="#2563eb"/>
<line x1="1110.0" y1="512.2" x2="1110.0" y2="544.2" stroke="#2563eb" stroke-width="2"/>
<circle cx="1110.0" cy="528.2" r="5" fill="#2563eb"/>
<polyline fill="none" stroke="#2563eb" stroke-width="3" points="90.0,157.3 430.0,395.4 770.0,483.4 1110.0,528.2"/>
<line x1="90" y1="523.7" x2="1110" y2="523.7" stroke="#dc2626" stroke-dasharray="8 6" stroke-width="1.5" opacity="0.55"/>
<line x1="90.0" y1="509.4" x2="90.0" y2="515.7" stroke="#dc2626" stroke-width="2"/>
<circle cx="90.0" cy="512.6" r="5" fill="#dc2626"/>
<line x1="430.0" y1="538.9" x2="430.0" y2="543.7" stroke="#dc2626" stroke-width="2"/>
<circle cx="430.0" cy="541.3" r="5" fill="#dc2626"/>
<line x1="770.0" y1="544.2" x2="770.0" y2="553.2" stroke="#dc2626" stroke-width="2"/>
<circle cx="770.0" cy="548.7" r="5" fill="#dc2626"/>
<line x1="1110.0" y1="544.0" x2="1110.0" y2="555.1" stroke="#dc2626" stroke-width="2"/>
<circle cx="1110.0" cy="549.6" r="5" fill="#dc2626"/>
<polyline fill="none" stroke="#dc2626" stroke-width="3" points="90.0,512.6 430.0,541.3 770.0,548.7 1110.0,549.6"/>
<line x1="90" y1="541.1" x2="1110" y2="541.1" stroke="#059669" stroke-dasharray="8 6" stroke-width="1.5" opacity="0.55"/>
<line x1="90.0" y1="546.1" x2="90.0" y2="558.6" stroke="#059669" stroke-width="2"/>
<circle cx="90.0" cy="552.3" r="5" fill="#059669"/>
<line x1="430.0" y1="567.0" x2="430.0" y2="574.5" stroke="#059669" stroke-width="2"/>
<circle cx="430.0" cy="570.7" r="5" fill="#059669"/>
<line x1="770.0" y1="573.2" x2="770.0" y2="580.0" stroke="#059669" stroke-width="2"/>
<circle cx="770.0" cy="576.6" r="5" fill="#059669"/>
<line x1="1110.0" y1="577.4" x2="1110.0" y2="581.7" stroke="#059669" stroke-width="2"/>
<circle cx="1110.0" cy="579.6" r="5" fill="#059669"/>
<polyline fill="none" stroke="#059669" stroke-width="3" points="90.0,552.3 430.0,570.7 770.0,576.6 1110.0,579.6"/>
<line x1="90" y1="543.9" x2="1110" y2="543.9" stroke="#7c3aed" stroke-dasharray="8 6" stroke-width="1.5" opacity="0.55"/>
<line x1="90.0" y1="533.6" x2="90.0" y2="546.5" stroke="#7c3aed" stroke-width="2"/>
<circle cx="90.0" cy="540.0" r="5" fill="#7c3aed"/>
<line x1="430.0" y1="563.3" x2="430.0" y2="569.6" stroke="#7c3aed" stroke-width="2"/>
<circle cx="430.0" cy="566.4" r="5" fill="#7c3aed"/>
<line x1="770.0" y1="574.1" x2="770.0" y2="578.4" stroke="#7c3aed" stroke-width="2"/>
<circle cx="770.0" cy="576.3" r="5" fill="#7c3aed"/>
<line x1="1110.0" y1="576.3" x2="1110.0" y2="581.1" stroke="#7c3aed" stroke-width="2"/>
<circle cx="1110.0" cy="578.7" r="5" fill="#7c3aed"/>
<polyline fill="none" stroke="#7c3aed" stroke-width="3" points="90.0,540.0 430.0,566.4 770.0,576.3 1110.0,578.7"/>
<text x="600.0" y="736" text-anchor="middle">Threads</text>
<text x="28" y="370.0" transform="rotate(-90 28 370.0)" text-anchor="middle">Runtime [s]</text>
<line x1="850" y1="58" x2="878" y2="58" stroke="#2563eb" stroke-width="3"/>
<circle cx="864" cy="58" r="5" fill="#2563eb"/>
<text class="legend" x="888" y="62">case_a</text>
<line x1="850" y1="82" x2="878" y2="82" stroke="#dc2626" stroke-width="3"/>
<circle cx="864" cy="82" r="5" fill="#dc2626"/>
<text class="legend" x="888" y="86">case_b</text>
<line x1="850" y1="106" x2="878" y2="106" stroke="#059669" stroke-width="3"/>
<circle cx="864" cy="106" r="5" fill="#059669"/>
<text class="legend" x="888" y="110">case_c_twice0</text>
<line x1="850" y1="130" x2="878" y2="130" stroke="#7c3aed" stroke-width="3"/>
<circle cx="864" cy="130" r="5" fill="#7c3aed"/>
<text class="legend" x="888" y="134">case_c_twice1</text>
</svg>